<svg id="Layer_1" data-name="Layer 1" xmlns="http://www.w3.org/2000/svg" viewBox="0 0 180.5 24.15"><defs><style>.cls-1{fill:#557ebf;}.cls-2{fill:#36a852;}.cls-3{fill:#f9bc15;}.cls-4{fill:#ea4535;}.cls-5{fill:#4473b9;}.cls-6{fill:#fff;}.cls-7{fill:#010101;}.cls-8{fill:#2faae1;}.cls-9{fill:#43b649;}.cls-10{fill:#27356a;}.cls-10,.cls-11,.cls-12{fill-rule:evenodd;}.cls-11{fill:#2791c3;}.cls-12{fill:#1e274f;}</style></defs><g id="Google"><g id="Group_17428" data-name="Group 17428"><g id="Google_G_Logo" data-name="Google  G  Logo"><path id="Path_5435" data-name="Path 5435" class="cls-1" d="M23.52,12.43a14.18,14.18,0,0,0-.2-2.44H12v4.62h6.48a5.55,5.55,0,0,1-2.4,3.64v3H20A11.74,11.74,0,0,0,23.52,12.43Z"/><path id="Path_5436" data-name="Path 5436" class="cls-2" d="M12,24.15a11.52,11.52,0,0,0,8-2.9l-3.87-3a7.25,7.25,0,0,1-10.81-3.8h-4v3.09A12,12,0,0,0,12,24.15Z"/><path id="Path_5437" data-name="Path 5437" class="cls-3" d="M5.26,14.45a7.21,7.21,0,0,1,0-4.59V6.77h-4a12,12,0,0,0,0,10.77Z"/><path id="Path_5438" data-name="Path 5438" class="cls-4" d="M12,4.9a6.51,6.51,0,0,1,4.6,1.8L20,3.27A11.5,11.5,0,0,0,12,.15,12,12,0,0,0,1.27,6.77l4,3.09A7.17,7.17,0,0,1,12,4.9Z"/></g></g></g><g id="Facebook"><g id="Group_17427" data-name="Group 17427"><g id="Layer_1-2" data-name="Layer_1"><path id="Path_5439" data-name="Path 5439" class="cls-5" d="M50.5,12A12,12,0,1,0,36.62,23.85V15.47h-3V12h3V9.35c0-3,1.8-4.67,4.54-4.67a18.41,18.41,0,0,1,2.68.24v3H42.33a1.73,1.73,0,0,0-1.94,1.5,1.6,1.6,0,0,0,0,.38V12h3.33l-.53,3.47H40.37v8.38A12,12,0,0,0,50.5,12Z"/><path id="Path_5440" data-name="Path 5440" class="cls-6" d="M43.17,15.47,43.7,12H40.37V9.74A1.74,1.74,0,0,1,42,7.86a1.63,1.63,0,0,1,.38,0h1.51V4.92a17.35,17.35,0,0,0-2.69-.24c-2.74,0-4.53,1.66-4.53,4.67V12h-3v3.47h3v8.38A11.82,11.82,0,0,0,38.5,24a11.69,11.69,0,0,0,1.87-.15V15.47Z"/></g></g></g><g id="Amazon"><g id="Group_17429" data-name="Group 17429"><path id="amazon-icon" class="cls-7" d="M52.54,18.53c.08-.12.19-.12.35,0a23.22,23.22,0,0,0,11.87,3.16,23.3,23.3,0,0,0,8.45-1.59l.31-.13.3-.13a.38.38,0,0,1,.51.13q.19.26-.12.48c-.26.19-.6.41-1,.65A16.33,16.33,0,0,1,69,22.81a17.65,17.65,0,0,1-4.52.61,17.55,17.55,0,0,1-6.44-1.19,17.73,17.73,0,0,1-5.43-3.35.32.32,0,0,1-.13-.22A.28.28,0,0,1,52.54,18.53Zm6.57-6.22a4.43,4.43,0,0,1,.74-2.57,4.59,4.59,0,0,1,2-1.62,11.18,11.18,0,0,1,2.91-.72l1.91-.17V6.86A3.79,3.79,0,0,0,66.4,5,1.63,1.63,0,0,0,65,4.33h-.17a2.43,2.43,0,0,0-1.25.45,1.79,1.79,0,0,0-.67,1.1.57.57,0,0,1-.44.5l-2.51-.31c-.25-.06-.37-.19-.37-.4a.77.77,0,0,1,0-.15,4.15,4.15,0,0,1,1.82-2.87,6.73,6.73,0,0,1,3.4-1h.54a5.49,5.49,0,0,1,3.88,1.29,3.07,3.07,0,0,1,.41.47,4.27,4.27,0,0,1,.3.44,2.25,2.25,0,0,1,.19.57c.06.25.11.42.13.51a2.54,2.54,0,0,1,.07.61c0,.32,0,.5,0,.56v5.28a3.37,3.37,0,0,0,.16,1,2.75,2.75,0,0,0,.32.67l.5.67a.63.63,0,0,1,.13.35.36.36,0,0,1-.17.3l-2,1.71a.6.6,0,0,1-.63,0,6.54,6.54,0,0,1-.53-.5l-.33-.35a4.23,4.23,0,0,1-.32-.42l-.3-.43a5.41,5.41,0,0,1-2.4,1.66,6.72,6.72,0,0,1-1.84.22,3.87,3.87,0,0,1-2.76-1A3.91,3.91,0,0,1,59.11,12.31Zm3.76-.43a2,2,0,0,0,.42,1.36,1.41,1.41,0,0,0,1.15.51l.18,0,.17,0a2.22,2.22,0,0,0,1.41-1.18,3,3,0,0,0,.36-.91,3.43,3.43,0,0,0,.13-.79c0-.21,0-.54,0-1V9.28a8.18,8.18,0,0,0-1.91.17,2.35,2.35,0,0,0-1.93,2.43Zm9.16,7a.52.52,0,0,1,.13-.17,3.13,3.13,0,0,1,1-.5A6.35,6.35,0,0,1,74.82,18a1.12,1.12,0,0,1,.41,0c.66.06,1,.16,1.18.32a.71.71,0,0,1,.09.4v.15a5.09,5.09,0,0,1-.42,1.8,4.14,4.14,0,0,1-1.15,1.67.4.4,0,0,1-.2.09.11.11,0,0,1-.08,0c-.09,0-.11-.12-.07-.24a8.17,8.17,0,0,0,.81-2.64.56.56,0,0,0-.09-.35c-.14-.17-.55-.26-1.22-.26-.25,0-.54,0-.87,0l-1,.14a.26.26,0,0,1-.17-.05A.06.06,0,0,1,72,19,.14.14,0,0,1,72,18.9Z"/></g></g><g id="Apple"><g id="Group_17430" data-name="Group 17430"><path id="apple-black" class="cls-7" d="M123.32,12.9a5.31,5.31,0,0,0,3.22,4.86,13.14,13.14,0,0,1-1.66,3.41c-1,1.46-2,2.92-3.67,2.95s-2.13-.95-4-.95-2.42.92-3.94,1-2.78-1.58-3.78-3c-2.07-3-3.64-8.42-1.53-12.09a5.88,5.88,0,0,1,5-3c1.55,0,3,1,4,1s2.73-1.29,4.59-1.1a5.61,5.61,0,0,1,4.39,2.38,5.43,5.43,0,0,0-2.59,4.57M120.3,4A5.29,5.29,0,0,0,121.55.15,5.37,5.37,0,0,0,118,2a5,5,0,0,0-1.27,3.71A4.45,4.45,0,0,0,120.3,4"/></g></g><g id="Twitter"><g id="Group_17549" data-name="Group 17549"><g id="twitter-3"><circle id="Ellipse_7" data-name="Ellipse 7" class="cls-8" cx="142.5" cy="12.15" r="12"/><path id="Path_5445" data-name="Path 5445" class="cls-6" d="M150.13,7.16a6,6,0,0,1-1.76.48,3.12,3.12,0,0,0,1.35-1.7,5.92,5.92,0,0,1-1.95.74,3.07,3.07,0,0,0-5.31,2.11,2.79,2.79,0,0,0,.08.7,8.74,8.74,0,0,1-6.33-3.21,3.07,3.07,0,0,0,.95,4.1,3.05,3.05,0,0,1-1.39-.39v0a3.07,3.07,0,0,0,2.46,3,3.16,3.16,0,0,1-.81.11,2.86,2.86,0,0,1-.58-.06,3.09,3.09,0,0,0,2.87,2.14,6.17,6.17,0,0,1-4.54,1.27,8.74,8.74,0,0,0,13.44-7.36c0-.13,0-.26,0-.4A6.21,6.21,0,0,0,150.13,7.16Z"/></g></g></g><g id="WeChat"><g id="Group_17550" data-name="Group 17550"><rect id="Rectangle_4722" data-name="Rectangle 4722" class="cls-9" x="156.5" width="24" height="24" rx="5.54"/><path id="Path_5446" data-name="Path 5446" class="cls-6" d="M172.68,8.94h.38c-.52-2.75-3.38-4.85-6.83-4.85-3.82,0-6.92,2.58-6.92,5.76a5.41,5.41,0,0,0,2.39,4.35.44.44,0,0,1,.19.37.77.77,0,0,1,0,.15c-.12.43-.3,1.13-.31,1.16a1,1,0,0,0,0,.17.23.23,0,0,0,.23.23.33.33,0,0,0,.14,0l1.51-.88a.79.79,0,0,1,.37-.1.64.64,0,0,1,.2,0,8.27,8.27,0,0,0,2.26.31h.38a4.46,4.46,0,0,1-.23-1.4C166.38,11.29,169.2,8.94,172.68,8.94ZM168.53,7.1a.92.92,0,1,1-.92.92.93.93,0,0,1,.92-.93h0Zm-4.61,1.84a.93.93,0,1,1,.93-.93A.93.93,0,0,1,163.92,8.94Zm12.54,8.87a4.5,4.5,0,0,0,2-3.62c0-2.65-2.58-4.8-5.77-4.8s-5.76,2.15-5.76,4.8,2.58,4.8,5.76,4.8a7.12,7.12,0,0,0,1.89-.26.47.47,0,0,1,.17,0,.55.55,0,0,1,.3.09l1.26.72a.17.17,0,0,0,.11,0,.22.22,0,0,0,.14-.05.2.2,0,0,0,.06-.14l0-.14s-.17-.61-.26-1a.25.25,0,0,1,0-.12.37.37,0,0,1,.16-.31Zm-5.7-4.38a.77.77,0,0,1-.76-.77.77.77,0,1,1,.76.77Zm3.85,0a.78.78,0,1,1,0-1.55.77.77,0,0,1,.77.77.8.8,0,0,1-.22.55.85.85,0,0,1-.54.23Z"/></g></g><g id="Paypal_" data-name="Paypal "><g id="Page-1"><g id="pp_fc_hl" data-name="pp fc hl"><g id="pp_h_rgb" data-name="pp h rgb"><g id="Group-10"><path id="Fill-8" class="cls-10" d="M90.3,23,91,18.38l0-.26a1,1,0,0,1,.94-.8h.58A10.79,10.79,0,0,0,95.25,17a7.05,7.05,0,0,0,2.22-1,6.26,6.26,0,0,0,1.67-1.84,8.6,8.6,0,0,0,1-2.78,7.12,7.12,0,0,0,.1-2.52,3.78,3.78,0,0,0-.87-1.94,3.86,3.86,0,0,0-1.06-.82h0a6.11,6.11,0,0,0,0-2.41,4.17,4.17,0,0,0-1-1.87c-1-1.2-3-1.8-5.68-1.8H84.17a1,1,0,0,0-1,.88L80,20.6a.62.62,0,0,0,.52.71h4.73v0l-.32,2a.54.54,0,0,0,.45.62h4a.92.92,0,0,0,.9-.78l0-.19"/><path id="Fill-9" class="cls-10" d="M87.65,6.12a.93.93,0,0,1,.92-.79h5.85a13.67,13.67,0,0,1,1.92.14l.5.1.46.11.22.07a5.77,5.77,0,0,1,.81.34,4.76,4.76,0,0,0-1-4.28C96.21.54,94.2,0,91.63,0H84.17a1.07,1.07,0,0,0-1.06.9L80,20.6a.64.64,0,0,0,.54.73h4.7l2.4-15.22"/></g><path id="Fill-11" class="cls-11" d="M98.33,6.1h0c0,.14,0,.28-.07.43-1,5.06-4.35,6.8-8.65,6.8H87.42a1.06,1.06,0,0,0-1,.9l-1.44,9.13a.55.55,0,0,0,.47.63h4a.93.93,0,0,0,.92-.79l0-.2.73-4.63,0-.26a.93.93,0,0,1,.92-.79h.58c3.76,0,6.71-1.53,7.57-5.95.36-1.84.17-3.38-.78-4.47a3.86,3.86,0,0,0-1.06-.82"/><path id="Fill-12" class="cls-12" d="M97.3,5.69a3.45,3.45,0,0,0-.46-.12,3.56,3.56,0,0,0-.49-.09,12.45,12.45,0,0,0-1.93-.15H88.57a.93.93,0,0,0-.92.79L86.4,14l0,.23a1.07,1.07,0,0,1,1-.91h2.19c4.3,0,7.66-1.75,8.65-6.79,0-.15,0-.3.07-.44a4.79,4.79,0,0,0-.81-.34l-.22-.07"/></g></g></g></g></svg>