<svg id="svg2407" xmlns="http://www.w3.org/2000/svg" viewBox="0 0 1004.4 321.7"><style>.st0{fill:#363636;} .st1{fill:#878787;}</style><path id="path205" d="M938.1 0v3.3h8v21h2.8v-21h8V0h-18.8zm22 0v24.3h3.3V4.2l7 20.1h2.8l6.5-19.6v19.6h3.3V0h-4.2l-7 20.6-7-20.6h-4.7z"/><path id="path215" class="st0" d="M784.3 0l-12.2.9s-12.6 2.8-12.6 8.4V28l-54.7 1.9V19.6h-25.3s-25.3 1.9-25.3 9.4v68.3h105.2V144H687v18.7h72.5v107.1l53.8-5.6V162.7h77.2V144h-77.2V97.3H904v-9.4h2.3s7 0 11.2-11.2l4.2-30.9s-.5-22.4-24.3-22.4l-84.2 2.8V0h-28.9zm83.2 43s7.5-.5 8 7.5L871.7 79h-167V48.2l54.7-1.4v.5l53.8-2.3 54.3-2z"/><path id="path971" class="st1" d="M457.4 144l17.3 20.1 20.1 17.8s5.6 5.6 11.2 0l19.6-17.8L543 144s6.1-5.1 0-11.7l-17.3-19.6L506 95.4s-5.6-5.6-11.2 0l-19.6 17.3-17.8 19.6s-5.2 6.6 0 11.7"/><path id="path973" class="st1" d="M906.3 205.8s3.3-4.2 0-8.9l-13.6-15-15-13.1s-4.2-4.2-8.9 0l-15 13.1-13.1 15s-3.7 4.7 0 8.9l13.1 15 15 13.1s4.7 4.7 8.9 0l15-13.1 13.6-15"/><path id="path979" class="st0" d="M104.3 121.6h160.4s-4.7 18.2-16.4 41.2c0 0-20.1 39.3-51 68.7 0 0-58 54.2-95.4 54.2 0 0-27.6 0-45.4-10.3 0 0-22-13.6-22-41.6 0 0 0-36.9 56.6-47.7 0 0-36.5-2.3-55.7 16.8 0 0-17.8 16.8-17.8 46.3 0 0 0 28.1 25.7 44.9 0 0 22.9 15.4 55.7 15l7.5.5s63.6-3.3 122.5-52.4c0 0 50.5-42.1 75.8-102.4 0 0 8-18.7 12.2-37.4l2.8-14.5v.5h-86.5V62.2h109V44h-109V1.4h-28.5l-12.2.9S180 5.1 180 10.7V44H74.8v18.2H180v41.2h-75.8v18.2"/><path id="path981" class="st0" d="M463.9 0l-.9 8.9-6.1 22s-6.5 15-16.4 26.7v210.9l-53.8-6.5V94.5s-20.1 10.3-37.4 16.8l-7-11.2s18.2-12.6 36.5-30.4c0 0 36-36 36-60.3 0 0 0-5.6 12.6-8.4l12.2-1h24.3"/><path id="path983" class="st0" d="M449 80.9h101v194.5l53.8.9V80.9h28.1V62.2h-28.1V0h-29l-12.2.9S550 3.7 550 9.3v52.8H449v18.8"/><path id="path985" class="st1" d="M204.4 194.1S136.1 164.2 94 162.8c0 0-34.6-1.9-63.1 18.2 0 0-29.9 21-30.9 52.4 0 0 0 36.5 29 57.1 0 0 26.7 19.2 69.7 19.2h4.2l-7-.5s-31.3 0-53.3-15.4c0 0-24.3-17.3-24.3-45.8 0 0 0-30.9 21.5-46.8 0 0 18.2-13.1 47.7-13.6l41.6 4.7 32.3 12.6 77.2 39.3s52.8 27.6 103.4 44.4c0 0 175.8 58.5 569.2 20.1l21-4.2s7.5-3.3 13.6-13.1c0 0 5.1-8 40.2-39.3 0 0 25.3-22.9 16.8-30.4l-12.2 1.9S862 252.6 666 260.5c0 0-220.3 8.9-329.2-22.4-.1-.1-75.4-21.6-132.4-44"/></svg>