<svg id="bluebox_gradient" xmlns="http://www.w3.org/2000/svg" viewBox="0 0 323 299.3"><style>.st0{fill:#1479BF;} .st1{fill:#FFFFFF;} .st2{fill:#0B7CC1;}</style><path class="st0" d="M323 0H24.8v299.3H323v-98.8c1.2-1.7 1.8-3.9 1.8-6.6 0-3.1-.6-4.9-1.8-6.5V0z"/><path class="st1" d="M51.6 129.6l-5.7-14-5.7 14h11.4zM178 124c-1.1.7-2.5.7-4.1.7h-10.2v-7.8H174c1.5 0 3 .1 4 .6 1.1.5 1.8 1.6 1.8 3.1 0 1.6-.7 2.8-1.8 3.4m72.7 5.6l-5.8-14-5.8 14h11.6zm-135.4 15.1h-8.6l-.1-27.4-12.1 27.4h-7.4l-12.2-27.5v27.5h-17l-3.2-7.8H37.2l-3.2 7.8h-9.1l15-35.1h12.5l14.2 33.2v-33.2h13.7l11 23.8 10.1-23.8h13.9v35.1zm34.2 0h-28v-35.1h28v7.3h-19.6v6.3H149v7.2h-19.1v7h19.6v7.3zm39.5-25.6c0 5.5-3.7 8.5-5.9 9.3 1.8.7 3.4 1.9 4.1 3 1.2 1.7 1.4 3.3 1.4 6.4v6.9h-8.5v-4.4c0-2.1.2-5.1-1.3-6.8-1.2-1.3-3.1-1.5-6.1-1.5h-9v12.7h-8.4v-35.1h19.3c4.3 0 7.5.1 10.2 1.7 2.6 1.6 4.2 3.9 4.2 7.8m13.4 25.6h-8.6v-35.1h8.6v35.1zm99.2 0h-11.9l-15.9-26.3v26.3h-17.1l-3.3-7.8H236l-3.1 7.8h-9.8c-4.1 0-9.2-.9-12.1-3.9-3-3-4.5-7-4.5-13.4 0-5.2.9-10 4.5-13.7 2.7-2.8 7-4.1 12.7-4.1h8.1v7.5H224c-3.1 0-4.8.5-6.5 2.1-1.4 1.5-2.4 4.3-2.4 7.9 0 3.8.7 6.5 2.3 8.2 1.3 1.4 3.6 1.8 5.8 1.8h3.8l11.8-27.6h12.5l14.2 33.2v-33.2h12.8l14.7 24.4v-24.4h8.6v35.2zm-276.8 6.9h14.3l3.2-7.8h7.2l3.2 7.8h28.2v-6l2.5 6H98l2.5-6.1v6h70v-12.8h1.4c1 0 1.2.1 1.2 1.7v11.1h36.3v-3c2.9 1.6 7.5 3 13.4 3h15.3l3.2-7.8h7.2l3.2 7.8h29.4v-7.4l4.5 7.4h23.5v-48.9h-23.3v5.8l-3.2-5.8h-23.9v5.8l-3-5.8h-32.3c-5.4 0-10.2.7-14 2.9v-2.9h-22.3v2.9c-2.5-2.2-5.8-2.9-9.5-2.9H96.3l-5.5 12.6-5.6-12.6H59.5v5.8l-2.8-5.8H34.9l-10.2 23.2.1 25.8zM323 177.4h-15.3c-1.5 0-2.5.1-3.4.6-.9.6-1.2 1.4-1.2 2.5 0 1.3.7 2.2 1.9 2.6.9.3 1.8.4 3.2.4l4.5.1c4.6.1 7.6.9 9.5 2.8.3.3.5.6.8.9v-9.9zm0 23.2c-2.1 3-6 4.5-11.4 4.5h-16.2v-7.5h16.1c1.6 0 2.7-.2 3.4-.9.6-.5 1-1.3 1-2.3s-.4-1.9-1-2.3c-.6-.6-1.5-.8-3-.8-7.9-.3-17.7.2-17.7-10.9 0-5.1 3.2-10.4 12-10.4h16.7v-7h-15.5c-4.7 0-8.1 1.1-10.5 2.9V163h-23c-3.6 0-7.9.9-10 2.9V163h-41v2.9c-3.3-2.3-8.8-2.9-11.3-2.9h-27v2.9c-2.6-2.5-8.3-2.9-11.8-2.9h-30.3l-6.9 7.5-6.5-7.5H84v48.9h44.5l7.2-7.6 6.7 7.6h27.3v-11.5h2.7c3.6 0 7.9-.1 11.7-1.7v13.2h22.6v-12.8h1.1c1.4 0 1.5.1 1.5 1.4v11.3h68.5c4.3 0 8.8-1.1 11.4-3.1v3.1h21.7c4.5 0 8.9-.6 12.3-2.3v-8.9h-.2zm-33.5-14c1.7 1.7 2.5 3.8 2.5 7.4 0 7.6-4.7 11.1-13.2 11.1h-16.3v-7.5h16.3c1.6 0 2.7-.2 3.4-.9.6-.5 1-1.3 1-2.3s-.4-1.9-1-2.3c-.7-.6-1.5-.8-3-.8-7.8-.3-17.7.2-17.7-10.9 0-5.1 3.2-10.4 12-10.4h16.9v7.5h-15.3c-1.6 0-2.5.1-3.4.6-.9.6-1.2 1.4-1.2 2.5 0 1.3.8 2.2 1.8 2.6.9.3 1.8.4 3.2.4l4.5.1c4.6.2 7.6.9 9.5 2.9m-75.6-2.2c-1.1.6-2.5.7-4.1.7h-10.2v-7.9H210c1.5 0 3 0 4 .6 1.1.6 1.7 1.6 1.7 3.2 0 1.5-.7 2.7-1.8 3.4m5.1 4.3c1.9.7 3.4 1.9 4.1 3 1.2 1.7 1.4 3.3 1.4 6.4v7h-8.4v-4.4c0-2.1.2-5.2-1.4-6.8-1.2-1.3-3.1-1.6-6.2-1.6h-9v12.8h-8.4V170h19.3c4.3 0 7.4.2 10.1 1.7 2.6 1.6 4.3 3.8 4.3 7.8.1 5.5-3.6 8.4-5.8 9.2m10.6-18.7h28v7.3H238v6.4h19.1v7.2H238v7h19.6v7.3h-28V170zM173 186.2h-10.8v-8.9h10.9c3 0 5.1 1.2 5.1 4.3 0 3-2 4.6-5.2 4.6m-19.2 15.7l-12.9-14.3 12.9-13.8v28.1zm-33.2-4.2H100v-7h18.4v-7.2H100v-6.4h21l9.2 10.2-9.6 10.4zm66.6-16.2c0 9.7-7.3 11.8-14.6 11.8h-10.5v11.8h-16.3l-10.3-11.6-10.7 11.6H91.6V170h33.8l10.3 11.5 10.7-11.5h26.8c6.6 0 14 1.8 14 11.5"/><path class="st2" d="M20.1 292.6c0 3.2-2.5 5.8-5.8 5.8s-5.8-2.6-5.8-5.8 2.4-5.8 5.8-5.8 5.8 2.6 5.8 5.8m1 0c0-3.7-3-6.8-6.8-6.8s-6.8 3-6.8 6.8 3.1 6.8 6.8 6.8c3.8 0 6.8-3.1 6.8-6.8m-5.2-1.4c0-.8-.5-.9-.9-.9h-1.9v1.8h1.8c.5 0 1-.1 1-.9m1.4 4.5h-1.2c-.2-.5-.2-1.4-.2-1.7 0-.5-.1-.9-.9-.9h-1.8v2.6h-1.1v-6.3H15c1 0 2.1.4 2.1 1.8 0 .8-.3 1.2-.7 1.4.3.2.5.4.6 1.1v1.1c0 .3 0 .4.3.5v.4z"/></svg>