<svg xmlns="http://www.w3.org/2000/svg" width="325.963" height="230.653" viewBox="0 0 325.963 230.653"><path fill="#FFF" d="M325.976 210.734c0 10.913-8.93 19.843-19.843 19.843H19.765c-10.913 0-19.843-8.93-19.843-19.843V19.92C-.078 9.005 8.852.075 19.765.075h286.37c10.912 0 19.842 8.93 19.842 19.843v190.814z"/><path fill="none" d="M-.078.076h326.04v230.5H-.077z"/><path d="M289.41 192.462v-3.727c0-.54-.336-.812-1.01-.812h-2.36c-.74 0-1.188-.136-1.348-.41-.16-.27-.24-.89-.24-1.853v-14.014h3.948c.256 0 .48-.097.674-.29.192-.195.29-.422.29-.68v-3.934c0-.258-.098-.486-.29-.68-.193-.194-.418-.29-.674-.29h-3.95v-5.106c0-.256-.08-.457-.24-.602-.158-.144-.366-.216-.62-.216h-.145l-5.84 1.01c-.255.066-.478.178-.67.338-.19.16-.286.37-.286.626v3.95h-3.853c-.258 0-.49.104-.7.312-.208.21-.312.442-.312.698v3.18c0 .256.104.473.313.65.21.176.44.296.7.36l3.85.626v13.966c0 1.702.177 3.09.527 4.165.35 1.075.862 1.918 1.532 2.528.67.61 1.507 1.02 2.513 1.228 1.005.208 2.162.313 3.472.313.705 0 1.33-.034 1.878-.097.545-.064 1.187-.16 1.926-.287.61-.094.915-.413.915-.954m-20.755-.493v-4.287c0-.257-.09-.458-.265-.602-.177-.144-.393-.216-.65-.216h-.096c-.9.096-1.758.177-2.577.24-.818.065-1.918.097-3.298.097-.548 0-1.06-.087-1.542-.264-.482-.176-.9-.48-1.253-.915-.353-.432-.634-1.01-.842-1.732-.21-.723-.313-1.614-.313-2.673v-4.045c0-1.06.103-1.95.313-2.673.208-.723.49-1.3.842-1.734.353-.433.77-.738 1.253-.915.48-.176.994-.265 1.54-.265 1.38 0 2.48.033 3.3.097.818.064 1.677.144 2.576.24h.096c.257 0 .473-.072.65-.216.176-.145.265-.345.265-.602v-4.286c0-.353-.08-.602-.24-.747-.162-.145-.418-.266-.77-.362-.675-.16-1.55-.32-2.626-.482-1.077-.16-2.336-.24-3.78-.24-3.405 0-6.125 1.043-8.164 3.13-2.04 2.087-3.058 5.105-3.058 9.054v4.045c0 3.95 1.02 6.967 3.058 9.053 2.04 2.088 4.76 3.13 8.163 3.13 1.444 0 2.703-.08 3.78-.24 1.074-.16 1.95-.32 2.624-.482.353-.096.61-.216.77-.36.16-.145.24-.394.24-.747m-31.35-5.106c-.577.29-1.196.538-1.853.746-.658.21-1.356.313-2.094.313-1.028 0-1.79-.144-2.288-.433s-.746-.947-.746-1.974v-.434c0-.578.064-1.09.193-1.54.127-.45.352-.82.674-1.11.32-.287.753-.504 1.3-.65.545-.143 1.235-.215 2.07-.215h2.745v5.297zm7.658-11.654c0-1.765-.265-3.267-.795-4.503-.53-1.235-1.276-2.247-2.24-3.034-.962-.786-2.142-1.364-3.54-1.733-1.395-.37-2.96-.554-4.694-.554-1.606 0-3.17.113-4.695.337-1.526.225-2.738.45-3.636.674-.61.16-.915.514-.915 1.06v3.9c0 .322.08.547.24.674.16.13.37.194.626.194h.24l1.446-.12s1.227-.088 1.95-.12c.722-.032 1.476-.056 2.263-.073.786-.015 1.565-.023 2.335-.023 1.124 0 2.007.21 2.65.626.64.418.962 1.317.962 2.697v1.734h-2.6c-4.142 0-7.152.65-9.03 1.95-1.878 1.3-2.817 3.363-2.817 6.188v.434c0 1.573.232 2.89.698 3.948.466 1.06 1.085 1.91 1.855 2.553.77.642 1.645 1.1 2.625 1.372s1.998.41 3.058.41c1.445 0 2.688-.194 3.732-.58 1.043-.384 2.03-.914 2.962-1.588v.77c0 .257.096.482.29.674.19.193.416.29.673.29H244c.255 0 .48-.097.673-.29.192-.192.29-.417.29-.674V175.21zm-25.716 17.252v-3.727c0-.54-.337-.812-1.01-.812h-2.36c-.74 0-1.19-.136-1.35-.41-.16-.27-.24-.89-.24-1.853v-14.014h3.95c.255 0 .48-.097.673-.29s.288-.422.288-.68v-3.934c0-.258-.096-.486-.29-.68s-.417-.29-.673-.29h-3.95v-5.106c0-.256-.08-.457-.238-.602-.16-.144-.368-.216-.623-.216h-.143l-5.838 1.01c-.256.066-.48.178-.67.338-.192.16-.288.37-.288.626v3.95h-3.852c-.258 0-.49.104-.7.312-.208.21-.312.442-.312.698v3.18c0 .256.104.473.313.65.21.176.44.296.7.36l3.85.626v13.966c0 1.702.177 3.09.527 4.165.35 1.075.862 1.918 1.532 2.528s1.508 1.02 2.513 1.228c1.005.208 2.162.313 3.472.313.705 0 1.332-.034 1.878-.097.545-.064 1.187-.16 1.926-.287.61-.094.916-.413.916-.954m-20.997-.108v-16.037c0-1.508-.122-2.93-.362-4.26-.24-1.333-.675-2.49-1.3-3.47-.627-.978-1.494-1.757-2.6-2.334-1.11-.578-2.53-.867-4.263-.867-1.54 0-2.906.186-4.094.558-1.187.372-2.44 1.027-3.755 1.965v-1.168c0-.258-.096-.485-.29-.68-.19-.193-.416-.29-.673-.29h-5.394c-.257 0-.48.095-.674.288-.192.193-.29.418-.29.674v25.62c0 .257.105.49.314.698.21.21.44.313.7.313h5.826c.256 0 .48-.104.674-.312.192-.208.29-.44.29-.697v-18.932c.833-.448 1.62-.816 2.358-1.104.74-.29 1.46-.433 2.168-.433.738 0 1.34.072 1.805.217.464.144.826.392 1.083.745.257.35.433.815.53 1.39.096.578.144 1.283.144 2.116v16c0 .257.097.49.29.697.192.208.416.312.673.312h5.827c.257 0 .49-.104.7-.313.207-.208.312-.44.312-.698m-36.456-11.076c0 3.95-1.42 5.923-4.262 5.923-1.405 0-2.474-.496-3.208-1.492-.735-.995-1.102-2.472-1.102-4.43v-3.37c0-1.96.367-3.428 1.102-4.408.734-.98 1.803-1.47 3.208-1.47 2.84 0 4.262 1.96 4.262 5.877v3.37zm7.802-3.37c0-1.928-.266-3.66-.797-5.202-.532-1.54-1.304-2.85-2.317-3.925-1.013-1.074-2.268-1.91-3.763-2.503-1.496-.594-3.226-.89-5.188-.89-1.962 0-3.69.296-5.187.89-1.496.594-2.76 1.43-3.788 2.504-1.03 1.077-1.81 2.385-2.34 3.926-.532 1.54-.797 3.274-.797 5.2v3.372c0 1.926.265 3.66.797 5.2.53 1.542 1.31 2.85 2.34 3.926 1.03 1.076 2.292 1.91 3.788 2.504 1.496.593 3.225.89 5.187.89 1.962 0 3.692-.297 5.188-.89 1.495-.594 2.75-1.428 3.763-2.504s1.785-2.384 2.316-3.925c.53-1.542.796-3.276.796-5.202v-3.37zm-26.728 14.06v-4.285c0-.257-.09-.458-.265-.602-.177-.144-.394-.216-.65-.216h-.097c-.9.096-1.757.177-2.576.24-.82.065-1.92.097-3.3.097-.545 0-1.058-.087-1.54-.264-.482-.176-.9-.48-1.252-.915-.354-.432-.634-1.01-.843-1.732-.21-.723-.313-1.614-.313-2.673v-4.045c0-1.06.104-1.95.313-2.673.21-.723.49-1.3.843-1.734.353-.433.77-.738 1.252-.915.482-.176.995-.265 1.54-.265 1.38 0 2.48.033 3.3.097.82.064 1.677.144 2.576.24h.097c.256 0 .473-.072.65-.216.176-.145.265-.345.265-.602v-4.286c0-.353-.08-.602-.24-.747-.162-.145-.42-.266-.772-.362-.674-.16-1.55-.32-2.624-.482-1.076-.16-2.336-.24-3.78-.24-3.404 0-6.125 1.043-8.163 3.13-2.04 2.087-3.06 5.105-3.06 9.054v4.045c0 3.95 1.02 6.967 3.06 9.053 2.037 2.088 4.758 3.13 8.16 3.13 1.446 0 2.706-.08 3.782-.24 1.075-.16 1.95-.32 2.624-.482.353-.096.61-.216.77-.36.16-.145.242-.394.242-.747m-23.694.384v-16.037c0-1.508-.12-2.93-.36-4.26-.242-1.333-.675-2.49-1.3-3.47-.627-.978-1.494-1.757-2.602-2.334-1.107-.578-2.528-.867-4.262-.867-1.54 0-2.906.186-4.093.558-1.188.372-2.44 1.027-3.756 1.965v-1.168c0-.258-.096-.485-.288-.68-.193-.193-.418-.29-.675-.29h-5.393c-.258 0-.482.095-.674.288-.193.193-.29.418-.29.674v25.62c0 .257.104.49.314.698.208.21.44.313.698.313h5.827c.256 0 .48-.104.673-.312.193-.208.29-.44.29-.697v-18.932c.834-.448 1.62-.816 2.36-1.104.737-.29 1.46-.433 2.166-.433.737 0 1.34.072 1.805.217.465.144.826.392 1.083.745.257.35.434.815.53 1.39.096.578.145 1.283.145 2.116v16c0 .257.096.49.29.697.19.208.415.312.673.312h5.827c.256 0 .49-.104.698-.313.21-.208.314-.44.314-.698m-37.13-5.49c-.577.29-1.196.538-1.853.746-.658.21-1.356.313-2.094.313-1.028 0-1.79-.144-2.288-.433s-.746-.947-.746-1.974v-.434c0-.578.064-1.09.193-1.54.128-.45.353-.82.674-1.11.32-.287.753-.504 1.3-.65.545-.143 1.235-.215 2.07-.215h2.745v5.297zm7.658-11.654c0-1.765-.265-3.267-.795-4.503-.53-1.235-1.276-2.247-2.24-3.034-.962-.786-2.142-1.364-3.54-1.733-1.395-.37-2.96-.554-4.694-.554-1.606 0-3.17.113-4.695.337-1.526.225-2.738.45-3.636.674-.61.16-.915.514-.915 1.06v3.9c0 .322.08.547.24.674.16.13.37.194.627.194h.24l1.445-.12c.577-.048 1.227-.088 1.95-.12.722-.032 1.476-.056 2.263-.073.786-.015 1.565-.023 2.336-.023 1.122 0 2.005.21 2.647.626.642.418.963 1.317.963 2.697v1.734h-2.6c-4.142 0-7.152.65-9.03 1.95-1.878 1.3-2.817 3.363-2.817 6.188v.434c0 1.573.233 2.89.698 3.948.466 1.06 1.085 1.91 1.855 2.553.77.642 1.645 1.1 2.625 1.372s2 .41 3.058.41c1.445 0 2.69-.194 3.732-.58 1.043-.384 2.03-.914 2.962-1.588v.77c0 .257.096.482.29.674.192.193.416.29.673.29h5.394c.255 0 .48-.097.673-.29.193-.192.29-.417.29-.674V175.21zm-34.384 7.61c0 1.347-.474 2.39-1.42 3.13-.948.738-2.658 1.107-5.13 1.107h-.794c-.37 0-.755-.008-1.156-.024-.402-.016-.787-.025-1.156-.025h-.842v-9.005h5.393c1.926 0 3.258.426 3.997 1.276.738.85 1.108 1.853 1.108 3.01v.53zm-.193-14.352c0 .514-.08 1.004-.24 1.47-.162.464-.426.865-.795 1.203-.37.338-.867.61-1.493.82-.626.208-1.42.312-2.384.312H44.82v-8.33c.16 0 .41-.01.746-.025.337-.016.69-.024 1.06-.024H48.478c2.47 0 4.197.313 5.176.94.98.625 1.47 1.596 1.47 2.912v.723zm8.187 13.82c0-1.668-.394-3.113-1.18-4.333-.787-1.22-1.822-2.15-3.106-2.793 1.284-.642 2.28-1.59 2.986-2.842.706-1.252 1.06-2.664 1.06-4.237v-.867c0-1.927-.37-3.532-1.108-4.816-.74-1.284-1.775-2.312-3.107-3.082-1.332-.77-2.93-1.324-4.79-1.662-1.864-.337-3.934-.505-6.214-.505-.77 0-1.573.017-2.407.05-.836.03-1.646.07-2.432.12-.787.047-1.51.104-2.167.168-.66.065-1.197.13-1.614.192-.93.162-1.59.45-1.974.867-.386.418-.58 1.173-.58 2.264v29.28c0 1.092.2 1.847.603 2.264.4.418 1.083.706 2.047.867.48.097 1.06.177 1.733.242.674.064 1.404.12 2.19.168s1.598.088 2.433.12c.835.032 1.653.05 2.456.05 2.087 0 4.053-.162 5.9-.483 1.845-.32 3.45-.89 4.815-1.71 1.365-.818 2.448-1.926 3.25-3.322.803-1.397 1.205-3.155 1.205-5.274v-.72zM257.874 64.475h-72.238l-44.594 50.767H59.7l23.448-26.217h-34.65c-6.5 0-11.817 5.453-11.817 12.117v25.567c0 6.664 5.32 12.117 11.818 12.117h132.194c6.498 0 15.376-4.05 19.728-9l20.6-23.432 36.854-41.92z"/><path d="M277.595 37.144H145.793c-6.5 0-15.39 4.04-19.756 8.976l-57.82 65.377h70.5l45.022-50.645h82.4l-22.85 26.094h34.306c6.5 0 11.817-5.454 11.817-12.118V49.262c0-6.665-5.32-12.118-11.818-12.118z"/></svg>