<svg version="1" xmlns="http://www.w3.org/2000/svg" width="600" height="460" viewBox="0 0 450.000000 345.000000"><path d="M24.1 1.6c-3 .8-6.9 2.3-8.6 3.4-5.1 3.2-11 10.2-13.1 15.6C.6 25.3.5 30.3.5 173v147.5l2.4 5.3c3.1 6.8 11.3 14.4 18.3 16.9 5.1 1.7 13.9 1.8 204.3 1.8h199l6.2-2.9c7.2-3.3 13.4-9.4 16.6-16.4l2.2-4.7v-296l-2.8-5.7c-3.4-6.8-10.8-13.9-17.5-16.5-4.5-1.7-13-1.8-202.2-2C56.4.1 28.8.3 24.1 1.6zm399.2 14.8c5 1.8 7.6 4.2 9.8 9.1 1.8 3.8 1.9 10.4 1.9 147 0 137.1-.1 143.2-1.9 147.1-2.2 4.8-6 8-11.1 9.4-2.5.7-69.5.9-199.1.8-183.9-.3-195.6-.4-198.6-2-1.8-1-4.5-3.5-6-5.5l-2.8-3.6-.3-143.6c-.1-79 0-145 .3-146.7.8-4.3 6.2-10.2 11-11.9 5.9-2.1 391-2.1 396.8-.1z"/><path d="M97.3 63c-26.9 3-49.5 21.5-57.9 47.5-2.3 6.9-2.7 10.2-3.2 24.8-.5 18.6.6 28.4 4.3 38.3 7.1 18.8 23.4 34.5 43.5 41.5 6.3 2.3 7.6 2.3 50.1 2.7 49.2.4 51.2.2 65.4-6.8 23.6-11.5 38.5-35.3 38.5-61.4V142h-50.5c-49.8 0-50.5 0-50.5-2s.7-2 50.5-2H238v-7.3c-.1-30.7-20.9-57.4-51.5-66-6.3-1.8-10.8-2-44.5-2.3-20.6-.1-40.7.1-44.7.6zM241 100v38h67.8c39.5 0 70.6-.5 74.6-1 13-1.9 23.9-10 29.4-21.8 2.4-5 2.7-7 2.7-15.7 0-8.9-.3-10.6-2.8-15.7-3.9-7.9-10.4-14.3-18.5-18.1l-6.7-3.2-73.2-.3-73.3-.3V100zM241 180v38.1l72.8-.3 72.7-.3 5.7-2.3c7.6-3.1 16.1-10.9 20.1-18.6 3-5.7 3.2-6.7 3.2-16.6 0-9.4-.3-11.1-2.7-16-3.1-6.3-9.4-13.1-15.3-16.5-9.2-5.4-10.2-5.5-86.2-5.5H241v38zM143 249.5c0 1.9-.4 3.5-1 3.5-.5 0-1 1.1-1 2.5s.5 2.5 1 2.5c.6 0 1 5.9 1 15.7 0 8.7.4 16.3.8 16.9 1.5 2.3 5.3 3.4 11.6 3.4 6.4 0 6.6-.1 6.6-2.5s-.3-2.5-5.8-2.5c-3.2 0-6.3-.5-7-1.2-.8-.8-1.2-5.7-1.2-15.5V258h7c6.8 0 7-.1 7-2.5s-.2-2.5-7-2.5h-7v-3.5c0-3.1-.3-3.5-2.5-3.5s-2.5.4-2.5 3.5zM238 270v24h2.5c2.1 0 2.5-.5 2.5-3.2v-3.1l2.3 2.1c6 5.7 15.3 6.7 23.6 2.6 19.9-10 12.5-39.7-9.9-39.7-6 0-9 1.1-13.2 5.1l-2.8 2.6v-7.2c0-7-.1-7.2-2.5-7.2H238v24zm29.9-10.3c4.7 3.5 7.1 8.1 7.1 13.5 0 10-5.3 15.9-14.9 16.6-6.5.4-10.9-1.9-14.8-7.7-5.5-8.1-.9-21.2 8.3-24.1 4.3-1.4 11.2-.5 14.3 1.7z"/><path d="M283 270v24h5v-48h-5v24zM48.6 253.4c-16.7 6.2-18.4 31.4-2.6 39.3 8.3 4.2 17.9 2.1 23.1-5 3.5-4.8 3.6-5.7.6-5.7-1.3 0-3.7 1.5-5.6 3.5-3.7 4-6.5 5-12.3 4.2-12.2-1.6-16.7-19.4-7.2-28.4 6.2-5.8 14.9-5.3 20.2 1.3 2.8 3.5 7.2 4.7 7.2 1.9 0-2-5.7-8.3-9-10-4.3-2.2-10.1-2.7-14.4-1.1zM90.3 253c-5.8 1.2-8.1 2.6-10.3 6.3-2.8 4.5-2.6 6.7.5 6.7 1.8 0 2.6-.7 3.1-2.5 1.1-4.4 4.9-6.5 11.9-6.5 7.2 0 10.2 1.7 11.1 6.6.9 4.7-1.2 6-11.7 7.3-10.6 1.4-15 2.9-17.3 6.2-2 3-2.1 8.1 0 12 3.8 7.4 20.5 8.1 26.8 1l1.9-2.1 1.8 3c1.5 2.4 2.6 3 5.4 3 2.7 0 3.5-.4 3.5-1.8 0-.9-1-2.2-2.2-2.7-2.2-1-2.3-1.6-2.8-15.6-.5-15.5-.9-16.8-5.9-19.3-3.6-1.9-10.8-2.6-15.8-1.6zm16.3 27.6c-.8 4.1-6.4 9.1-11.2 10-11.3 2.1-19.5-8.4-10.2-13.2 1.7-.9 6.9-2.2 11.6-3 4.7-.7 8.8-1.6 9.1-2 .9-.9 1.3 4.5.7 8.2zM175.7 253.3c-17 5.4-20.4 28.8-5.5 38 9.1 5.6 19.1 4.5 26.5-3 4.9-4.8 5.5-7.3 1.9-7.3-1.6 0-3.2 1.1-4.5 2.9-4.3 6-13.3 7.8-20.1 4-3.4-2-8-8.1-8-10.8 0-.8 5.6-1.1 18.5-1.1H203v-2.3c0-13.4-14.7-24.4-27.3-20.4zm14.2 6.4c3 2.3 7.1 8 7.1 9.9 0 1.1-3.2 1.4-15.6 1.4h-15.5l.6-2.3c1.2-3.6 5.1-8.3 8.7-10.1 4.1-2.1 11-1.6 14.7 1.1zM306.7 253.3c-5.2 1.6-10.3 6-12.8 10.9-1.7 3.3-2 5.5-1.7 10.8.5 8.6 3.8 13.8 11.1 17.5 8.7 4.3 17.4 2.8 24.5-4.2 4.8-4.8 5.4-7.3 1.8-7.3-1.6 0-3.2 1.1-4.5 2.9-4.4 6.1-14.1 7.9-20.2 3.8-3.5-2.4-7.9-8.1-7.9-10.3 0-1.1 3.6-1.4 18.6-1.4h18.7l-.6-4.5c-1.3-8.8-6.9-15.6-15.1-18-5.8-1.7-6.8-1.8-11.9-.2zm14.2 6.4c3 2.3 7.1 8 7.1 9.9 0 1.1-3.1 1.4-15.5 1.4-8.5 0-15.5-.2-15.5-.5s.9-2.3 2-4.5c1.8-3.5 5.4-6.8 9-8.3 2.7-1.2 10.2 0 12.9 2zM388.8 253.6c-9.5 2.9-16.2 14.8-13.9 24.7 2.2 9.2 11.4 16.7 20.6 16.7 5.6 0 14.4-4.5 17.2-8.9 3-4.4 2.9-5.1-.4-5.1-2 0-3.3.8-4.4 2.8-.9 1.6-3.2 3.6-5.1 4.5-9.2 4.4-20-.3-22.3-9.6l-.7-2.7h37.4l-.7-4.7c-.9-6.2-2.5-9.2-7.3-13.5-2.7-2.4-5.6-3.9-9.1-4.7-6.1-1.3-5.4-1.3-11.3.5zm15.1 6.1c3 2.3 7.1 8 7.1 9.9 0 1.1-3.2 1.4-15.6 1.4-13.8 0-15.5-.2-15-1.6.3-.9.6-1.9.6-2.4 0-1.7 5.5-7.3 8.5-8.6 3.9-1.8 11-1.2 14.4 1.3zM121 273.5V294h6v-14.4c0-16.1.8-18.3 7.5-20.7 2.6-1 3.5-1.9 3.5-3.6 0-1.3-.4-2.3-.9-2.3-2.1 0-6.7 2.2-8.8 4.2l-2.3 2.1v-3.1c0-2.7-.4-3.2-2.5-3.2H121v20.5zM336.1 268.7c.4 16.2 1.4 19.4 7.2 23.7 4.1 3 17.3 3.1 21.3 0 5.5-4.1 6.8-8.5 7.2-24.2l.4-14.2H367v9.9c0 19.9-3.1 26.1-13 26.1-4 0-5.6-.5-8-2.8-4-3.5-4.9-7.8-5-22V254h-5.2l.3 14.7z"/></svg>