<svg id="Calque_1" xmlns="http://www.w3.org/2000/svg" viewBox="0 0 53.3 39.3"><style>.st0{fill:url(#SVGID_2_);} .st1{fill:#FFFFFF;}</style><linearGradient id="SVGID_1_" gradientUnits="userSpaceOnUse" y1="56.69" x2=".707" y2="55.983"><stop offset="0" stop-color="#259E2E"/><stop offset=".983" stop-color="#1C381D"/></linearGradient><linearGradient id="SVGID_2_" gradientUnits="userSpaceOnUse" x1="-160.052" y1="-139.558" x2="-158.596" y2="-139.558" gradientTransform="matrix(0 26.9963 -.8337 0 -89.682 4320.797)"><stop offset="0" stop-color="#1B1F46"/><stop offset=".351" stop-color="#1B1F46"/><stop offset=".474" stop-color="#2E467E"/><stop offset=".551" stop-color="#3665A9"/><stop offset=".593" stop-color="#3665A8"/><stop offset=".631" stop-color="#3565A2"/><stop offset=".67" stop-color="#369"/><stop offset=".707" stop-color="#30668C"/><stop offset=".745" stop-color="#2D667A"/><stop offset=".782" stop-color="#296663"/><stop offset=".818" stop-color="#256449"/><stop offset=".849" stop-color="#216230"/><stop offset="1" stop-color="#216230"/></linearGradient><path class="st0" d="M0 0h53.3v39.3H0z"/><path class="st1" d="M16.4 18.8h11.4c-.1-2.3-.7-4.6-2.4-6.1-2.1-1.8-5.7-2.4-9-2.4-3.4 0-7.1.7-9.2 2.6C5.4 14.5 5 17.2 5 19.6c0 2.5.8 5.4 2.7 7.1 2.1 1.8 5.5 2.2 8.7 2.2 3.2 0 6.6-.5 8.6-2.2 2.1-1.7 2.8-4.5 2.8-7.1H16.4v-.8zM28.6 19.5v8.9h15.9c2.3-.1 4.2-2 4.2-4.4 0-2.4-1.9-4.4-4.2-4.5H28.6zM48.4 14.7c0-2.3-1.8-4.1-4.1-4.1H28.6v8.2h16c2.1-.2 3.8-2 3.8-4.1z"/></svg>