<svg xmlns="http://www.w3.org/2000/svg" width="192.756" height="192.756" viewBox="0 0 192.756 192.756"><path fill-rule="evenodd" clip-rule="evenodd" fill="#FFF" d="M0 0h192.756v192.756H0V0"/><path d="M179.695 154.777c5.316 0 9.627-4.31 9.627-9.627V47.605c0-5.316-4.31-9.627-9.627-9.627H13.06c-5.315 0-9.626 4.31-9.626 9.627v97.545c0 5.318 4.31 9.627 9.627 9.627h166.635z" fill-rule="evenodd" clip-rule="evenodd" fill="#FFF"/><path d="M179.695 154.178c2.492 0 4.75-1.01 6.383-2.643 1.635-1.635 2.645-3.89 2.645-6.385V47.605c0-2.493-1.01-4.75-2.645-6.383-1.633-1.633-3.89-2.644-6.383-2.644H13.06c-2.49 0-4.75 1.01-6.383 2.644-1.633 1.633-2.644 3.89-2.644 6.383v97.545c0 2.494 1.01 4.75 2.644 6.385 1.634 1.633 3.892 2.643 6.384 2.643h166.635zm0 1.2H13.06c-2.822 0-5.38-1.146-7.23-2.995-1.85-1.852-2.996-4.408-2.996-7.232V47.606c0-2.823 1.145-5.38 2.996-7.23 1.85-1.85 4.408-2.996 7.23-2.996h166.635c2.824 0 5.38 1.144 7.23 2.995 1.852 1.85 2.996 4.407 2.996 7.23v97.545c0 2.824-1.144 5.38-2.995 7.232-1.85 1.85-4.405 2.995-7.23 2.995z"/><path d="M158.113 46.025c5.166.456 11.168-.988 15.42 1.747 4.256 2.43 7.217 6.913 6.99 12.078l-30.613.076c-.514.208-.836.987-1.443 1.443-4.254 5.24-8.508 10.558-12.914 15.647.53-5.622.777-11.414 1.537-17.035l-25.314-.057c-.17 5.05-.455 10.027-.76 14.813-1.14-5.47-5.62-11.47-11.318-13.066-2.658-.835-5.165-1.443-7.976-1.595l-43.756.153c0 .076-.152.076-.152 0-.076-4.862 2.28-9.268 6.533-11.927 1.823-1.063 3.797-2.035 6-2.187l97.766-.09z" fill-rule="evenodd" clip-rule="evenodd" fill="#CC2229"/><path d="M25.937 66.307c-5.24-3.342-10.635-6.837-15.876-10.483l15.802-10.56.076.077v20.967zM11.694 55.92l13.18 8.564V47.088l-13.18 8.83z" fill-rule="evenodd" clip-rule="evenodd"/><path d="M180.523 98.744c0 .076-.076.076 0 .15-6.152-6.684-11.7-14.052-17.092-21.27l.077-.303c5.545-5.772 10.71-11.773 16.863-16.94l.152.077v38.287zM87.695 78.46c.076 1.824-1.14 3.268-2.507 4.407-3.495 2.66-8.622 1.387-13.142 1.595l.835-10.33c4.54.34 13.277-1.558 14.815 4.33zM148.617 98.06c.494 1.67 1.92 1.292 3.268 1.292h28.562c.23 5.316-3.04 10.635-8.053 12.762-1.898.836-4.025 1.215-6.23 1.215h-47.933l-58.035.15c-4.786-.38-9.57-4.024-11.395-8.583-.608-1.596-.987-3.494-.987-5.318l42.843-.228c6.458-.76 12.686-3.57 16.485-9.572 1.368-2.203 2.43-4.482 3.343-6.837-.455 5.47-.684 11.09-1.29 16.635 8.126-.076 25.144 0 25.144 0 .15-6.835.53-13.977.986-20.737l13.294 19.22z" fill-rule="evenodd" clip-rule="evenodd" fill="#CC2229"/><path fill-rule="evenodd" clip-rule="evenodd" d="M189.078 145.44v-27.41H3.286v27.41h185.792M25.937 90.235c-5.24-3.342-10.635-6.836-15.876-10.482l15.802-10.56.076.077v20.965zM11.694 79.848l13.18 8.565V71.017l-13.18 8.83zM25.937 114.26c-5.24-3.344-10.635-6.838-15.876-10.484l15.802-10.558.076.076v20.966zm-14.243-10.39l13.18 8.565V95.04l-13.18 8.83zM28.52 47.554v-1.106h8.178v1.106H28.52M36.697 54.464v1.074H28.52v-1.246l6.603-4.163v-.024H28.52v-1.073h8.177v1.313l-6.602 4.095v.024h6.602M35.747 58.015v2.062c0 1.504-1.035 2.45-3.093 2.45-2.06 0-3.184-.935-3.184-2.37v-2.142h6.277zM28.52 56.91v3.27c0 2.69 2.372 3.487 4.202 3.487 2.354 0 3.975-1.31 3.975-3.44V56.91H28.52zM29.5 65.768v4.147h-.98v-5.253H36.7v1.106H29.5"/><path d="M31.874 74.712v-2.62l3.843 1.515v1.105h-3.843zm-.98-3.02v3.02H28.52v5.63h.98V75.82h2.735v4.056h.98V75.82h2.5v4.443h.98v-7.338l-8.176-3.327v1.197l2.374.898zM34.304 86.287c1.264-.057 1.662-1.107 1.662-2.032 0-.696-.194-1.872-1.435-1.872-.693 0-.92.49-1.034.97l-.535 2.335c-.25 1.06-.887 1.86-2.184 1.86-1.936 0-2.474-1.804-2.474-3.207 0-1.516.458-2.11.79-2.473.626-.69 1.31-.827 2.07-.827v1.03c-1.478 0-1.91 1.21-1.91 2.26 0 .797.204 2.143 1.376 2.143.854 0 1.127-.4 1.445-1.74l.387-1.68c.125-.535.5-1.746 1.923-1.746 1.275 0 2.53.834 2.53 2.82 0 2.86-1.71 3.142-2.61 3.187v-1.027zM36.697 93.504v1.075H28.52v-1.247l6.603-4.163v-.023H28.52v-1.073h8.177v1.313l-6.602 4.095v.022h6.602M28.52 97.166V96.06h8.178v1.106H28.52M36.697 104.076v1.072H28.52v-1.244l6.603-4.164v-.02H28.52v-1.075h8.177v1.312l-6.602 4.096v.023h6.602M32.904 110.035v3.586H28.52v-.712l1.062-.26c-.777-.56-1.28-1.586-1.28-2.705 0-1.404.515-2.088.926-2.51 1.187-1.254 2.59-1.29 3.458-1.29 1.988 0 4.23 1.21 4.23 3.88 0 1.53-.868 3.225-2.696 3.46v-1.063c1.42-.354 1.714-1.553 1.714-2.453 0-1.473-1.17-2.682-3.305-2.682-1.668 0-3.38.547-3.38 2.727 0 .41.047 1.072.525 1.678.57.72 1.3.902 2.18.902v-2.557h.95z" fill-rule="evenodd" clip-rule="evenodd"/><path d="M181.084 60.336c0 .1-.4.3-.3 0h.3zM18.68 154.688h.1v-.1h-.1v.1" fill-rule="evenodd" clip-rule="evenodd" fill="#FFF"/></svg>