<svg version="1" xmlns="http://www.w3.org/2000/svg" width="1066.667" height="1065.333" viewBox="0 0 800.000000 799.000000"><path d="M44.5 156.4C32 159.5 21.6 168 15.8 179.8l-3.3 6.7-.3 211.5C12 609.2 12 609.4 14 615.6c4.1 12.2 13.7 22.2 25.7 26.7l5.8 2.2h354c341.2 0 354.2-.1 359.5-1.8 12.5-4.3 22.7-14.5 26.9-26.9l2.1-6.2V400c0-207.8 0-209.7-2-215.6-5-14.6-16.8-25.1-31.8-28.3-8.1-1.7-702.8-1.4-709.7.3zm716.7 7.3c8.1 3.8 14.6 10.2 18.5 18.1l2.8 5.7.3 151.2.2 151.3H17l.2-151.3.3-151.2 2.8-5.7c5.1-10.4 15.5-18.7 26.1-20.8 2.2-.4 162.5-.7 356.1-.6l352 .1 6.7 3.2zm21.5 444.8c-1.6 11.4-10.1 22.4-21.5 27.8l-6.7 3.2h-709l-6.7-3.2c-11.4-5.4-19.9-16.4-21.5-27.8l-.6-4.5h766.6l-.6 4.5z"/><path d="M83.5 203.7c-12.6 8.5-27.2 18.4-32.4 21.9l-9.4 6.3 30.9 20.4c17 11.2 31.9 20.9 33.2 21.6l2.2 1.2v-43.6c0-23.9-.3-43.5-.7-43.4-.5 0-11.1 7-23.8 15.6zm19.1 63c-.4.4-53.6-34-53.6-34.7 0-.3 12.1-8.5 26.8-18.2l26.7-17.8.3 35.2c.1 19.3.1 35.3-.2 35.5zM257.5 192c-12.3.5-16 1-20.5 2.9-22.4 9.2-38 30-38 50.5v4.9l90.3-.7c98.1-.8 99.6-.8 118.7 4.6 13.6 3.8 20.8 7.7 29.8 16.2 9 8.6 15.6 18.4 19.9 29.6 1.8 4.7 3.2 7.6 3.3 6.5 0-4.1 2.1-43.3 2.6-50.3l.6-7.2h52.4c41.3 0 52.4.3 52.4 1.2 0 .7-.5 4.4-1 8.3-1.4 11.1-5.2 58.7-4.7 59.2.5.4 24.8-28.5 44.4-52.7 5.5-6.9 11-13.3 12.1-14.3 1.9-1.7 6.1-1.9 65.6-2.4l63.6-.6v-4.1c0-20.9-19.5-44.4-42-50.7-3.5-1-50-1.3-219.5-1.4-118.2-.1-221.7.1-230 .5zM118 206c0 1.8.8 2 13.6 2.2l13.7.3-13.7 8.5c-11 6.8-13.6 8.9-13.6 10.7 0 2.3 0 2.3 17 2.3 16.2 0 17-.1 17-2 0-1.8-.8-2-13.2-2.2l-13.3-.3 13-8c11-6.8 13-8.4 13.3-10.8l.3-2.7h-17c-16.4 0-17.1.1-17.1 2zM118.2 245.3c.3 7.6.8 9.9 2.6 12.4 6.1 8.6 25.1 8.2 29.7-.7 1-2 1.5-5.8 1.5-12v-9h-34.2l.4 9.3zm29.8 2.1c0 5.9-.2 6.6-3.1 9-2.5 2.2-4.1 2.6-8.9 2.6-10.3 0-14-3.4-14-13v-5h26v6.4zM736.3 261.8c-13.2 12.1-57.2 58.1-57.3 59.8-.1 3.3 63.5 83.5 68.9 86.9.8.4 1.1-23 1.1-78.4 0-43.5-.2-79.1-.5-79.1-.2 0-5.7 4.9-12.2 10.8zM118 280.9v12.9l5 1.7 5 1.7V310h-10v11.5c0 10.8.1 11.5 2 11.5s2-.7 2-9v-9h12v8c0 7.3.2 8 2 8s2-.7 2-8v-8h10v9c0 8.3.1 9 2 9s2-.7 2-15.3v-15.2l-15-6-15-6V273h30v-5h-34v12.9zM75.3 308.5C57.5 320.4 43 330.6 43 331.1c0 1.5 63.7 43.5 64.6 42.6.2-.2.3-19.8.2-43.6l-.3-43.2-32.2 21.6zm27.3 57.3c-.3.2-12.5-7.3-27.1-16.8-16.4-10.7-26.2-17.7-25.6-18.3.5-.5 12.5-8.6 26.7-18.1l25.9-17.3.3 35c.1 19.3 0 35.2-.2 35.5zM302.1 314.2c-.1 3.5-.8 12.8-1.6 20.8-.8 7.9-1.2 14.6-1 14.8.1.2 9.2.4 20.1.5 18.8.1 20.2 0 25.9-2.2 7.7-3.1 15.9-11 17.5-17.1 2.7-10-5.9-19.2-20.4-21.9-3.3-.6-13.7-1.1-23.1-1.1h-17.2l-.2 6.2zM561.6 331.1c-.6 3.1-2.4 37.2-3.3 62.1l-.6 19.8H452.8l.6-4.3c.7-4.3 4.6-56.6 4.6-60.2 0-1.1-1.5 1.1-3.2 5-4.9 11.1-10.8 21.1-16.5 27.9-10.7 12.9-27.6 23.1-46.8 28.3l-10 2.7-91.2.4-91.3.3v4.2c.1 22.8 19.5 46.1 43.4 52.2 5.1 1.3 33.4 1.4 230.5.9 184.8-.5 225.8-.9 231.6-2 21-4.1 38.5-21.7 43-43.2.8-3.7 1.5-8.2 1.5-10v-3.3l-64.2.2-64.2.1-1.9-2.3c-1.1-1.3-13.8-19.7-28.4-40.9-14.6-21.2-26.9-38.9-27.4-39.4-.4-.5-1 .2-1.3 1.5zM124.5 337.4c-4.1 1.8-5.6 3.9-6.6 8.9-1.7 9.5 2.6 16.7 10.1 16.7 5.2 0 8.3-3.7 9.9-12.1 1.5-7.3 2.5-8.9 5.6-8.9 3.3 0 5.5 3.1 5.5 7.8 0 4.4-2.6 8.2-5.5 8.2-.8 0-1.5.9-1.5 2 0 2.2 2.8 2.7 6.1 1 5.7-3.1 6.7-16.2 1.5-20.7-3.5-3-9.9-3.2-12.3-.3-1 1.1-2.7 5.5-3.8 9.8-1.7 6.7-2.4 7.8-4.8 8.6-2.2.8-3.1.6-4.8-1.1-4.2-4.2-1.9-16.3 3.1-16.3 1.5 0 2-.7 2-2.5 0-2.8-.3-2.9-4.5-1.1zM118 368c0 1.8.8 2 13.6 2.2l13.7.3-13.7 8.5c-12.2 7.6-13.6 8.8-13.4 11l.3 2.5 16.8.3 16.7.2v-4.9l-13.1-.3-13.2-.3 12.9-8c10.9-6.8 12.9-8.5 13.2-10.8l.3-2.7h-17c-16.4 0-17.1.1-17.1 2zM99.5 392c-3.8 2.6-18.4 12.5-32.4 21.9l-25.3 17 30.8 20.4c17 11.2 31.9 20.9 33.2 21.6l2.2 1.2v-43.6c0-23.9-.3-43.5-.7-43.5-.5.1-3.9 2.3-7.8 5zm3.1 73.7c-.7.7-53.4-34.2-52.9-35 .3-.4 12.3-8.7 26.6-18.3l26.2-17.4.3 35.2c.1 19.3.1 35.3-.2 35.5zM118 411.5v2.4l13.5.3 13.5.3-13.5 8.5c-10.9 6.8-13.5 8.9-13.5 10.7v2.3h17c16.2 0 17-.1 17-2 0-1.8-.8-2-13.2-2.2l-13.3-.3 13-8.1c11.8-7.3 13-8.3 13.3-11.2l.3-3.2H118v2.5zM125 443.2c-5.4 3.7-7.2 6.9-7.2 12.8 0 3.7.6 6 2.1 8.1 2.6 3.5 2.6 3.5 0 4.2-1.2.3-1.9 1.2-1.7 1.9.3.9 2.9 1.3 9.4 1.3h8.9l.3-7.3c.3-6.7.1-7.2-1.8-7.2-1.7 0-2 .6-2 5 0 4.8-.1 5-2.9 5-3.3 0-8-4.2-8.3-7.4-.3-4.8.5-8.2 2.5-10.4 5.6-6.1 20.3-4.7 23.5 2.3.7 1.4 1.2 4.1 1.2 5.9 0 3.6-3.2 8.6-5.6 8.6-.8 0-1.4 1-1.4 2.5 0 3 .5 3.1 4.8.5 8.8-5.4 8-20.3-1.4-25.7-5.5-3.2-15.8-3.2-20.4-.1z"/></svg>