<svg id="Layer_1" xmlns="http://www.w3.org/2000/svg" xmlns:xlink="http://www.w3.org/1999/xlink" viewBox="0 0 178.8 114.4"><style>.st0{fill:#FFFFFF;} .st1{fill:#F58220;} .st2{fill:url(#SVGID_1_);} .st3{opacity:0.65;fill:url(#SVGID_2_);enable-background:new ;} .st4{opacity:0.5;enable-background:new ;} .st5{clip-path:url(#SVGID_4_);} .st6{fill:#030304;} .st7{fill:#080808;} .st8{fill:#0C0C0C;} .st9{fill:#100F10;} .st10{fill:#131313;} .st11{fill:#161616;} .st12{fill:#191919;} .st13{fill:#1C1B1C;} .st14{fill:#1E1E1F;} .st15{fill:#212021;} .st16{fill:#232324;} .st17{fill:#252526;} .st18{fill:#282728;} .st19{fill:#2A292B;} .st20{fill:#2C2B2D;} .st21{fill:#2E2E2F;} .st22{fill:#303031;} .st23{fill:#323133;} .st24{fill:#343335;} .st25{fill:#363537;} .st26{fill:#373739;} .st27{fill:#39393A;} .st28{fill:#3B3B3C;} .st29{fill:#3D3C3E;} .st30{fill:#3E3E40;} .st31{fill:#403F41;} .st32{fill:#414042;} .st33{fill:#424143;} .st34{fill:#434244;} .st35{fill:#444345;} .st36{fill:#454446;} .st37{fill:#454547;} .st38{fill:#464648;} .st39{fill:#474749;} .st40{fill:#48484A;} .st41{fill:#49494B;} .st42{fill:#4A4A4C;} .st43{fill:#4B4B4D;} .st44{fill:#4C4C4E;} .st45{fill:#4D4D4F;} .st46{fill:#4D4E50;} .st47{fill:#4E4F51;} .st48{fill:#4F5052;} .st49{fill:#505052;} .st50{fill:#515153;} .st51{fill:#525254;} .st52{fill:#535355;} .st53{fill:#535456;} .st54{fill:#545557;} .st55{fill:#555658;} .st56{fill:#565759;} .st57{fill:#57585A;} .st58{fill:#58585B;} .st59{fill:#58595B;} .st60{fill:#595A5C;} .st61{fill:#5A5B5D;} .st62{fill:#5B5C5E;} .st63{fill:#5C5D5F;} .st64{fill:#5C5D60;} .st65{fill:#5D5E61;} .st66{fill:#5E5F61;} .st67{fill:#5F6062;} .st68{fill:#606163;} .st69{fill:#606264;} .st70{fill:#616265;} .st71{fill:#626366;} .st72{fill:#636466;} .st73{fill:#646567;} .st74{fill:#646668;} .st75{fill:#656669;} .st76{fill:#66676A;} .st77{fill:#67686A;} .st78{fill:#67696B;} .st79{fill:#686A6C;} .st80{fill:#696A6D;} .st81{fill:#6A6B6D;} .st82{fill:#6B6C6E;} .st83{fill:#6B6D6F;} .st84{fill:#6C6D70;} .st85{fill:#6D6E71;} .st86{fill:#6D6F71;} .st87{fill:#6E7072;} .st88{fill:#6F7073;} .st89{fill:#707174;} .st90{fill:#707274;} .st91{fill:#717375;} .st92{fill:#727376;} .st93{fill:#737477;} .st94{fill:#737577;} .st95{fill:#747678;} .st96{fill:#757679;} .st97{fill:#75777A;} .st98{fill:#76787A;} .st99{fill:#77797B;} .st100{fill:#78797C;} .st101{fill:#787A7D;} .st102{fill:#797B7D;} .st103{fill:#7A7B7E;} .st104{fill:#7A7C7F;} .st105{fill:#7B7D7F;} .st106{fill:#7C7E80;} .st107{fill:#7D7E81;} .st108{fill:#7D7F82;} .st109{fill:#7E8082;} .st110{fill:#7F8183;} .st111{fill:#7F8184;} .st112{fill:#808285;} .st113{fill:#818385;} .st114{fill:#828386;} .st115{fill:#828487;} .st116{fill:#838587;} .st117{fill:#848688;} .st118{fill:#848689;} .st119{fill:#85878A;} .st120{fill:#86888A;} .st121{fill:#86888B;} .st122{fill:#87898C;} .st123{fill:#888A8C;} .st124{fill:#898B8D;} .st125{fill:#898B8E;} .st126{fill:#8A8C8F;} .st127{fill:#8B8D8F;} .st128{fill:#8B8D90;} .st129{fill:#8C8E91;} .st130{fill:#8D8F91;} .st131{fill:#8D9092;} .st132{fill:#8E9093;} .st133{fill:#8F9194;} .st134{fill:#909294;} .st135{fill:#909295;} .st136{fill:#919396;} .st137{fill:#929497;} .st138{fill:#939597;} .st139{fill:#939598;} .st140{fill:#949699;} .st141{fill:#959799;} .st142{fill:#95989A;} .st143{fill:#96989B;} .st144{fill:#97999C;} .st145{fill:#989A9C;} .st146{fill:#989A9D;} .st147{fill:#999B9E;} .st148{fill:#9A9C9F;} .st149{fill:#9B9D9F;} .st150{fill:#9B9DA0;} .st151{fill:#9C9EA1;} .st152{fill:#9D9FA1;} .st153{fill:#9DA0A2;} .st154{fill:#9EA0A3;} .st155{fill:#9FA1A4;} .st156{fill:#A0A2A4;} .st157{fill:#A0A3A5;} .st158{fill:#A1A3A6;} .st159{fill:#A2A4A7;} .st160{fill:#A3A5A7;} .st161{fill:#A3A6A8;} .st162{fill:#A4A6A9;} .st163{fill:#A5A7AA;} .st164{fill:#A6A8AA;} .st165{fill:#A6A9AB;} .st166{fill:#A7A9AC;} .st167{fill:#A8AAAD;} .st168{fill:#A9ABAD;} .st169{fill:#A9ACAE;} .st170{fill:#AAACAF;} .st171{fill:#ABADB0;} .st172{fill:#ACAEB0;} .st173{fill:#ADAFB1;} .st174{fill:#ADAFB2;} .st175{fill:#AEB0B3;} .st176{fill:#AFB1B3;} .st177{fill:#B0B2B4;} .st178{fill:#B0B2B5;} .st179{fill:#B1B3B6;} .st180{fill:#B2B4B6;} .st181{fill:#B3B5B7;} .st182{fill:#B4B6B8;} .st183{fill:#B4B6B9;} .st184{fill:#B5B7B9;} .st185{fill:#B6B8BA;} .st186{fill:#B7B9BB;} .st187{fill:#B8B9BC;} .st188{fill:#B8BABD;} .st189{fill:#B9BBBD;} .st190{fill:#BABCBE;} .st191{fill:#BBBDBF;} .st192{fill:#BBBDC0;} .st193{fill:#BCBEC0;} .st194{fill:#BDBFC1;} .st195{fill:#BEC0C2;} .st196{fill:#BFC0C3;} .st197{fill:#BFC1C3;} .st198{fill:#C0C2C4;} .st199{fill:#C1C3C5;} .st200{fill:#C2C4C6;} .st201{fill:#C3C4C6;} .st202{fill:#C3C5C7;} .st203{fill:#C4C6C8;} .st204{fill:#C5C7C9;} .st205{fill:#C6C8CA;} .st206{fill:#C7C8CA;} .st207{opacity:0.995;fill:#C7C9CB;enable-background:new ;} .st208{opacity:0.9901;fill:#C7C9CB;enable-background:new ;} .st209{opacity:0.9851;fill:#C7C9CB;enable-background:new ;} .st210{opacity:0.9801;fill:#C8C9CB;enable-background:new ;} .st211{opacity:0.9751;fill:#C8CACC;enable-background:new ;} .st212{opacity:0.9701;fill:#C8CACC;enable-background:new ;} .st213{opacity:0.9652;fill:#C8CACC;enable-background:new ;} .st214{opacity:0.9602;fill:#C9CACC;enable-background:new ;} .st215{opacity:0.9552;fill:#C9CBCD;enable-background:new ;} .st216{opacity:0.9503;fill:#C9CBCD;enable-background:new ;} .st217{opacity:0.9453;fill:#C9CBCD;enable-background:new ;} .st218{opacity:0.9403;fill:#CACBCD;enable-background:new ;} .st219{opacity:0.9353;fill:#CACCCE;enable-background:new ;} .st220{opacity:0.9303;fill:#CACCCE;enable-background:new ;} .st221{opacity:0.9254;fill:#CBCCCE;enable-background:new ;} .st222{opacity:0.9204;fill:#CBCCCE;enable-background:new ;} .st223{opacity:0.9154;fill:#CBCDCF;enable-background:new ;} .st224{opacity:0.9104;fill:#CBCDCF;enable-background:new ;} .st225{opacity:0.9055;fill:#CCCDCF;enable-background:new ;} .st226{opacity:0.9005;fill:#CCCDCF;enable-background:new ;} .st227{opacity:0.8955;fill:#CCCED0;enable-background:new ;} .st228{opacity:0.8905;fill:#CCCED0;enable-background:new ;} .st229{opacity:0.8856;fill:#CDCED0;enable-background:new ;} .st230{opacity:0.8806;fill:#CDCED0;enable-background:new ;} .st231{opacity:0.8756;fill:#CDCFD1;enable-background:new ;} .st232{opacity:0.8706;fill:#CDCFD1;enable-background:new ;} .st233{opacity:0.8657;fill:#CECFD1;enable-background:new ;} .st234{opacity:0.8607;fill:#CED0D1;enable-background:new ;} .st235{opacity:0.8557;fill:#CED0D1;enable-background:new ;} .st236{opacity:0.8507;fill:#CED0D2;enable-background:new ;} .st237{opacity:0.8458;fill:#CFD0D2;enable-background:new ;} .st238{opacity:0.8408;fill:#CFD1D2;enable-background:new ;} .st239{opacity:0.8358;fill:#CFD1D2;enable-background:new ;} .st240{opacity:0.8308;fill:#D0D1D3;enable-background:new ;} .st241{opacity:0.8259;fill:#D0D1D3;enable-background:new ;} .st242{opacity:0.8209;fill:#D0D2D3;enable-background:new ;} .st243{opacity:0.8159;fill:#D0D2D3;enable-background:new ;} .st244{opacity:0.8109;fill:#D1D2D4;enable-background:new ;} .st245{opacity:0.806;fill:#D1D2D4;enable-background:new ;} .st246{opacity:0.801;fill:#D1D3D4;enable-background:new ;} .st247{opacity:0.796;fill:#D1D3D4;enable-background:new ;} .st248{opacity:0.791;fill:#D2D3D5;enable-background:new ;} .st249{opacity:0.7861;fill:#D2D3D5;enable-background:new ;} .st250{opacity:0.7811;fill:#D2D4D5;enable-background:new ;} .st251{opacity:0.7761;fill:#D2D4D5;enable-background:new ;} .st252{opacity:0.7711;fill:#D3D4D6;enable-background:new ;} .st253{opacity:0.7662;fill:#D3D4D6;enable-background:new ;} .st254{opacity:0.7612;fill:#D3D5D6;enable-background:new ;} .st255{opacity:0.7562;fill:#D4D5D6;enable-background:new ;} .st256{opacity:0.7512;fill:#D4D5D7;enable-background:new ;} .st257{opacity:0.7463;fill:#D4D5D7;enable-background:new ;} .st258{opacity:0.7413;fill:#D4D6D7;enable-background:new ;} .st259{opacity:0.7363;fill:#D5D6D7;enable-background:new ;} .st260{opacity:0.7313;fill:#D5D6D8;enable-background:new ;} .st261{opacity:0.7264;fill:#D5D6D8;enable-background:new ;} .st262{opacity:0.7214;fill:#D5D7D8;enable-background:new ;} .st263{opacity:0.7164;fill:#D6D7D8;enable-background:new ;} .st264{opacity:0.7114;fill:#D6D7D9;enable-background:new ;} .st265{opacity:0.7065;fill:#D6D7D9;enable-background:new ;} .st266{opacity:0.7015;fill:#D6D8D9;enable-background:new ;} .st267{opacity:0.6965;fill:#D7D8D9;enable-background:new ;} .st268{opacity:0.6915;fill:#D7D8DA;enable-background:new ;} .st269{opacity:0.6866;fill:#D7D8DA;enable-background:new ;} .st270{opacity:0.6816;fill:#D7D9DA;enable-background:new ;} .st271{opacity:0.6766;fill:#D8D9DA;enable-background:new ;} .st272{opacity:0.6716;fill:#D8D9DB;enable-background:new ;} .st273{opacity:0.6667;fill:#D8D9DB;enable-background:new ;} .st274{opacity:0.6617;fill:#D8DADB;enable-background:new ;} .st275{opacity:0.6567;fill:#D9DADB;enable-background:new ;} .st276{opacity:0.6517;fill:#D9DADC;enable-background:new ;} .st277{opacity:0.6468;fill:#D9DBDC;enable-background:new ;} .st278{opacity:0.6418;fill:#DADBDC;enable-background:new ;} .st279{opacity:0.6368;fill:#DADBDC;enable-background:new ;} .st280{opacity:0.6318;fill:#DADBDD;enable-background:new ;} .st281{opacity:0.6269;fill:#DADCDD;enable-background:new ;} .st282{opacity:0.6219;fill:#DBDCDD;enable-background:new ;} .st283{opacity:0.6169;fill:#DBDCDD;enable-background:new ;} .st284{opacity:0.6119;fill:#DBDCDE;enable-background:new ;} .st285{opacity:0.607;fill:#DBDDDE;enable-background:new ;} .st286{opacity:0.602;fill:#DCDDDE;enable-background:new ;} .st287{opacity:0.597;fill:#DCDDDE;enable-background:new ;} .st288{opacity:0.592;fill:#DCDDDF;enable-background:new ;} .st289{opacity:0.5871;fill:#DCDEDF;enable-background:new ;} .st290{opacity:0.5821;fill:#DDDEDF;enable-background:new ;} .st291{opacity:0.5771;fill:#DDDEDF;enable-background:new ;} .st292{opacity:0.5721;fill:#DDDEE0;enable-background:new ;} .st293{opacity:0.5672;fill:#DDDFE0;enable-background:new ;} .st294{opacity:0.5622;fill:#DEDFE0;enable-background:new ;} .st295{opacity:0.5572;fill:#DEDFE0;enable-background:new ;} .st296{opacity:0.5522;fill:#DEDFE1;enable-background:new ;} .st297{opacity:0.5473;fill:#DFE0E1;enable-background:new ;} .st298{opacity:0.5423;fill:#DFE0E1;enable-background:new ;} .st299{opacity:0.5373;fill:#DFE0E1;enable-background:new ;} .st300{opacity:0.5323;fill:#DFE0E2;enable-background:new ;} .st301{opacity:0.5274;fill:#E0E1E2;enable-background:new ;} .st302{opacity:0.5224;fill:#E0E1E2;enable-background:new ;} .st303{opacity:0.5174;fill:#E0E1E2;enable-background:new ;} .st304{opacity:0.5124;fill:#E0E1E3;enable-background:new ;} .st305{opacity:0.5075;fill:#E1E2E3;enable-background:new ;} .st306{opacity:0.5025;fill:#E1E2E3;enable-background:new ;} .st307{opacity:0.4975;fill:#E1E2E3;enable-background:new ;} .st308{opacity:0.4925;fill:#E1E2E4;enable-background:new ;} .st309{opacity:0.4876;fill:#E2E3E4;enable-background:new ;} .st310{opacity:0.4826;fill:#E2E3E4;enable-background:new ;} .st311{opacity:0.4776;fill:#E2E3E4;enable-background:new ;} .st312{opacity:0.4726;fill:#E2E3E4;enable-background:new ;} .st313{opacity:0.4677;fill:#E3E4E5;enable-background:new ;} .st314{opacity:0.4627;fill:#E3E4E5;enable-background:new ;} .st315{opacity:0.4577;fill:#E3E4E5;enable-background:new ;} .st316{opacity:0.4527;fill:#E3E4E5;enable-background:new ;} .st317{opacity:0.4478;fill:#E4E5E6;enable-background:new ;} .st318{opacity:0.4428;fill:#E4E5E6;enable-background:new ;} .st319{opacity:0.4378;fill:#E4E5E6;enable-background:new ;} .st320{opacity:0.4328;fill:#E5E5E6;enable-background:new ;} .st321{opacity:0.4279;fill:#E5E6E7;enable-background:new ;} .st322{opacity:0.4229;fill:#E5E6E7;enable-background:new ;} .st323{opacity:0.4179;fill:#E5E6E7;enable-background:new ;} .st324{opacity:0.4129;fill:#E6E6E7;enable-background:new ;} .st325{opacity:0.408;fill:#E6E7E8;enable-background:new ;} .st326{opacity:0.403;fill:#E6E7E8;enable-background:new ;} .st327{opacity:0.398;fill:#E6E7E8;enable-background:new ;} .st328{opacity:0.393;fill:#E7E8E8;enable-background:new ;} .st329{opacity:0.3881;fill:#E7E8E9;enable-background:new ;} .st330{opacity:0.3831;fill:#E7E8E9;enable-background:new ;} .st331{opacity:0.3781;fill:#E8E8E9;enable-background:new ;} .st332{opacity:0.3731;fill:#E8E9E9;enable-background:new ;} .st333{opacity:0.3682;fill:#E8E9EA;enable-background:new ;} .st334{opacity:0.3632;fill:#E8E9EA;enable-background:new ;} .st335{opacity:0.3582;fill:#E9E9EA;enable-background:new ;} .st336{opacity:0.3532;fill:#E9EAEB;enable-background:new ;} .st337{opacity:0.3483;fill:#E9EAEB;enable-background:new ;} .st338{opacity:0.3433;fill:#EAEAEB;enable-background:new ;} .st339{opacity:0.3383;fill:#EAEBEB;enable-background:new ;} .st340{opacity:0.3333;fill:#EAEBEC;enable-background:new ;} .st341{opacity:0.3284;fill:#EAEBEC;enable-background:new ;} .st342{opacity:0.3234;fill:#EBEBEC;enable-background:new ;} .st343{opacity:0.3184;fill:#EBECEC;enable-background:new ;} .st344{opacity:0.3134;fill:#EBECED;enable-background:new ;} .st345{opacity:0.3085;fill:#EBECED;enable-background:new ;} .st346{opacity:0.3035;fill:#ECECED;enable-background:new ;} .st347{opacity:0.2985;fill:#ECECED;enable-background:new ;} .st348{opacity:0.2935;fill:#ECEDED;enable-background:new ;} .st349{opacity:0.2886;fill:#ECEDEE;enable-background:new ;} .st350{opacity:0.2836;fill:#EDEDEE;enable-background:new ;} .st351{opacity:0.2786;fill:#EDEEEE;enable-background:new ;} .st352{opacity:0.2736;fill:#EDEEEE;enable-background:new ;} .st353{opacity:0.2687;fill:#EDEEEF;enable-background:new ;} .st354{opacity:0.2637;fill:#EEEEEF;enable-background:new ;} .st355{opacity:0.2587;fill:#EEEFEF;enable-background:new ;} .st356{opacity:0.2537;fill:#EEEFEF;enable-background:new ;} .st357{opacity:0.2488;fill:#EEEFF0;enable-background:new ;} .st358{opacity:0.2438;fill:#EFEFF0;enable-background:new ;} .st359{opacity:0.2388;fill:#EFF0F0;enable-background:new ;} .st360{opacity:0.2338;fill:#EFF0F0;enable-background:new ;} .st361{opacity:0.2289;fill:#F0F0F1;enable-background:new ;} .st362{opacity:0.2239;fill:#F0F0F1;enable-background:new ;} .st363{opacity:0.2189;fill:#F0F1F1;enable-background:new ;} .st364{opacity:0.2139;fill:#F0F1F1;enable-background:new ;} .st365{opacity:0.209;fill:#F1F1F2;enable-background:new ;} .st366{opacity:0.204;fill:#F1F1F2;enable-background:new ;} .st367{opacity:0.199;fill:#F1F2F2;enable-background:new ;} .st368{opacity:0.194;fill:#F1F2F2;enable-background:new ;} .st369{opacity:0.1891;fill:#F2F2F3;enable-background:new ;} .st370{opacity:0.1841;fill:#F2F2F3;enable-background:new ;} .st371{opacity:0.1791;fill:#F2F3F3;enable-background:new ;} .st372{opacity:0.1741;fill:#F2F3F3;enable-background:new ;} .st373{opacity:0.1692;fill:#F3F3F4;enable-background:new ;} .st374{opacity:0.1642;fill:#F3F3F4;enable-background:new ;} .st375{opacity:0.1592;fill:#F3F4F4;enable-background:new ;} .st376{opacity:0.1542;fill:#F4F4F4;enable-background:new ;} .st377{opacity:0.1493;fill:#F4F4F5;enable-background:new ;} .st378{opacity:0.1443;fill:#F4F4F5;enable-background:new ;} .st379{opacity:0.1393;fill:#F4F5F5;enable-background:new ;} .st380{opacity:0.1343;fill:#F5F5F5;enable-background:new ;} .st381{opacity:0.1294;fill:#F5F5F6;enable-background:new ;} .st382{opacity:0.1244;fill:#F5F6F6;enable-background:new ;} .st383{opacity:0.1194;fill:#F6F6F6;enable-background:new ;} .st384{opacity:0.1144;fill:#F6F6F7;enable-background:new ;} .st385{opacity:0.1095;fill:#F6F6F7;enable-background:new ;} .st386{opacity:0.1045;fill:#F6F7F7;enable-background:new ;} .st387{opacity:9.950300e-02;fill:#F7F7F7;enable-background:new ;} .st388{opacity:9.452800e-02;fill:#F7F7F8;enable-background:new ;} .st389{opacity:8.955300e-02;fill:#F7F8F8;enable-background:new ;} .st390{opacity:8.457700e-02;fill:#F8F8F8;enable-background:new ;} .st391{opacity:7.960200e-02;fill:#F8F8F9;enable-background:new ;} .st392{opacity:7.462700e-02;fill:#F8F9F9;enable-background:new ;} .st393{opacity:6.965200e-02;fill:#F9F9F9;enable-background:new ;} .st394{opacity:6.467700e-02;fill:#F9F9F9;enable-background:new ;} .st395{opacity:5.970200e-02;fill:#F9FAFA;enable-background:new ;} .st396{opacity:5.472700e-02;fill:#FAFAFA;enable-background:new ;} .st397{opacity:4.975100e-02;fill:#FAFAFA;enable-background:new ;} .st398{opacity:4.477600e-02;fill:#FBFBFB;enable-background:new ;} .st399{opacity:3.980100e-02;fill:#FBFBFB;enable-background:new ;} .st400{opacity:3.482600e-02;fill:#FBFCFC;enable-background:new ;} .st401{opacity:2.985100e-02;fill:#FCFCFC;enable-background:new ;} .st402{opacity:2.487600e-02;fill:#FCFCFD;enable-background:new ;} .st403{opacity:1.990100e-02;fill:#FDFDFD;enable-background:new ;} .st404{opacity:1.492500e-02;fill:#FDFDFD;enable-background:new ;} .st405{opacity:9.950000e-03;fill:#FEFEFE;enable-background:new ;} .st406{opacity:4.975000e-03;fill:#FEFEFE;enable-background:new ;} .st407{fill:#FFFFFF;fill-opacity:0;}</style><path class="st0" d="M.6.6h177.6v113.1H.6z"/><path class="st1" d="M177.5 63.5S129 97.7 40.1 113.1h137.4V63.5z"/><path d="M178.2 0H0v114.4h178.8V0h-.6zm-.7 1.3v111.8H1.2V1.3h176.3z"/><path d="M15.6 35H8.2v25.9h7.4c3.9 0 6.8-.9 9.2-3 3-2.4 4.7-6.1 4.7-9.9 0-7.7-5.7-13-13.9-13zm5.9 19.4c-1.6 1.4-3.6 2.1-6.9 2.1h-1.4V39.4h1.4c3.3 0 5.2.6 6.9 2.1 1.7 1.6 2.8 4 2.8 6.4 0 2.5-1.1 5-2.8 6.5zM31.8 35h5v25.9h-5zM49.2 44.9c-3-1.1-3.9-1.9-3.9-3.3 0-1.6 1.6-2.9 3.8-2.9 1.5 0 2.8.6 4.1 2.1l2.6-3.5c-2.2-1.9-4.8-2.9-7.6-2.9-4.6 0-8.1 3.2-8.1 7.4 0 3.6 1.6 5.4 6.4 7.1 2 .7 3 1.2 3.5 1.5 1 .7 1.5 1.6 1.5 2.7 0 2.1-1.7 3.7-3.9 3.7-2.4 0-4.3-1.2-5.5-3.5l-3.3 3.1c2.3 3.4 5.1 4.9 9 4.9 5.2 0 8.9-3.5 8.9-8.5-.1-3.9-1.8-5.8-7.5-7.9zM58.2 47.9c0 7.6 6 13.5 13.7 13.5 2.2 0 4-.4 6.3-1.5V54c-2 2-3.8 2.8-6.1 2.8-5.1 0-8.7-3.7-8.7-8.9 0-5 3.7-8.9 8.5-8.9 2.4 0 4.2.9 6.3 2.9V36c-2.2-1.1-4-1.6-6.2-1.6-7.6 0-13.8 6-13.8 13.5zM118.3 52.4l-7-17.4h-5.5l11 26.5h2.7L130.7 35h-5.5zM133 60.9h14.3v-4.4H138v-7h9v-4.4h-9v-5.7h9.3V35H133zM167.3 42.6c0-4.8-3.3-7.6-9.2-7.6h-7.5v25.9h5V50.5h.7l7 10.4h6.2L161.4 50c3.8-.8 5.9-3.4 5.9-7.4zm-10.1 4.3h-1.5v-7.8h1.6c3.1 0 4.9 1.3 4.9 3.8-.1 2.6-1.8 4-5 4z"/><linearGradient id="SVGID_1_" gradientUnits="userSpaceOnUse" x1="100.663" y1="732.941" x2="91.129" y2="747.869" gradientTransform="matrix(1 0 0 -1 0 792)"><stop offset="0" stop-color="#F9A020"/><stop offset=".204" stop-color="#F99D20"/><stop offset=".435" stop-color="#F79320"/><stop offset=".62" stop-color="#F68820"/><stop offset=".797" stop-color="#F57E20"/><stop offset="1" stop-color="#F47521"/></linearGradient><circle class="st2" cx="93.6" cy="48" r="13.8"/><linearGradient id="SVGID_2_" gradientUnits="userSpaceOnUse" x1="99.153" y1="733.145" x2="85.219" y2="760.38" gradientTransform="matrix(1 0 0 -1 0 792)"><stop offset="0" stop-color="#F68820" stop-opacity="0"/><stop offset=".34" stop-color="#E17029" stop-opacity=".257"/><stop offset=".694" stop-color="#D4602D" stop-opacity=".523"/><stop offset=".982" stop-color="#D05B2E" stop-opacity=".74"/></linearGradient><circle class="st3" cx="93.6" cy="48" r="13.8"/><g class="st4"><defs><circle id="SVGID_3_" cx="93.6" cy="48" r="13.8"/></defs><clipPath id="SVGID_4_"><use xlink:href="#SVGID_3_" overflow="visible"/></clipPath><g class="st5"><circle cx="93.7" cy="48.1" r="14"/><circle class="st6" cx="93.7" cy="48.1" r="14"/><circle class="st7" cx="93.7" cy="48.1" r="14"/><circle class="st8" cx="93.7" cy="48.1" r="14"/><circle class="st9" cx="93.7" cy="48.1" r="14"/><circle class="st10" cx="93.7" cy="48.1" r="14"/><circle class="st11" cx="93.7" cy="48.1" r="14"/><circle class="st12" cx="93.7" cy="48.1" r="14"/><circle class="st13" cx="93.7" cy="48.1" r="14"/><circle class="st14" cx="93.7" cy="48.1" r="14"/><circle class="st15" cx="93.8" cy="48.1" r="14"/><circle class="st16" cx="93.8" cy="48.2" r="14"/><circle class="st17" cx="93.8" cy="48.2" r="14"/><circle class="st18" cx="93.8" cy="48.2" r="14"/><circle class="st19" cx="93.8" cy="48.2" r="14"/><circle class="st20" cx="93.8" cy="48.2" r="14"/><circle class="st21" cx="93.8" cy="48.2" r="14"/><circle class="st22" cx="93.8" cy="48.2" r="14"/><circle class="st23" cx="93.8" cy="48.2" r="14"/><circle class="st24" cx="93.8" cy="48.2" r="14"/><circle class="st25" cx="93.8" cy="48.2" r="14"/><circle class="st26" cx="93.8" cy="48.2" r="14"/><circle class="st27" cx="93.8" cy="48.2" r="14"/><circle class="st28" cx="93.9" cy="48.3" r="14"/><circle class="st29" cx="93.9" cy="48.3" r="14"/><circle class="st30" cx="93.9" cy="48.3" r="14"/><circle class="st31" cx="93.9" cy="48.3" r="14"/><circle class="st32" cx="93.9" cy="48.3" r="14"/><circle class="st33" cx="93.9" cy="48.3" r="14"/><circle class="st34" cx="93.9" cy="48.3" r="14"/><circle class="st35" cx="93.9" cy="48.3" r="14"/><circle class="st36" cx="93.9" cy="48.3" r="14"/><circle class="st37" cx="93.9" cy="48.3" r="14"/><circle class="st38" cx="93.9" cy="48.3" r="14"/><circle class="st39" cx="93.9" cy="48.4" r="14"/><circle class="st40" cx="93.9" cy="48.4" r="14"/><circle class="st41" cx="94" cy="48.4" r="14"/><circle class="st42" cx="94" cy="48.4" r="14"/><circle class="st43" cx="94" cy="48.4" r="14"/><circle class="st44" cx="94" cy="48.4" r="14"/><circle class="st45" cx="94" cy="48.4" r="14"/><circle class="st46" cx="94" cy="48.4" r="14"/><circle class="st47" cx="94" cy="48.4" r="14"/><circle class="st48" cx="94" cy="48.4" r="14"/><circle class="st49" cx="94" cy="48.4" r="14"/><circle class="st50" cx="94" cy="48.5" r="14"/><circle class="st51" cx="94" cy="48.5" r="14"/><circle class="st52" cx="94" cy="48.5" r="14"/><circle class="st53" cx="94" cy="48.5" r="14"/><circle class="st54" cx="94.1" cy="48.5" r="14"/><circle class="st55" cx="94.1" cy="48.5" r="14"/><circle class="st56" cx="94.1" cy="48.5" r="14"/><circle class="st57" cx="94.1" cy="48.5" r="14"/><circle class="st58" cx="94.1" cy="48.5" r="14"/><circle class="st59" cx="94.1" cy="48.5" r="14"/><circle class="st60" cx="94.1" cy="48.5" r="14"/><circle class="st61" cx="94.1" cy="48.5" r="14"/><circle class="st62" cx="94.1" cy="48.6" r="14"/><circle class="st63" cx="94.1" cy="48.6" r="14"/><circle class="st64" cx="94.1" cy="48.6" r="14"/><circle class="st65" cx="94.1" cy="48.6" r="14"/><circle class="st66" cx="94.1" cy="48.6" r="14"/><circle class="st67" cx="94.2" cy="48.6" r="14"/><circle class="st68" cx="94.2" cy="48.6" r="14"/><circle class="st69" cx="94.2" cy="48.6" r="14"/><circle class="st70" cx="94.2" cy="48.6" r="14"/><circle class="st71" cx="94.2" cy="48.6" r="14"/><circle class="st72" cx="94.2" cy="48.6" r="14"/><circle class="st73" cx="94.2" cy="48.7" r="14"/><circle class="st74" cx="94.2" cy="48.7" r="14"/><circle class="st75" cx="94.2" cy="48.7" r="14"/><circle class="st76" cx="94.2" cy="48.7" r="13.9"/><circle class="st77" cx="94.2" cy="48.7" r="13.9"/><circle class="st78" cx="94.2" cy="48.7" r="13.9"/><circle class="st79" cx="94.2" cy="48.7" r="13.9"/><circle class="st80" cx="94.3" cy="48.7" r="13.9"/><circle class="st81" cx="94.3" cy="48.7" r="13.9"/><circle class="st82" cx="94.3" cy="48.7" r="13.9"/><circle class="st83" cx="94.3" cy="48.7" r="13.9"/><circle class="st84" cx="94.3" cy="48.7" r="13.9"/><circle class="st85" cx="94.3" cy="48.8" r="13.9"/><circle class="st86" cx="94.3" cy="48.8" r="13.9"/><circle class="st87" cx="94.3" cy="48.8" r="13.9"/><circle class="st88" cx="94.3" cy="48.8" r="13.9"/><circle class="st89" cx="94.3" cy="48.8" r="13.9"/><circle class="st90" cx="94.3" cy="48.8" r="13.9"/><circle class="st91" cx="94.3" cy="48.8" r="13.9"/><circle class="st92" cx="94.3" cy="48.8" r="13.9"/><circle class="st93" cx="94.4" cy="48.8" r="13.9"/><circle class="st94" cx="94.4" cy="48.8" r="13.9"/><circle class="st95" cx="94.4" cy="48.8" r="13.9"/><circle class="st96" cx="94.4" cy="48.9" r="13.9"/><circle class="st97" cx="94.4" cy="48.9" r="13.9"/><circle class="st98" cx="94.4" cy="48.9" r="13.9"/><circle class="st99" cx="94.4" cy="48.9" r="13.9"/><circle class="st100" cx="94.4" cy="48.9" r="13.9"/><circle class="st101" cx="94.4" cy="48.9" r="13.9"/><circle class="st102" cx="94.4" cy="48.9" r="13.9"/><circle class="st103" cx="94.4" cy="48.9" r="13.9"/><circle class="st104" cx="94.4" cy="48.9" r="13.9"/><circle class="st105" cx="94.4" cy="48.9" r="13.9"/><circle class="st106" cx="94.5" cy="48.9" r="13.9"/><circle class="st107" cx="94.5" cy="49" r="13.9"/><circle class="st108" cx="94.5" cy="49" r="13.9"/><circle class="st109" cx="94.5" cy="49" r="13.9"/><circle class="st110" cx="94.5" cy="49" r="13.9"/><circle class="st111" cx="94.5" cy="49" r="13.9"/><circle class="st112" cx="94.5" cy="49" r="13.9"/><circle class="st113" cx="94.5" cy="49" r="13.9"/><circle class="st114" cx="94.5" cy="49" r="13.9"/><circle class="st115" cx="94.5" cy="49" r="13.9"/><circle class="st116" cx="94.5" cy="49" r="13.9"/><circle class="st117" cx="94.5" cy="49" r="13.9"/><circle class="st118" cx="94.5" cy="49" r="13.9"/><circle class="st119" cx="94.5" cy="49.1" r="13.9"/><circle class="st120" cx="94.6" cy="49.1" r="13.9"/><circle class="st121" cx="94.6" cy="49.1" r="13.9"/><circle class="st122" cx="94.6" cy="49.1" r="13.9"/><circle class="st123" cx="94.6" cy="49.1" r="13.9"/><circle class="st124" cx="94.6" cy="49.1" r="13.9"/><circle class="st125" cx="94.6" cy="49.1" r="13.9"/><circle class="st126" cx="94.6" cy="49.1" r="13.9"/><circle class="st127" cx="94.6" cy="49.1" r="13.9"/><circle class="st128" cx="94.6" cy="49.1" r="13.9"/><circle class="st129" cx="94.6" cy="49.1" r="13.9"/><circle class="st130" cx="94.6" cy="49.2" r="13.9"/><circle class="st131" cx="94.6" cy="49.2" r="13.9"/><circle class="st132" cx="94.6" cy="49.2" r="13.9"/><circle class="st133" cx="94.7" cy="49.2" r="13.9"/><circle class="st134" cx="94.7" cy="49.2" r="13.9"/><circle class="st135" cx="94.7" cy="49.2" r="13.9"/><circle class="st136" cx="94.7" cy="49.2" r="13.9"/><circle class="st137" cx="94.7" cy="49.2" r="13.9"/><circle class="st138" cx="94.7" cy="49.2" r="13.9"/><circle class="st139" cx="94.7" cy="49.2" r="13.9"/><circle class="st140" cx="94.7" cy="49.2" r="13.9"/><circle class="st141" cx="94.7" cy="49.2" r="13.9"/><circle class="st142" cx="94.7" cy="49.3" r="13.9"/><circle class="st143" cx="94.7" cy="49.3" r="13.9"/><circle class="st144" cx="94.7" cy="49.3" r="13.9"/><circle class="st145" cx="94.7" cy="49.3" r="13.9"/><circle class="st146" cx="94.8" cy="49.3" r="13.9"/><circle class="st147" cx="94.8" cy="49.3" r="13.9"/><circle class="st148" cx="94.8" cy="49.3" r="13.9"/><circle class="st149" cx="94.8" cy="49.3" r="13.8"/><circle class="st150" cx="94.8" cy="49.3" r="13.8"/><circle class="st151" cx="94.8" cy="49.3" r="13.8"/><circle class="st152" cx="94.8" cy="49.3" r="13.8"/><circle class="st153" cx="94.8" cy="49.4" r="13.8"/><circle class="st154" cx="94.8" cy="49.4" r="13.8"/><circle class="st155" cx="94.8" cy="49.4" r="13.8"/><circle class="st156" cx="94.8" cy="49.4" r="13.8"/><circle class="st157" cx="94.8" cy="49.4" r="13.8"/><circle class="st158" cx="94.8" cy="49.4" r="13.8"/><circle class="st159" cx="94.9" cy="49.4" r="13.8"/><circle class="st160" cx="94.9" cy="49.4" r="13.8"/><circle class="st161" cx="94.9" cy="49.4" r="13.8"/><circle class="st162" cx="94.9" cy="49.4" r="13.8"/><circle class="st163" cx="94.9" cy="49.4" r="13.8"/><circle class="st164" cx="94.9" cy="49.5" r="13.8"/><circle class="st165" cx="94.9" cy="49.5" r="13.8"/><circle class="st166" cx="94.9" cy="49.5" r="13.8"/><circle class="st167" cx="94.9" cy="49.5" r="13.8"/><circle class="st168" cx="94.9" cy="49.5" r="13.8"/><circle class="st169" cx="94.9" cy="49.5" r="13.8"/><circle class="st170" cx="94.9" cy="49.5" r="13.8"/><circle class="st171" cx="94.9" cy="49.5" r="13.8"/><circle class="st172" cx="95" cy="49.5" r="13.8"/><circle class="st173" cx="95" cy="49.5" r="13.8"/><circle class="st174" cx="95" cy="49.5" r="13.8"/><circle class="st175" cx="95" cy="49.5" r="13.8"/><circle class="st176" cx="95" cy="49.6" r="13.8"/><circle class="st177" cx="95" cy="49.6" r="13.8"/><circle class="st178" cx="95" cy="49.6" r="13.8"/><circle class="st179" cx="95" cy="49.6" r="13.8"/><circle class="st180" cx="95" cy="49.6" r="13.8"/><circle class="st181" cx="95" cy="49.6" r="13.8"/><circle class="st182" cx="95" cy="49.6" r="13.8"/><circle class="st183" cx="95" cy="49.6" r="13.8"/><circle class="st184" cx="95" cy="49.6" r="13.8"/><circle class="st185" cx="95.1" cy="49.6" r="13.8"/><circle class="st186" cx="95.1" cy="49.6" r="13.8"/><circle class="st187" cx="95.1" cy="49.7" r="13.8"/><circle class="st188" cx="95.1" cy="49.7" r="13.8"/><circle class="st189" cx="95.1" cy="49.7" r="13.8"/><circle class="st190" cx="95.1" cy="49.7" r="13.8"/><circle class="st191" cx="95.1" cy="49.7" r="13.8"/><circle class="st192" cx="95.1" cy="49.7" r="13.8"/><circle class="st193" cx="95.1" cy="49.7" r="13.8"/><circle class="st194" cx="95.1" cy="49.7" r="13.8"/><circle class="st195" cx="95.1" cy="49.7" r="13.8"/><circle class="st196" cx="95.1" cy="49.7" r="13.8"/><circle class="st197" cx="95.1" cy="49.7" r="13.8"/><circle class="st198" cx="95.1" cy="49.7" r="13.8"/><circle class="st199" cx="95.2" cy="49.8" r="13.8"/><circle class="st200" cx="95.2" cy="49.8" r="13.8"/><circle class="st201" cx="95.2" cy="49.8" r="13.8"/><circle class="st202" cx="95.2" cy="49.8" r="13.8"/><circle class="st203" cx="95.2" cy="49.8" r="13.8"/><circle class="st204" cx="95.2" cy="49.8" r="13.8"/><circle class="st205" cx="95.2" cy="49.8" r="13.8"/><circle class="st206" cx="95.2" cy="49.8" r="13.8"/><circle class="st207" cx="95.2" cy="49.8" r="13.8"/><circle class="st208" cx="95.2" cy="49.8" r="13.8"/><circle class="st209" cx="95.2" cy="49.8" r="13.8"/><circle class="st210" cx="95.2" cy="49.8" r="13.8"/><circle class="st211" cx="95.2" cy="49.9" r="13.8"/><circle class="st212" cx="95.3" cy="49.9" r="13.8"/><circle class="st213" cx="95.3" cy="49.9" r="13.8"/><circle class="st214" cx="95.3" cy="49.9" r="13.8"/><circle class="st215" cx="95.3" cy="49.9" r="13.8"/><circle class="st216" cx="95.3" cy="49.9" r="13.8"/><circle class="st217" cx="95.3" cy="49.9" r="13.8"/><circle class="st218" cx="95.3" cy="49.9" r="13.8"/><circle class="st219" cx="95.3" cy="49.9" r="13.8"/><circle class="st220" cx="95.3" cy="49.9" r="13.8"/><circle class="st221" cx="95.3" cy="49.9" r="13.8"/><circle class="st222" cx="95.3" cy="49.9" r="13.8"/><circle class="st223" cx="95.3" cy="50" r="13.8"/><circle class="st224" cx="95.3" cy="50" r="13.8"/><circle class="st225" cx="95.3" cy="50" r="13.8"/><circle class="st226" cx="95.3" cy="50" r="13.8"/><circle class="st227" cx="95.3" cy="50" r="13.8"/><circle class="st228" cx="95.4" cy="50" r="13.8"/><circle class="st229" cx="95.4" cy="50" r="13.8"/><circle class="st230" cx="95.4" cy="50" r="13.8"/><circle class="st231" cx="95.4" cy="50" r="13.8"/><circle class="st232" cx="95.4" cy="50" r="13.8"/><circle class="st233" cx="95.4" cy="50" r="13.8"/><circle class="st234" cx="95.4" cy="50" r="13.8"/><circle class="st235" cx="95.4" cy="50" r="13.8"/><circle class="st236" cx="95.4" cy="50.1" r="13.8"/><circle class="st237" cx="95.4" cy="50.1" r="13.8"/><circle class="st238" cx="95.4" cy="50.1" r="13.8"/><circle class="st239" cx="95.4" cy="50.1" r="13.8"/><circle class="st240" cx="95.4" cy="50.1" r="13.8"/><circle class="st241" cx="95.4" cy="50.1" r="13.8"/><circle class="st242" cx="95.4" cy="50.1" r="13.8"/><circle class="st243" cx="95.5" cy="50.1" r="13.8"/><circle class="st244" cx="95.5" cy="50.1" r="13.8"/><circle class="st245" cx="95.5" cy="50.1" r="13.8"/><circle class="st246" cx="95.5" cy="50.1" r="13.8"/><circle class="st247" cx="95.5" cy="50.1" r="13.8"/><circle class="st248" cx="95.5" cy="50.2" r="13.8"/><circle class="st249" cx="95.5" cy="50.2" r="13.8"/><circle class="st250" cx="95.5" cy="50.2" r="13.8"/><circle class="st251" cx="95.5" cy="50.2" r="13.8"/><circle class="st252" cx="95.5" cy="50.2" r="13.8"/><circle class="st253" cx="95.5" cy="50.2" r="13.8"/><circle class="st254" cx="95.5" cy="50.2" r="13.8"/><circle class="st255" cx="95.5" cy="50.2" r="13.8"/><circle class="st256" cx="95.5" cy="50.2" r="13.8"/><circle class="st257" cx="95.5" cy="50.2" r="13.8"/><circle class="st258" cx="95.6" cy="50.2" r="13.8"/><circle class="st259" cx="95.6" cy="50.2" r="13.8"/><circle class="st260" cx="95.6" cy="50.2" r="13.8"/><circle class="st261" cx="95.6" cy="50.3" r="13.8"/><circle class="st262" cx="95.6" cy="50.3" r="13.8"/><circle class="st263" cx="95.6" cy="50.3" r="13.8"/><circle class="st264" cx="95.6" cy="50.3" r="13.8"/><circle class="st265" cx="95.6" cy="50.3" r="13.8"/><circle class="st266" cx="95.6" cy="50.3" r="13.8"/><circle class="st267" cx="95.6" cy="50.3" r="13.8"/><circle class="st268" cx="95.6" cy="50.3" r="13.8"/><circle class="st269" cx="95.6" cy="50.3" r="13.8"/><circle class="st270" cx="95.6" cy="50.3" r="13.8"/><circle class="st271" cx="95.6" cy="50.3" r="13.8"/><circle class="st272" cx="95.6" cy="50.3" r="13.8"/><circle class="st273" cx="95.7" cy="50.3" r="13.8"/><circle class="st274" cx="95.7" cy="50.4" r="13.8"/><circle class="st275" cx="95.7" cy="50.4" r="13.8"/><circle class="st276" cx="95.7" cy="50.4" r="13.8"/><circle class="st277" cx="95.7" cy="50.4" r="13.8"/><circle class="st278" cx="95.7" cy="50.4" r="13.8"/><circle class="st279" cx="95.7" cy="50.4" r="13.8"/><circle class="st280" cx="95.7" cy="50.4" r="13.8"/><circle class="st281" cx="95.7" cy="50.4" r="13.8"/><circle class="st282" cx="95.7" cy="50.4" r="13.8"/><circle class="st283" cx="95.7" cy="50.4" r="13.8"/><circle class="st284" cx="95.7" cy="50.4" r="13.8"/><circle class="st285" cx="95.7" cy="50.4" r="13.8"/><circle class="st286" cx="95.7" cy="50.5" r="13.8"/><circle class="st287" cx="95.7" cy="50.5" r="13.8"/><circle class="st288" cx="95.7" cy="50.5" r="13.8"/><circle class="st289" cx="95.8" cy="50.5" r="13.8"/><circle class="st290" cx="95.8" cy="50.5" r="13.8"/><circle class="st291" cx="95.8" cy="50.5" r="13.8"/><circle class="st292" cx="95.8" cy="50.5" r="13.8"/><circle class="st293" cx="95.8" cy="50.5" r="13.8"/><circle class="st294" cx="95.8" cy="50.5" r="13.8"/><circle class="st295" cx="95.8" cy="50.5" r="13.8"/><circle class="st296" cx="95.8" cy="50.5" r="13.8"/><circle class="st297" cx="95.8" cy="50.5" r="13.8"/><circle class="st298" cx="95.8" cy="50.5" r="13.8"/><circle class="st299" cx="95.8" cy="50.6" r="13.8"/><circle class="st300" cx="95.8" cy="50.6" r="13.8"/><circle class="st301" cx="95.8" cy="50.6" r="13.8"/><circle class="st302" cx="95.8" cy="50.6" r="13.8"/><circle class="st303" cx="95.8" cy="50.6" r="13.8"/><circle class="st304" cx="95.9" cy="50.6" r="13.8"/><circle class="st305" cx="95.9" cy="50.6" r="13.8"/><circle class="st306" cx="95.9" cy="50.6" r="13.8"/><circle class="st307" cx="95.9" cy="50.6" r="13.8"/><circle class="st308" cx="95.9" cy="50.6" r="13.8"/><circle class="st309" cx="95.9" cy="50.6" r="13.8"/><circle class="st310" cx="95.9" cy="50.6" r="13.8"/><circle class="st311" cx="95.9" cy="50.7" r="13.8"/><circle class="st312" cx="95.9" cy="50.7" r="13.8"/><circle class="st313" cx="95.9" cy="50.7" r="13.8"/><circle class="st314" cx="95.9" cy="50.7" r="13.8"/><circle class="st315" cx="95.9" cy="50.7" r="13.8"/><circle class="st316" cx="95.9" cy="50.7" r="13.8"/><circle class="st317" cx="95.9" cy="50.7" r="13.8"/><circle class="st318" cx="95.9" cy="50.7" r="13.8"/><circle class="st319" cx="96" cy="50.7" r="13.8"/><circle class="st320" cx="96" cy="50.7" r="13.8"/><circle class="st321" cx="96" cy="50.7" r="13.8"/><circle class="st322" cx="96" cy="50.7" r="13.8"/><circle class="st323" cx="96" cy="50.7" r="13.8"/><circle class="st324" cx="96" cy="50.8" r="13.8"/><circle class="st325" cx="96" cy="50.8" r="13.8"/><circle class="st326" cx="96" cy="50.8" r="13.8"/><circle class="st327" cx="96" cy="50.8" r="13.8"/><circle class="st328" cx="96" cy="50.8" r="13.8"/><circle class="st329" cx="96" cy="50.8" r="13.8"/><circle class="st330" cx="96" cy="50.8" r="13.8"/><circle class="st331" cx="96" cy="50.8" r="13.8"/><circle class="st332" cx="96" cy="50.8" r="13.8"/><circle class="st333" cx="96" cy="50.8" r="13.8"/><circle class="st334" cx="96.1" cy="50.8" r="13.8"/><circle class="st335" cx="96.1" cy="50.8" r="13.8"/><circle class="st336" cx="96.1" cy="50.8" r="13.8"/><circle class="st337" cx="96.1" cy="50.9" r="13.8"/><circle class="st338" cx="96.1" cy="50.9" r="13.8"/><circle class="st339" cx="96.1" cy="50.9" r="13.8"/><circle class="st340" cx="96.1" cy="50.9" r="13.8"/><circle class="st341" cx="96.1" cy="50.9" r="13.8"/><circle class="st342" cx="96.1" cy="50.9" r="13.8"/><circle class="st343" cx="96.1" cy="50.9" r="13.8"/><circle class="st344" cx="96.1" cy="50.9" r="13.8"/><circle class="st345" cx="96.1" cy="50.9" r="13.8"/><circle class="st346" cx="96.1" cy="50.9" r="13.8"/><circle class="st347" cx="96.1" cy="50.9" r="13.8"/><circle class="st348" cx="96.1" cy="50.9" r="13.8"/><circle class="st349" cx="96.1" cy="51" r="13.8"/><circle class="st350" cx="96.2" cy="51" r="13.8"/><circle class="st351" cx="96.2" cy="51" r="13.8"/><circle class="st352" cx="96.2" cy="51" r="13.8"/><circle class="st353" cx="96.2" cy="51" r="13.8"/><circle class="st354" cx="96.2" cy="51" r="13.8"/><circle class="st355" cx="96.2" cy="51" r="13.8"/><circle class="st356" cx="96.2" cy="51" r="13.8"/><circle class="st357" cx="96.2" cy="51" r="13.8"/><circle class="st358" cx="96.2" cy="51" r="13.8"/><circle class="st359" cx="96.2" cy="51" r="13.8"/><circle class="st360" cx="96.2" cy="51" r="13.8"/><circle class="st361" cx="96.2" cy="51" r="13.8"/><circle class="st362" cx="96.2" cy="51.1" r="13.8"/><circle class="st363" cx="96.2" cy="51.1" r="13.8"/><circle class="st364" cx="96.2" cy="51.1" r="13.8"/><circle class="st365" cx="96.3" cy="51.1" r="13.8"/><circle class="st366" cx="96.3" cy="51.1" r="13.8"/><circle class="st367" cx="96.3" cy="51.1" r="13.8"/><circle class="st368" cx="96.3" cy="51.1" r="13.8"/><circle class="st369" cx="96.3" cy="51.1" r="13.8"/><circle class="st370" cx="96.3" cy="51.1" r="13.8"/><circle class="st371" cx="96.3" cy="51.1" r="13.8"/><circle class="st372" cx="96.3" cy="51.1" r="13.8"/><circle class="st373" cx="96.3" cy="51.1" r="13.8"/><circle class="st374" cx="96.3" cy="51.2" r="13.8"/><circle class="st375" cx="96.3" cy="51.2" r="13.8"/><circle class="st376" cx="96.3" cy="51.2" r="13.8"/><circle class="st377" cx="96.3" cy="51.2" r="13.8"/><circle class="st378" cx="96.3" cy="51.2" r="13.8"/><circle class="st379" cx="96.3" cy="51.2" r="13.8"/><circle class="st380" cx="96.4" cy="51.2" r="13.8"/><circle class="st381" cx="96.4" cy="51.2" r="13.8"/><circle class="st382" cx="96.4" cy="51.2" r="13.8"/><circle class="st383" cx="96.4" cy="51.2" r="13.8"/><circle class="st384" cx="96.4" cy="51.2" r="13.8"/><circle class="st385" cx="96.4" cy="51.2" r="13.8"/><circle class="st386" cx="96.4" cy="51.2" r="13.8"/><circle class="st387" cx="96.4" cy="51.3" r="13.8"/><circle class="st388" cx="96.4" cy="51.3" r="13.8"/><circle class="st389" cx="96.4" cy="51.3" r="13.8"/><circle class="st390" cx="96.4" cy="51.3" r="13.8"/><circle class="st391" cx="96.4" cy="51.3" r="13.8"/><circle class="st392" cx="96.4" cy="51.3" r="13.8"/><circle class="st393" cx="96.4" cy="51.3" r="13.8"/><circle class="st394" cx="96.4" cy="51.3" r="13.8"/><circle class="st395" cx="96.5" cy="51.3" r="13.8"/><circle class="st396" cx="96.5" cy="51.3" r="13.8"/><circle class="st397" cx="96.5" cy="51.3" r="13.8"/><circle class="st398" cx="96.5" cy="51.3" r="13.8"/><circle class="st399" cx="96.5" cy="51.3" r="13.8"/><circle class="st400" cx="96.5" cy="51.4" r="13.8"/><circle class="st401" cx="96.5" cy="51.4" r="13.8"/><circle class="st402" cx="96.5" cy="51.4" r="13.8"/><circle class="st403" cx="96.5" cy="51.4" r="13.8"/><circle class="st404" cx="96.5" cy="51.4" r="13.8"/><circle class="st405" cx="96.5" cy="51.4" r="13.8"/><circle class="st406" cx="96.5" cy="51.4" r="13.8"/><circle class="st407" cx="96.5" cy="51.4" r="13.8"/></g></g><g><path d="M170.5 36c0-.5-.3-.7-.9-.7h-.7v2.3h.5v-1l.6.9h.7l-.7-.9c.4-.1.5-.3.5-.6zm-.9.3l-.1-.6h.1c.3 0 .4.1.4.3 0 .2-.2.3-.4.3z"/><path d="M169.8 34.4c-1.1 0-2 .9-2 2s.9 2 2 2 2-.9 2-2c-.1-1.1-.9-2-2-2zm0 3.6c-.9 0-1.6-.7-1.6-1.6s.7-1.6 1.6-1.6 1.6.7 1.6 1.6c-.1.9-.8 1.6-1.6 1.6z"/></g></svg>