<svg id="svg2" xmlns="http://www.w3.org/2000/svg" viewBox="0 0 495.9 144.4"><style>.st0{fill:#9D191E;} .st1{fill:#231F20;}</style><g id="g10"><g id="g12"><path id="path14" class="st0" d="M61.313 100.275H42.6c-15.287 0-22.675-8.763-22.675-27.138 0-17.35 8.075-25.937 24.05-25.937h17.35c-.013 0-.013 53.075-.013 53.075zm0-68.363H41.05c-11.512 0-20.262 2.4-26.45 7.213C5.325 46.337 0 59.225 0 74.337c0 13.575 4.125 24.9 11.512 31.95 7.213 6.875 15.113 9.275 31.088 9.275h38.125V1H61.313v30.913"/><path id="path16" class="st0" d="M181.662 31.912h-15.287V47.2h15.287v40.362c0 12.025 1.713 17.863 6.35 22.5 4.463 4.125 9.275 5.5 19.75 5.5h16.488v-15.287h-9.45c-11.675 0-13.738-2.238-13.738-15.288V47.2h23.188V31.912h-23.188V1H181.65l.012 30.912"/><path id="path18" class="st1" d="M248.713 47.175h15.975c16.312 0 24.05 8.237 24.05 25.587 0 9.788-2.238 17.525-6.35 21.813-3.438 3.775-9.788 5.662-18.55 5.662h-15.113l-.012-53.062zm-19.4-15.288v112.538h19.412v-28.888h17.863c15.974 0 23.362-2.225 30.4-8.925 7.387-7.212 11.85-19.237 11.85-32.462 0-14.6-4.126-26.1-12.2-33.488-7.388-6.7-14.263-8.762-30.4-8.762l-36.925-.013"/><path id="path20" class="st1" d="M373.075 79.837v20.438h-27.313c-10.475 0-14.6-2.75-14.6-9.963 0-4.637 2.063-8.075 5.5-9.45 2.063-.862 3.95-1.025 9.1-1.025h27.313zM344.05 64.55c-9.613 0-15.8.862-19.75 2.75-8.075 3.6-13.05 12.537-13.05 23.187 0 8.413 3.263 15.625 9.1 20.1 5.5 4.125 10.137 4.975 27.137 4.975h45V65.237c0-13.225-1.55-19.237-6.362-24.9-5.5-6.525-11.85-8.412-29.375-8.412H315.7V47.2h39.175c9.625 0 13.225 1.2 15.8 4.813 2.063 2.925 2.4 5.325 2.4 12.537H344.05"/><path id="path22" class="st1" d="M452.575 100.275h-20.1c-12.025 0-15.463-4.463-15.463-20.613v-47.75H397.6v46.375c0 16.488 1.025 21.475 5.837 27.488 5.838 7.037 13.4 9.787 27.138 9.787h21.987c-.35 6.9-.862 8.788-3.437 10.513-2.238 1.887-4.813 2.237-13.225 2.237h-38.3v15.275h38.812c15.288 0 21.988-1.887 27.475-7.387 5.5-5.662 8.075-15.113 8.075-28.887v-75.4H452.55v68.362"/><path id="path24" class="st0" d="M134.575 55.563h-14.712c-.413 0-.788.162-1.138.524-.338.35-.563.863-.563 1.45v12.45h18.088v-12.45c0-.587-.225-1.1-.563-1.45-.325-.35-.7-.512-1.112-.525"/><path id="path26" class="st0" d="M145.912 93.188c0 3.162-2.587 5.737-5.737 5.737H113.65c-3.163 0-5.737-2.587-5.737-5.737V75.962c0-2.362 1.45-4.4 3.5-5.287V57.763c.012-4.5 3.487-8.35 8.112-8.388h14.7c4.612.038 8.1 3.888 8.113 8.388v12.875c2.1.862 3.575 2.912 3.575 5.312v17.237zm-18.65-60.713c-22.887 0-41.45 18.562-41.45 41.45 0 22.887 18.563 41.45 41.45 41.45 22.888 0 41.45-18.563 41.45-41.45-.012-22.888-18.575-41.45-41.45-41.45"/><path id="path28" class="st1" d="M482.137 12.412h1.288c1.5 0 2.712-.5 2.712-1.712 0-1.075-.787-1.788-2.5-1.788-.712 0-1.212.075-1.5.15v3.35zm-.062 6.575h-2.712V7.337c1.075-.212 2.575-.425 4.5-.425 2.212 0 3.212.363 4.075.925.637.5 1.137 1.425 1.137 2.5 0 1.363-1 2.363-2.425 2.788v.15c1.137.35 1.788 1.287 2.138 2.862.362 1.788.574 2.5.862 2.863h-2.938c-.362-.425-.575-1.425-.925-2.788-.212-1.287-.925-1.862-2.425-1.862h-1.287v4.637zm1.788-15.437c-5.15 0-9 4.212-9 9.362 0 5.213 3.862 9.363 9.15 9.363 5.15.075 8.937-4.15 8.937-9.363 0-5.15-3.788-9.362-9-9.362h-.087zM484 1.2c6.713 0 11.938 5.212 11.938 11.725 0 6.65-5.213 11.787-12 11.787-6.713 0-12.075-5.15-12.075-11.787 0-6.5 5.362-11.725 12.075-11.725H484"/></g></g></svg>