<svg xmlns="http://www.w3.org/2000/svg" version="1" width="921.26" height="425.197"><g fill-rule="evenodd"><path d="M17.717 90.484c0-37.744 30.757-68.347 68.678-68.347h748.47c37.937 0 68.678 30.603 68.678 68.347V334.73c0 37.722-30.74 68.33-68.678 68.33H86.395c-37.92 0-68.678-30.608-68.678-68.33V90.483z" fill="#000268"/><path d="M45.904 92.822v239.59c0 23.583 19.225 42.71 42.94 42.71h392.13V50.113H88.844c-23.715 0-42.94 19.126-42.94 42.708zm536.39 118.6c0 15.253-7.545 25.737-20.037 25.737-11.035 0-20.234-10.485-20.234-24.454 0-14.34 8.09-25 20.234-25 12.878 0 20.036 11.03 20.036 23.715zM508.95 298.91h33.073v-52.023h.37c6.265 11.4 18.772 15.624 30.348 15.624 28.486 0 43.74-23.52 43.74-51.828 0-23.152-14.515-48.35-40.992-48.35-15.06 0-29.03 6.073-35.665 19.496h-.37v-17.273H508.95V298.91zm152.703-68.93c0-9.184 8.813-12.664 20.04-12.664 4.96 0 9.746.348 13.97.546 0 11.207-7.902 22.606-20.41 22.606-7.72 0-13.6-3.855-13.6-10.49zm66.714 30.33c-1.46-7.527-1.83-15.077-1.83-22.605v-35.66c0-29.223-21.13-39.713-45.582-39.713-14.146 0-26.46 2.024-38.23 6.81l.563 22.436c9.16-5.156 19.843-7.18 30.503-7.18 11.93 0 21.675 3.502 21.874 16.556-4.225-.74-10.12-1.302-15.448-1.302-17.63 0-49.436 3.502-49.436 32.72 0 20.78 16.904 30.14 35.836 30.14 13.6 0 22.8-5.312 30.332-17.28h.37c0 4.98.54 9.922.74 15.08h30.31zm14.885 38.6c6.805 1.478 13.6 2.223 20.58 2.223 30.334 0 37.492-23.35 46.868-47.435l35.12-89.143h-33.096l-19.667 62.49h-.37l-20.587-62.49h-35.643l38.776 97.956c-2.394 8.46-8.637 13.248-16.732 13.248-4.61 0-8.636-.562-13.053-2.024l-2.195 25.176z" fill="#fff"/><path d="M126.704 211.614c0-13.054 6.44-23.907 18.756-23.907 14.885 0 21.128 11.945 21.128 22.605 0 14.71-9.376 24.63-21.128 24.63-9.922 0-18.756-8.443-18.756-23.328zm71.87-47.06h-29.962v17.274h-.348c-7.004-11.77-18.41-19.496-32.55-19.496-29.77 0-43.192 21.343-43.192 49.828 0 28.308 16.363 48.15 42.625 48.15 13.252 0 24.282-5.156 32.18-16.362h.37v5.156c0 18.74-10.292 27.746-29.396 27.746-13.792 0-22.257-2.94-32.355-7.897l-1.654 26.107c7.705 2.763 20.76 6.073 36.58 6.073 38.6 0 57.704-12.69 57.704-52.03v-84.548zm55.916-39.883H221.4v24.26h33.09v-24.26zm-33.073 135.64h33.073v-95.755h-33.073v95.756zm125.195-96.87c-3.31-.54-7.357-1.108-11.207-1.108-14.338 0-22.605 7.727-28.308 19.865h-.37v-17.642H276.59v95.756h33.077v-40.424c0-18.756 8.653-29.962 24.084-29.962 3.872 0 7.53 0 11.207 1.086l1.655-27.57zm56.964 75.92c-15.254 0-21.497-12.685-21.497-26.83 0-14.34 6.242-27.024 21.496-27.024 15.27 0 21.52 12.685 21.52 27.023 0 14.145-6.25 26.83-21.52 26.83zm0 23.15c31.617 0 55.7-18.363 55.7-49.98 0-31.81-24.083-50.198-55.7-50.198-31.612 0-55.68 18.387-55.68 50.197 0 31.617 24.068 49.98 55.68 49.98z" fill="#ff0007"/></g></svg>