<svg xmlns="http://www.w3.org/2000/svg" viewBox="0 0 200 92"><path d="M0 46v46h200V0H0v46zm105 0v35H15.8l-2.9-2.9-2.9-2.9V16.8l2.9-2.9 2.9-2.9H105v35zm12-9c0 1.9.1 1.9 1.6.4 4.4-4.4 12.3-2.2 14.4 4 1.7 5.1.6 9.9-3.1 12.9-3.5 2.9-6.5 3.2-9.7 1-2.2-1.6-2.2-1.6-2.2 4v5.6l-3.8-.3-3.8-.3-.3-13.4c-.2-7.4-.1-14 .2-14.8.3-.7 1.9-1.3 3.5-1.3 2.5.2 3.2.6 3.2 2.2zm38.3.8c1.8 1.8 2.2 3.5 2.5 10.1l.4 8h-3.6c-2 0-3.6-.4-3.6-.9s-1.3-.2-2.8.6c-4.9 2.8-11.2-.3-11.2-5.6 0-3.8 2.9-6.1 8.9-6.8 4.3-.5 4.9-.8 3.9-2.1-.9-1.1-2.5-1.3-6-.9-4.3.5-4.8.3-4.8-1.4 0-2.6 3.5-4 9.4-3.5 3.3.3 5.5 1.1 6.9 2.5zm14.2 3.9c1.1 3.4 2.3 6.2 2.5 6.2s1.4-2.9 2.5-6.2c1.8-5.8 2.2-6.3 5.2-6.5 1.8-.2 3.2.1 3.2.7 0 3-9.5 24.9-11.6 26.8-3.2 2.9-10.4 3.3-10.4.6 0-2.4 1.6-4.7 2.7-4 .5.3 1.8 0 2.8-.7 1.8-1.3 1.7-1.7-1.8-10.7-2-5.1-4-10.2-4.4-11.1-.6-1.6-.2-1.8 3.2-1.5 4 .2 4.1.3 6.1 6.4z"/><path d="M48 29.5c0 2.2.4 2.5 3.5 2.5s3.5-.3 3.5-2.5-.4-2.5-3.5-2.5-3.5.3-3.5 2.5zM24.8 36.5c-5.6 3.1-6 14.2-.6 17.9 2.8 2 8.2 2 9.8.1 1.9-2.2 2.8-1.8 2.2 1-.7 3.4-3.7 4.8-8.9 4.1-4-.6-4.3-.4-4.3 1.8 0 2.7 2.1 3.6 8.3 3.6 4.9 0 9-2.1 10.5-5.5.7-1.5 1.2-7.1 1.2-13.1V36h-3c-2.1 0-3 .5-3 1.6 0 1.6-.1 1.6-1.8 0-2.7-2.3-7.3-2.8-10.4-1.1zm10.4 5.9c.4.6.8 2.3.8 3.8 0 2-.7 3.1-2.6 4-2.3 1.1-2.8.9-4.5-1.1-2.4-3-2.4-4.6.1-7.1 2-2 4.7-1.8 6.2.4zM68.6 37.1c-2.2 1.7-2.6 1.8-2.6.5 0-1.1-.9-1.6-3-1.6h-3v20h7v-5.3c0-6.2 2-9.7 5.6-9.7 2 0 2.4-.5 2.4-3 0-3.7-2.4-4-6.4-.9zM82.4 36.5c-4.2 1.8-6.4 5.1-6.4 9.6 0 9.7 13 14 20.7 6.8 1.8-1.7 2.3-3.3 2.3-6.9 0-5.1-2.1-8-7.3-9.9-3.6-1.4-5.5-1.3-9.3.4zm8.4 4.7c1.6 1.6 1.6 8 0 9.6-4.4 4.4-10-2.9-6.8-8.9 1.2-2.2 4.9-2.6 6.8-.7zM48 46v10h7V36h-7M119.1 42.4c-3 3.6.9 10.3 4.6 8 2-1.3 2.7-3.7 1.9-7-.7-2.8-4.5-3.4-6.5-1zM144.3 48.5c-.7 1.8.4 3.5 2.2 3.5 1.5 0 4.5-2.7 4.5-4.1 0-1.5-6-1-6.7.6z"/></svg>