<svg xmlns="http://www.w3.org/2000/svg" xmlns:xlink="http://www.w3.org/1999/xlink" viewBox="0 0 604.4 527"><style>.st0{display:none;} .st1{display:inline;} .st2{fill:#CD0067;} .st3{fill:#FFFFFF;}</style><g class="st0 st1" id="Layer_1"><defs><path id="SVGID_1_" d="M-101.1-101h822.4v740.1h-822.4z"/></defs><clipPath id="SVGID_2_"><use xlink:href="#SVGID_1_" overflow="visible"/></clipPath><g clip-path="url(#SVGID_2_)"><image width="111" height="100" xlink:href="F81582AEC0B0C0A7.jpg" transform="matrix(7.3097 0 0 7.3052 -98.363 -98.253)" overflow="visible"/></g></g><g id="Layer_2"><path d="M67.2 296.6h96.9v160.8H67.2z"/><ellipse cx="116.5" cy="216.2" rx="54.8" ry="54.8"/><path d="M347.5 0H0v527h347.5v-.1c75.9-1 136-19.9 178.7-56.2 51.9-44.2 78.2-113.9 78.2-207.2 0-44.6-6.9-84.6-20.6-118.9-13.1-32.8-32.4-60.7-57.4-82.9-44-39.1-105.8-60.3-179-61.5.1-.1.1-.2.1-.2zm-6.6 35c67.3 0 123.5 18.2 162.3 52.8 43.9 39 66.2 98.1 66.2 175.7 0 153.7-74.7 228.5-228.5 228.5H35V35h305.9z"/><path class="st2" d="M331.3 457.6H208.5v-380h122.8-5c102.5 0 211.5 40.4 211.5 190.5 0 158.7-109.1 189.5-211.5 189.5h5z"/></g><g id="Layer_3"><path class="st3" d="M187.3 175.7H221c7.6 0 13.4.6 17.4 1.7 5.4 1.6 10 4.4 13.8 8.4 3.8 4 6.7 9 8.7 14.8 2 5.8 3 13 3 21.6 0 7.5-.9 14-2.8 19.5-2.3 6.7-5.5 12-9.8 16.2-3.2 3.1-7.5 5.6-13 7.3-4.1 1.3-9.5 1.9-16.3 1.9h-34.7v-91.4zm18.5 15.5v60.4h13.8c5.2 0 8.9-.3 11.2-.9 3-.7 5.5-2 7.5-3.8 2-1.8 3.6-4.7 4.8-8.8 1.2-4.1 1.9-9.7 1.9-16.7 0-7.1-.6-12.5-1.9-16.2-1.2-3.8-3-6.7-5.2-8.8s-5.1-3.5-8.6-4.3c-2.6-.6-7.6-.9-15.2-.9h-8.3z"/><path class="st3" d="M184.8 173.2v96.4H222c7 0 12.8-.7 17.1-2.1 5.8-1.9 10.5-4.5 14-7.9 4.5-4.4 8-10.1 10.4-17.1 2-5.7 2.9-12.5 2.9-20.3 0-8.8-1.1-16.3-3.1-22.4-2.1-6.2-5.2-11.4-9.3-15.7-4.1-4.3-9.1-7.4-14.9-9.1-4.3-1.2-10.2-1.8-18.1-1.8h-36.2zm36.3 5c7.3 0 13 .6 16.7 1.6 4.9 1.4 9.2 4 12.7 7.7 3.6 3.8 6.3 8.4 8.2 13.9 1.9 5.6 2.9 12.6 2.9 20.8 0 7.2-.9 13.5-2.7 18.6-2.1 6.2-5.2 11.4-9.2 15.2-2.9 2.8-6.9 5.1-12 6.7-3.8 1.2-9 1.8-15.6 1.8h-32.2v-86.4c4.2.1 31.2.1 31.2.1z"/><path class="st3" d="M203.3 188.7v65.4h16.3c5.4 0 9.3-.3 11.8-.9 3.4-.8 6.2-2.3 8.5-4.4 2.3-2.1 4.2-5.4 5.6-9.9 1.3-4.4 2-10.1 2-17.4 0-7.4-.7-13-2-17-1.4-4.2-3.4-7.5-5.9-9.9-2.6-2.4-5.9-4.1-9.7-4.9-2.8-.6-7.9-.9-15.7-.9h-10.9zm10.8 5c9.1 0 13 .4 14.6.8 3 .7 5.5 1.9 7.4 3.7 1.9 1.8 3.5 4.4 4.6 7.8 1.2 3.5 1.7 8.7 1.7 15.5 0 6.8-.6 12.1-1.8 16-1.1 3.6-2.5 6.2-4.1 7.7-1.7 1.5-3.8 2.6-6.4 3.2-2.1.5-5.6.8-10.6.8h-11.3v-55.4c2.5-.1 5.9-.1 5.9-.1zM284.8 267.1v-91.4h67.7v15.5h-49.2v20.2h45.8V227h-45.8v24.7h51v15.5h-69.5z"/><path class="st3" d="M282.3 173.2v96.4h74.4v-20.5h-51v-19.7h45.8V209h-45.8v-15.2h49.2v-20.5h-72.6zm67.7 5v10.5h-49.2V214h45.8v10.5h-45.8v29.7h51v10.5h-64.4v-86.4c4.4-.1 58.1-.1 62.6-.1z"/><g><path class="st3" d="M457.5 267.1h-20.1l-8-20.8h-36.5l-7.6 20.8h-19.6l35.5-91.4h19.7l36.6 91.4zm-34-36.2L410.9 197l-12.4 33.9h25z"/><path class="st3" d="M399.6 173.2l-37.5 96.4h25s6.6-18 7.6-20.8h33.1c1 2.7 8 20.8 8 20.8h25.5l-38.6-96.4h-23.1zm19.6 5c1.2 2.9 32.1 80.2 34.6 86.4h-14.7c-1-2.7-8-20.8-8-20.8h-40s-6.6 18-7.6 20.8h-14.2c2.4-6.2 32.4-83.5 33.6-86.4h16.3z"/><path class="st3" d="M395 233.4h32.1l-16.2-43.6-15.9 43.6zm15.9-29.2c2.7 7.4 7.4 19.8 9 24.1h-17.8c1.6-4.2 6.1-16.7 8.8-24.1z"/></g><g><path class="st3" d="M472.9 267.1v-90.7h18.4v75.2h45.9v15.5h-64.3z"/><path class="st3" d="M470.4 174v95.7h69.4v-20.5h-45.9V174h-23.5zm18.5 5v75.2h45.9v10.5h-59.4V179h13.5z"/></g></g></svg>