<svg xmlns="http://www.w3.org/2000/svg" width="112.498mm" height="86.669mm" viewBox="0 0 112.498 86.669" shape-rendering="geometricPrecision" text-rendering="geometricPrecision" image-rendering="optimizeQuality" fill-rule="evenodd" clip-rule="evenodd"><defs><style><![CDATA[
    .fil0 {fill:white}
    .fil1 {fill:url(#id0)}
    .fil3 {fill:url(#id1)}
    .fil2 {fill:url(#id2)}
   ]]></style><linearGradient id="id0" gradientUnits="userSpaceOnUse" x1="75.414" y1="43.335" x2="106.25" y2="43.335"><stop offset="0" stop-color="#007B40"/><stop offset="1" stop-color="#55B330"/></linearGradient><linearGradient id="id1" gradientUnits="userSpaceOnUse" x1="40.833" y1="43.335" x2="71.666" y2="43.335"><stop offset="0" stop-color="#6E2B2F"/><stop offset="1" stop-color="#E30138"/></linearGradient><linearGradient id="id2" gradientUnits="userSpaceOnUse" x1="6.249" y1="43.335" x2="37.081" y2="43.335"><stop offset="0" stop-color="#1D2970"/><stop offset="1" stop-color="#006DBA"/></linearGradient></defs><g id="Layer_x0020_1"><path class="fil0" d="M112.498 69.17c0 9.663-7.832 17.5-17.498 17.5H0V17.5C0 7.837 7.833 0 17.5 0h94.998v69.17z"/><path class="fil1" d="M81.526 44.854h7.299l.12.006c.04.002.08.004.122.008.04.002.08.006.12.01.04.003.082.007.12.012l.122.014.12.018.073.014.048.01c.04.01.082.02.122.032.04.01.08.023.12.036l.12.04c.04.015.082.03.122.047l.12.054c.04.018.08.037.12.058.04.02.082.042.12.064.042.023.082.047.122.072.04.025.08.05.12.08.042.027.082.055.12.085.042.03.083.063.122.096.04.033.08.068.12.105.042.037.082.076.12.116.043.043.083.087.122.13.04.05.082.097.12.147.042.054.083.11.12.165.043.062.084.126.122.19.043.075.083.15.12.23.045.09.085.186.12.283.05.132.09.268.122.408.055.244.085.5.085.768 0 .27-.03.528-.086.772-.032.14-.073.278-.12.41-.037.097-.077.192-.122.285-.037.078-.077.153-.12.227-.038.066-.078.13-.12.19-.04.058-.08.113-.12.167-.04.05-.08.1-.122.146-.04.045-.08.088-.12.13-.04.04-.08.08-.12.117-.04.036-.08.07-.122.105l-.12.096c-.04.03-.08.058-.12.086-.04.027-.08.053-.122.078-.04.025-.08.05-.12.07-.04.024-.08.045-.12.066-.04.02-.08.04-.122.058-.04.018-.08.035-.12.05-.04.017-.08.033-.12.047l-.122.04c-.04.013-.08.024-.12.035l-.12.03-.05.01c-.02.006-.045.01-.072.016l-.12.02-.12.014c-.04.005-.08.01-.12.012l-.122.01-.12.008-.12.004H81.525v-6.594zm9.714-7.464c.048.222.074.456.074.703 0 .246-.026.48-.074.702-.03.142-.072.28-.12.41-.037.095-.077.188-.122.277-.037.075-.077.148-.12.218-.038.062-.08.123-.12.18-.04.055-.08.106-.12.157-.04.046-.08.092-.122.136l-.12.12-.12.108c-.04.034-.08.066-.122.097-.04.03-.08.06-.12.087l-.12.078c-.04.025-.08.048-.122.07-.04.023-.08.044-.12.064-.04.02-.08.04-.12.057-.04.018-.08.034-.122.05l-.12.045-.12.04c-.04.01-.08.023-.122.033-.04.012-.08.02-.12.03-.04.01-.08.017-.12.024l-.03.005-.09.013c-.037.004-.078.01-.122.013-.038.004-.08.008-.12.01-.04.005-.08.008-.12.01l-.122.007c-.042 0-.082.002-.12.003H81.525V35.05H88.153l.07.002.12.007c.04 0 .082.004.12.008l.122.01.12.013.092.013.03.005.12.024.12.03c.04.01.08.02.12.034.042.012.082.025.122.04.04.013.08.028.12.044l.12.05.122.058c.04.02.08.04.12.063l.12.072c.042.025.082.05.122.078l.12.087c.04.03.08.063.12.097.042.034.082.07.12.107.043.04.083.08.122.122.042.044.082.09.12.136.042.05.083.102.12.156.043.058.084.118.122.18.043.07.083.144.12.22.045.088.085.18.12.276.05.13.09.268.122.41zM106.2 5.834h.05v62.5c0 .375-.018.744-.05 1.11-.028.32-.07.638-.12.952-.036.21-.076.42-.12.627-.038.17-.078.336-.122.502-.038.143-.078.286-.12.427l-.12.38c-.04.114-.08.228-.122.34l-.12.313-.12.29c-.04.09-.08.18-.122.27l-.12.257-.12.24c-.04.078-.08.154-.122.23l-.12.217-.12.207-.122.2-.12.192-.12.183c-.04.06-.08.117-.122.176l-.12.17-.12.166-.122.16-.12.154-.12.15c-.04.048-.08.096-.122.144l-.12.142-.12.136c-.04.044-.08.09-.122.133l-.12.13-.12.124c-.04.04-.08.082-.122.122l-.12.118-.12.116-.12.112-.122.11-.12.107-.12.104-.122.1c-.04.035-.08.067-.12.1l-.12.097-.122.094-.12.093-.12.09-.122.087c-.04.03-.08.057-.12.085l-.12.083c-.04.028-.082.054-.122.08-.04.028-.08.054-.12.08l-.12.077-.122.076-.12.074-.12.07c-.04.024-.08.048-.122.07-.04.024-.08.046-.12.068l-.12.067c-.04.02-.082.04-.122.063l-.12.063-.12.06-.122.06c-.04.02-.08.04-.12.058l-.12.056-.122.055-.12.053-.12.052-.122.05-.12.05-.12.045-.122.046-.12.045c-.04.015-.08.03-.12.043l-.122.042-.12.04-.12.038-.122.038-.12.036c-.04.01-.08.024-.12.035l-.122.033-.12.032-.12.03-.122.03-.12.03-.12.025c-.04.01-.08.018-.122.026l-.12.025-.12.023-.12.023-.122.02-.12.02-.12.018-.122.018-.12.017-.12.014c-.042.004-.082.01-.122.013-.04.004-.08.01-.12.012-.04.004-.08.008-.12.01-.042.005-.082.01-.122.012l-.12.008-.12.008-.122.007-.12.005-.12.004-.122.002c-.04 0-.08 0-.12.002l-.12.002H75.413V55.352H94.86l.12-.002.12-.002.12-.003.12-.005.122-.006.12-.007.12-.01.122-.008.12-.012.12-.012.122-.014.12-.014.12-.016.122-.018.12-.018.12-.02.122-.022.12-.023.12-.024.122-.026.12-.028.12-.03.122-.03c.04-.01.08-.02.12-.032.04-.01.08-.023.12-.035.04-.01.082-.023.122-.036l.12-.038.12-.04.122-.04.12-.045.12-.045.122-.048c.04-.016.08-.032.12-.05l.12-.05c.04-.02.082-.037.122-.056l.12-.056.12-.06.12-.06.122-.065.12-.067.12-.07.122-.073c.04-.025.08-.05.12-.077.04-.026.082-.053.12-.08l.122-.084.12-.088c.04-.03.082-.06.12-.092.042-.03.082-.063.122-.096l.12-.1.12-.107c.042-.037.082-.075.122-.113l.12-.118c.042-.042.082-.083.12-.126.042-.044.082-.088.122-.133l.12-.142c.042-.05.082-.1.12-.15.042-.054.083-.108.122-.163l.12-.177c.042-.064.082-.128.12-.193.043-.07.083-.14.122-.212.042-.078.082-.157.12-.238.043-.09.083-.18.12-.273.045-.106.085-.213.122-.323.045-.134.085-.27.12-.41.052-.206.092-.415.12-.63.036-.26.055-.53.055-.805 0-.268-.02-.53-.054-.782-.028-.208-.068-.41-.12-.608-.035-.134-.075-.266-.12-.396-.037-.107-.077-.21-.12-.314l-.12-.263c-.04-.077-.08-.154-.122-.23l-.12-.205-.12-.185c-.04-.058-.08-.115-.122-.17l-.12-.158-.12-.146c-.04-.047-.08-.093-.122-.138l-.12-.13-.12-.12-.122-.114-.12-.108c-.04-.035-.08-.07-.12-.103l-.122-.098-.12-.094c-.04-.03-.08-.06-.12-.088-.04-.03-.08-.057-.122-.085-.04-.028-.08-.055-.12-.08-.04-.028-.08-.053-.12-.08-.04-.024-.08-.05-.122-.073-.04-.024-.08-.048-.12-.07l-.12-.07-.122-.064-.12-.062-.12-.06c-.04-.02-.08-.04-.122-.058l-.12-.054-.12-.053-.122-.052-.12-.048c-.04-.016-.08-.03-.12-.047-.04-.015-.08-.03-.122-.044-.04-.015-.08-.03-.12-.043-.04-.014-.08-.028-.12-.04l-.122-.04-.12-.037-.12-.035-.122-.034-.12-.03-.12-.03-.122-.03c-.04-.01-.08-.02-.12-.028-.04-.01-.08-.017-.12-.026l-.122-.024-.12-.023-.12-.023-.122-.02-.12-.02c-.04-.006-.08-.01-.12-.017l-.122-.016-.12-.016-.12-.013-.12-.013-.122-.01-.12-.01-.112-.01v-.144l.11-.018.122-.02.12-.02.12-.024.122-.025.12-.025.12-.028.122-.03c.04-.01.08-.02.12-.032.04-.01.08-.022.12-.034.042-.01.082-.022.122-.034l.12-.038.12-.04c.042-.013.082-.027.122-.042l.12-.044.12-.046c.042-.016.082-.032.122-.05.04-.015.08-.032.12-.05l.12-.054c.042-.018.082-.037.122-.056l.12-.06c.04-.02.08-.04.12-.062l.122-.066c.04-.022.08-.045.12-.07.04-.022.08-.046.12-.07l.122-.076.12-.08.12-.084.122-.088c.04-.03.08-.06.12-.092l.12-.098c.042-.034.082-.07.12-.103.042-.036.083-.073.122-.11l.12-.116c.042-.04.082-.08.12-.12.043-.044.083-.088.122-.132l.12-.14c.042-.05.082-.1.12-.15.043-.053.083-.107.122-.162.042-.057.082-.116.12-.175.042-.062.083-.126.12-.19.043-.07.084-.142.122-.214.042-.08.083-.158.12-.24.044-.09.084-.182.12-.275.045-.107.085-.217.122-.33.046-.138.086-.28.12-.425.056-.233.097-.472.12-.714.02-.19.03-.385.03-.58 0-.208-.01-.41-.03-.606-.024-.25-.064-.494-.12-.73-.034-.145-.074-.288-.12-.428-.037-.11-.077-.22-.12-.328-.038-.093-.08-.184-.12-.273-.04-.08-.08-.158-.122-.235l-.12-.208-.12-.188c-.04-.057-.08-.114-.122-.17l-.12-.157-.12-.146c-.04-.044-.08-.09-.122-.133l-.12-.126-.12-.118c-.04-.037-.08-.075-.122-.11l-.12-.107-.12-.1-.122-.093-.12-.09-.12-.084c-.04-.027-.08-.054-.122-.08l-.12-.078c-.04-.024-.08-.05-.12-.073l-.122-.07-.12-.066c-.04-.02-.08-.04-.12-.062l-.122-.06-.12-.06-.12-.054-.122-.052-.12-.05-.12-.048-.122-.046-.12-.044c-.04-.014-.08-.028-.12-.04-.04-.015-.08-.028-.122-.04l-.12-.038-.12-.036-.122-.034-.12-.032-.12-.03-.122-.03-.12-.027-.12-.026-.12-.023-.122-.023-.12-.02c-.04-.008-.08-.014-.12-.02l-.122-.02-.12-.016-.12-.016-.122-.014-.12-.013-.12-.013-.122-.01-.12-.01-.12-.008-.122-.007-.048-.003-.073-.004-.12-.007-.12-.007-.122-.006-.12-.006-.12-.005-.122-.006-.12-.003-.12-.002-.12-.002H75.412v-12.98c0-.874.09-1.726.26-2.55.037-.175.078-.35.12-.523.04-.15.08-.296.122-.442.038-.13.078-.26.12-.388l.12-.35c.04-.108.08-.215.122-.32l.12-.297.12-.276c.04-.087.08-.174.122-.26l.12-.243.12-.23c.04-.075.08-.148.122-.22l.12-.212.12-.202c.04-.065.08-.13.122-.194l.12-.186.12-.18c.04-.057.08-.115.122-.172l.12-.166.12-.16c.04-.053.08-.106.122-.158l.12-.15.12-.146c.04-.047.08-.095.122-.142l.12-.137.12-.135.122-.13.12-.126.12-.123.122-.12.12-.118.12-.112c.04-.037.08-.075.122-.11l.12-.108.12-.106.122-.102.12-.1.12-.097.122-.094.12-.093.12-.09c.04-.03.08-.06.12-.088l.122-.086.12-.083.12-.082.122-.08.12-.076.12-.076.122-.074c.04-.024.08-.048.12-.07.04-.025.08-.05.12-.072l.122-.068.12-.067.12-.064c.042-.02.082-.043.122-.064.04-.02.08-.04.12-.062l.12-.06.122-.058c.04-.02.08-.038.12-.056.04-.02.08-.038.12-.056l.122-.053.12-.052.12-.05.122-.05.12-.047.12-.046.122-.045c.04-.015.08-.03.12-.043l.12-.042.122-.04.12-.04.12-.037c.04-.013.082-.024.122-.036l.12-.036c.04-.01.08-.02.12-.032l.122-.033.12-.03.12-.03.122-.03c.04-.01.08-.017.12-.026l.12-.028.122-.024.12-.024.12-.023c.04-.006.08-.012.122-.02l.12-.02.12-.018c.04-.006.08-.01.122-.017l.12-.017.12-.014.122-.014.12-.014.12-.01.12-.01.122-.01.12-.008.12-.007c.042 0 .082-.003.122-.004l.12-.005.12-.003h.122l.12-.003H106.2z"/><path class="fil2" d="M6.508 49.33c-.086-.04-.172-.08-.26-.123V18.335c0-.87.09-1.72.26-2.54.036-.178.077-.352.12-.526.038-.15.078-.296.12-.443l.12-.388c.04-.12.08-.236.122-.352l.12-.32.12-.297.12-.274c.04-.087.08-.173.122-.26l.12-.242.12-.232.12-.22.12-.21c.04-.07.08-.136.122-.203l.12-.194.12-.185.12-.178c.04-.058.08-.117.122-.174l.12-.165.12-.16.12-.158.12-.15c.04-.05.08-.098.122-.146.04-.05.08-.096.12-.144l.12-.136.12-.135.12-.13.122-.126.12-.124.12-.12.12-.117c.04-.04.08-.076.122-.113.04-.037.08-.075.12-.11.04-.038.08-.073.12-.108l.12-.107.12-.102.122-.1c.04-.03.08-.063.12-.096l.12-.095.12-.093.122-.09.12-.088c.04-.03.08-.06.12-.087l.12-.084.12-.082.122-.08.12-.078.12-.075.12-.074.122-.07.12-.072.12-.067.12-.066.12-.065.122-.064.12-.06.12-.06.12-.06c.04-.02.08-.038.122-.056.04-.02.08-.038.12-.056l.12-.053c.04-.016.08-.034.12-.052l.12-.05.122-.05.12-.047.12-.044.12-.046c.04-.015.08-.028.122-.042.04-.015.08-.03.12-.043l.12-.04.12-.04.12-.038.122-.035.12-.036.12-.034.12-.032.12-.032.122-.03.12-.03.12-.025.12-.027.122-.025.12-.022.12-.023.12-.02.12-.02.122-.02.12-.017.12-.017.12-.014.122-.014.12-.014.12-.01.12-.01c.04-.005.08-.008.12-.01.04-.004.082-.006.122-.008l.12-.008.12-.006.12-.004.122-.005h.12l.12-.003H37.08v62.502c0 .543-.033 1.08-.1 1.604-.033.253-.074.503-.12.75-.037.19-.077.377-.122.563-.037.156-.077.31-.12.465-.038.135-.078.27-.12.403l-.12.36-.12.328c-.04.102-.08.202-.122.303l-.12.282-.12.264-.12.248c-.04.08-.08.157-.122.235l-.12.223-.12.215-.12.204-.12.194c-.04.063-.08.126-.122.188l-.12.182-.12.174-.12.168c-.04.054-.08.11-.122.163l-.12.158-.12.152-.12.148-.12.143c-.04.047-.08.094-.122.14l-.12.135-.12.13-.12.13-.122.122-.12.12-.12.12-.12.112-.12.112-.122.107-.12.106-.12.102c-.04.034-.08.068-.12.1l-.12.1c-.042.03-.08.063-.122.095l-.12.092-.12.092-.12.088c-.04.03-.08.058-.122.087l-.12.083-.12.084c-.04.025-.08.05-.12.078l-.12.08-.122.074-.12.075-.12.072-.12.07-.122.07c-.04.02-.08.044-.12.066l-.12.065-.12.065-.12.062-.122.06-.12.06c-.04.02-.08.037-.12.056-.04.02-.08.038-.12.056l-.122.053-.12.052-.12.05c-.04.018-.08.034-.12.05l-.12.05-.122.045-.12.046c-.04.015-.08.03-.12.043l-.12.042-.122.04-.12.04-.12.04-.12.035-.12.036-.122.034-.12.033-.12.033-.12.03c-.04.01-.08.02-.12.028l-.122.03-.12.025-.12.027-.12.023-.122.023-.12.02c-.04.008-.08.015-.12.02-.04.008-.08.015-.12.02-.04.008-.08.013-.12.02l-.122.015-.12.016c-.04.004-.08.01-.12.013l-.12.014-.122.012-.12.01-.12.01-.12.007-.12.008-.122.006-.12.006-.12.005-.12.003h-.122l-.11.003H6.247V54.492l.26.067.12.03.12.03.12.028.122.028.12.028.12.028.12.027.122.026.12.026.12.026.12.026.12.025.122.024.12.025.12.023.12.025.122.023.12.025.12.023.12.023.12.023.122.023.12.022.12.02.12.023.12.022.122.02.12.02.12.022.12.02.122.02.12.02.12.018.12.02.12.018.122.018.12.02.12.016.12.018.122.017.12.017.12.016.12.017.12.016.122.016.12.016.12.016.12.015.122.014.12.015.12.013.12.014.12.015.122.013.12.014.12.012.12.013.122.013.12.012.12.012.12.012.12.012.122.01.12.012.12.01.12.012.122.01.12.01.12.01.12.01.12.01.122.008.12.01.12.007.12.01.12.006.122.01.12.007.12.007.12.007.122.007.12.007.12.006.12.006.12.005.122.007.12.005.12.005.12.004.122.005.12.004.12.003.12.003.12.003.122.002.12.003.12.002.12.002h.122l.12.002h.12l.12.002h.602l.122-.002h.12l.12-.003.12-.003.12-.002.122-.002.12-.003.12-.004.12-.004.12-.004.122-.004.12-.005.12-.006.12-.005.122-.007.12-.007.12-.006.12-.007.12-.007.122-.008.12-.01.12-.008.12-.008.122-.01.12-.01.12-.01.12-.01.12-.013.122-.013.12-.012.12-.012.12-.014.122-.015.12-.014.12-.013.12-.016.12-.015.122-.016.12-.018.12-.018.12-.018.122-.018.12-.02c.04-.005.08-.013.12-.02l.12-.02.12-.02.122-.022.12-.023.12-.022.12-.023.12-.024.122-.025.12-.025c.04-.01.08-.02.12-.028l.12-.027c.04-.01.082-.018.122-.027.04-.008.08-.02.12-.028l.12-.03.12-.03.12-.03.122-.033.12-.034c.04-.01.08-.022.12-.034l.12-.035c.04-.01.082-.023.122-.035l.12-.037.12-.037.12-.038.12-.04.122-.04.12-.042.12-.044.12-.043.122-.044c.04-.015.08-.03.12-.047l.12-.048.12-.05.12-.05.122-.05.12-.055.12-.054.12-.056.122-.058.12-.06.12-.06.12-.063c.042-.02.08-.043.12-.065l.122-.066.12-.068.12-.07c.04-.025.08-.05.12-.073l.122-.075c.04-.026.08-.05.12-.077l.12-.08.12-.08.12-.087.122-.087c.04-.03.08-.06.12-.092l.12-.093.12-.097c.042-.034.082-.067.12-.1l.122-.105.12-.11.12-.11c.042-.04.082-.078.12-.118.042-.04.082-.08.122-.122l.12-.126.12-.134.12-.14c.042-.047.082-.095.12-.144.042-.052.083-.103.122-.154l.12-.162.12-.17c.042-.06.082-.12.12-.182.042-.064.082-.128.122-.192l.12-.206c.04-.073.082-.147.12-.222.042-.08.082-.16.12-.24.043-.087.083-.174.12-.263.043-.096.084-.193.122-.29.042-.107.082-.216.12-.325.043-.123.083-.25.12-.375.044-.147.085-.296.12-.446.047-.187.087-.375.122-.566.05-.284.09-.572.12-.865.04-.407.06-.822.06-1.243V31.316H23.76V45.82c0 .227-.01.45-.03.67-.024.278-.064.55-.12.815-.034.164-.074.324-.12.48-.037.127-.077.25-.12.372-.038.103-.078.204-.12.305l-.12.264c-.04.08-.08.157-.122.234-.038.07-.08.14-.12.208l-.12.19-.12.175c-.04.054-.08.11-.12.162-.04.05-.08.1-.122.148l-.12.14-.12.13-.12.122c-.04.038-.08.077-.122.114l-.12.107c-.04.034-.08.068-.12.1-.04.034-.08.066-.12.097l-.12.09c-.04.03-.08.058-.122.086l-.12.082-.12.076c-.04.025-.08.05-.12.073l-.122.07-.12.065-.12.06-.12.06c-.04.02-.08.037-.12.055-.04.018-.08.036-.122.053l-.12.05-.12.046-.12.043-.122.042-.12.04c-.04.01-.08.023-.12.035l-.12.034-.12.033-.122.03c-.04.01-.08.02-.12.028-.04.01-.08.017-.12.026-.04.01-.08.017-.12.025l-.122.022-.12.02-.12.02-.12.015-.12.015-.122.014-.12.012-.12.01-.12.01c-.04 0-.08.004-.122.006l-.12.005-.12.004-.12.003h-.12l-.047.002h-.074l-.12-.002h-.12l-.12-.004-.12-.003-.122-.004-.12-.006-.12-.005-.12-.007-.122-.008-.12-.007-.12-.01-.12-.008-.12-.01-.122-.01-.12-.013-.12-.012-.12-.013-.122-.014-.12-.014-.12-.016-.12-.016-.12-.016-.122-.018-.12-.018-.12-.02-.12-.018-.122-.02-.12-.02-.12-.023-.12-.023-.12-.023-.122-.024-.12-.025-.12-.025-.12-.025-.122-.027-.12-.027-.12-.027-.12-.028-.12-.03-.122-.03-.12-.03-.12-.03-.12-.033-.12-.032-.122-.033-.12-.034-.12-.034-.12-.036-.122-.036-.12-.036-.12-.037-.12-.038-.12-.038-.122-.04-.12-.04-.12-.04-.12-.04-.122-.04-.12-.043-.12-.042-.12-.043-.12-.044-.122-.044-.12-.045-.12-.046-.12-.046-.122-.047-.12-.046-.12-.048-.12-.048-.12-.05-.122-.048-.12-.05-.12-.05-.12-.052-.122-.05-.12-.053-.12-.053-.12-.053-.12-.055-.122-.054-.12-.054-.12-.056-.12-.056-.12-.056-.122-.057z"/><path class="fil3" d="M41.09 34.485c-.087.07-.173.143-.257.215V18.335c0-.87.09-1.72.258-2.54.038-.176.078-.35.122-.524.037-.148.077-.295.12-.442.038-.13.078-.26.12-.39l.12-.35.12-.32c.04-.1.08-.198.122-.296l.12-.275.12-.258.12-.245c.04-.078.08-.155.122-.23l.12-.222.12-.21.12-.203.12-.193c.04-.062.08-.124.122-.185l.12-.18.12-.173.12-.166c.04-.054.08-.108.122-.16l.12-.158.12-.15.12-.146.12-.142.122-.137.12-.134.12-.13.12-.126.122-.123.12-.12.12-.117.12-.112c.04-.037.08-.075.12-.11.04-.037.082-.073.122-.108l.12-.106.12-.102.12-.1c.04-.032.08-.065.122-.097l.12-.095c.04-.03.08-.06.12-.092l.12-.09c.04-.03.08-.06.12-.088.04-.03.08-.058.122-.086l.12-.084.12-.082.12-.08.122-.077.12-.074.12-.075.12-.07c.04-.024.08-.048.12-.07.04-.024.082-.046.122-.068l.12-.068c.04-.02.08-.042.12-.064l.12-.063.122-.062.12-.06c.04-.02.08-.04.12-.058l.12-.057.12-.056.122-.052.12-.053c.04-.018.08-.034.12-.05l.12-.05.122-.048.12-.046.12-.046.12-.042c.04-.014.08-.03.12-.042l.122-.04.12-.04.12-.038.12-.036.122-.036.12-.033.12-.033c.04-.01.08-.02.12-.032l.12-.03c.04-.01.082-.02.122-.028l.12-.027.12-.026c.04-.01.08-.018.12-.026l.122-.022.12-.023.12-.02.12-.02.12-.02c.04-.006.082-.01.122-.017l.12-.017.12-.014.12-.014.122-.014.12-.01.12-.01c.04-.004.08-.008.12-.01.04-.004.08-.006.12-.008l.122-.008.12-.005.12-.005c.04 0 .08-.004.12-.005h.122l.12-.003H71.664v62.502c0 .543-.035 1.078-.102 1.604-.033.252-.073.503-.12.75-.037.19-.077.377-.12.562-.038.156-.078.312-.122.466-.037.135-.078.27-.12.402-.038.12-.08.24-.12.36l-.12.328-.12.302c-.04.094-.08.188-.122.28l-.12.265-.12.248-.12.236c-.04.074-.08.15-.122.223l-.12.214-.12.204-.12.196-.12.188c-.04.06-.08.122-.122.182l-.12.173-.12.167-.12.163-.12.158-.122.15-.12.15-.12.142-.12.14-.122.135-.12.13-.12.128-.12.123-.12.12-.122.12-.12.113-.12.11-.12.11-.122.106-.12.102c-.04.033-.08.068-.12.1-.04.034-.08.066-.12.098-.04.032-.08.065-.122.096l-.12.093-.12.09-.12.09-.12.086c-.04.03-.082.057-.122.085l-.12.083-.12.08-.12.08c-.04.024-.08.05-.122.074l-.12.075-.12.072c-.04.022-.08.046-.12.07l-.12.068-.122.068-.12.065-.12.065c-.04.02-.08.04-.12.062l-.122.06-.12.06c-.04.02-.08.037-.12.056-.04.02-.08.038-.12.056l-.12.052-.122.053-.12.05-.12.05-.12.05-.122.045-.12.046c-.04.015-.08.03-.12.043l-.12.042-.12.04-.122.04-.12.04-.12.035-.12.036-.122.034-.12.033-.12.032-.12.03-.12.03-.122.027-.12.025c-.04.01-.08.018-.12.026-.04.01-.08.017-.12.025l-.122.023-.12.02c-.04.008-.08.015-.12.02-.04.008-.08.015-.12.02l-.12.02-.122.015-.12.016c-.04.004-.08.01-.12.013l-.12.014-.122.012-.12.01-.12.01-.12.007-.12.008-.122.007c-.04 0-.08.003-.12.004l-.12.005-.12.003-.122.002H40.832v-28.86c.085.072.17.143.26.214.04.03.08.063.12.095.04.03.08.063.12.094l.12.09.12.09.12.085c.04.03.08.057.122.085l.12.083.12.08.12.078c.04.027.08.053.122.078l.12.075.12.073.12.072.12.07.122.068.12.067.12.065c.04.02.08.043.12.064.04.02.08.042.122.062l.12.06.12.06.12.06.12.057.122.057.12.055.12.053.12.053.122.05.12.05.12.05.12.05.12.046.122.046.12.046.12.044c.04.014.08.03.12.043.04.015.08.028.122.042l.12.042.12.04c.04.014.08.028.12.04l.12.04.122.038.12.037.12.037.12.035.122.035.12.034.12.034.12.032.12.033.122.03.12.032.12.03.12.03.122.028.12.028.12.03.12.026.12.026.122.026.12.025.12.025.12.023.122.025.12.022.12.023.12.022.12.02.122.02.12.02.12.02.12.02.122.02.12.017.12.017.12.017.12.017.122.017.12.016.12.015.12.015.122.015.12.013.12.015.12.013.12.013.122.013.12.012.12.01.12.013.122.01.12.01.12.01.12.01.12.01.122.008.12.008.12.01.12.007.122.008.12.007.12.006.12.007.12.006.122.006.12.004.12.005.12.004.122.004.12.004.12.004.12.003.12.002.122.003.12.002.12.002h.12l.122.002h.12l.12.002h.844l.12-.003h.12l.12-.002.12-.003.122-.002.12-.003.12-.003.12-.003.122-.003.12-.003.12-.004.12-.004.12-.006.122-.005.12-.006.12-.005.06-.003.06-.003.122-.006.12-.006.12-.007.12-.007.12-.008.122-.008.12-.008.12-.01.12-.008.122-.01.12-.01.12-.01.12-.01.122-.01.12-.012.12-.012.12-.012.12-.012.122-.013.12-.013.12-.013.12-.015.122-.013.12-.015.12-.014.12-.015.12-.015.122-.015.12-.016.12-.016.12-.016.122-.017.12-.017.12-.017.12-.018.12-.018.122-.017.12-.02.12-.017.12-.02.122-.018.12-.02.12-.018.12-.02.12-.02.122-.02.12-.02.12-.02.12-.022.122-.02.12-.022.12-.022.12-.022.12-.022.122-.022.12-.022.12-.023.12-.023.122-.023.12-.023.12-.024.12-.024.12-.025.122-.024.12-.024.12-.025.12-.024.122-.025.12-.025.12-.026.12-.027.12-.026.122-.027.12-.027.12-.027.12-.028.122-.028.12-.028.12-.03.12-.028.12-.03v-5.287l-.12.06-.12.06-.12.058-.12.058-.12.058-.12.06-.122.055-.12.056-.12.057-.12.055-.122.054-.12.054-.12.053-.12.052-.12.052-.122.052-.12.05-.12.05-.12.048-.122.05-.12.047-.12.047-.12.047-.12.045-.122.045-.12.045-.12.044-.12.042-.122.042-.12.042-.12.04-.12.042-.12.04-.122.04-.12.037-.12.038-.12.037-.122.037-.12.035-.12.035-.12.035-.12.033-.122.033-.12.033-.12.032-.12.03-.122.03-.12.03-.12.03-.12.028-.12.027-.122.027-.12.027-.12.026-.12.025-.122.025-.12.024-.12.02-.12.023-.12.022-.122.02-.12.02-.12.02-.12.02-.122.017-.12.018-.12.017-.12.016-.12.016-.122.014-.12.014-.12.014-.12.013-.122.012-.12.012-.12.01-.12.01-.12.01-.074.006-.048.003-.12.007-.12.008-.12.007-.122.006-.12.006-.12.003-.12.004-.12.004-.122.002h-.482l-.12-.004-.12-.003-.12-.006-.12-.005-.122-.008-.12-.007-.12-.008-.12-.01-.122-.01-.12-.012-.12-.012-.12-.014-.12-.015-.122-.016-.12-.018-.12-.018-.12-.02-.122-.02-.12-.023-.12-.02c-.04-.01-.08-.018-.12-.026-.04-.01-.082-.017-.12-.026l-.122-.027-.12-.028-.12-.03-.12-.03-.122-.035c-.04-.01-.08-.022-.12-.034l-.12-.036-.12-.038-.12-.04-.122-.042c-.04-.014-.08-.03-.12-.043l-.12-.044c-.04-.015-.08-.03-.12-.047-.04-.016-.082-.03-.122-.048l-.12-.05-.12-.053-.12-.056c-.04-.02-.082-.037-.12-.057l-.122-.06c-.04-.02-.08-.04-.12-.062-.04-.02-.08-.042-.12-.064l-.12-.067-.122-.07-.12-.072-.12-.076c-.04-.027-.08-.052-.12-.08-.042-.026-.08-.053-.12-.08l-.122-.086-.12-.088-.12-.093-.12-.097c-.042-.033-.082-.066-.122-.1l-.12-.106-.12-.11-.12-.115-.122-.12c-.04-.04-.08-.084-.12-.127l-.12-.133-.12-.14c-.042-.05-.082-.098-.12-.147-.042-.052-.082-.104-.122-.156l-.12-.165-.12-.176c-.042-.06-.082-.124-.12-.187-.042-.066-.082-.134-.122-.202l-.12-.216-.12-.236c-.042-.085-.082-.17-.12-.258-.042-.093-.083-.188-.12-.284-.044-.106-.083-.214-.122-.323-.042-.12-.083-.244-.12-.37-.044-.143-.084-.29-.12-.44-.046-.186-.086-.376-.12-.57-.053-.287-.093-.582-.122-.885-.032-.35-.05-.71-.05-1.08 0-.372.018-.733.05-1.083.03-.303.07-.598.12-.886.036-.194.076-.385.12-.57.038-.15.078-.297.122-.442.037-.125.078-.248.12-.37.04-.108.078-.216.12-.323l.12-.284c.04-.086.08-.172.122-.256l.12-.237.12-.217.12-.202.12-.188c.04-.06.08-.118.122-.176l.12-.165.12-.157c.04-.05.08-.1.12-.147.04-.047.08-.094.122-.14l.12-.134.12-.127.12-.12c.04-.04.08-.077.12-.115.04-.037.08-.074.122-.11l.12-.106.12-.1.12-.096c.04-.032.08-.063.122-.094.04-.03.08-.06.12-.088l.12-.085.12-.08c.04-.028.08-.053.12-.08l.122-.075.12-.072.12-.07.12-.067.122-.064.12-.062.12-.06c.04-.02.08-.038.12-.056.04-.02.08-.038.12-.056l.122-.052.12-.052.12-.048c.04-.015.08-.03.12-.047.04-.016.08-.03.122-.045l.12-.044.12-.04.12-.04.12-.037.122-.036.12-.035.12-.033c.04-.012.08-.022.12-.032l.122-.03.12-.03.12-.027.12-.024c.04-.01.08-.017.12-.025l.122-.022.12-.022c.04-.008.08-.014.12-.02l.12-.02.122-.018.12-.017.12-.015.12-.015.12-.014.122-.012.12-.012.12-.01.12-.01.122-.008.12-.007.12-.007.12-.005c.04 0 .08-.003.12-.005l.122-.003.12-.002.12-.002h.362l.12.002.12.003.12.004.122.004.12.005.12.008.12.006.122.008.12.008.048.003.073.006.12.01.12.01.12.01.12.012.122.012.12.013.12.013.12.014.12.015.12.014.122.016.12.017.12.017.12.018.12.02.122.018.12.02.12.02.12.022.122.022.12.023.12.023.12.024.12.024.122.026.12.026.12.026.12.028.122.028.12.028.12.03.12.03.12.03.122.032.12.032.12.033.12.034.122.035.12.035.12.036.12.036.12.037.122.037.12.038.12.04.12.04.122.04.12.04.12.043.12.043.12.044.122.044.12.045.12.045.12.047.122.046.12.05.12.047.12.05.12.05.122.05.12.05.12.05.12.054.122.054.12.053.12.054.12.056.12.055.122.057.12.057.12.057.12.06.122.057.12.06.12.06.12.06.12.06v-5.292l-.12-.03-.12-.03-.12-.028-.12-.028-.12-.03-.12-.026-.122-.028-.12-.027-.12-.027-.12-.027-.122-.026-.12-.026-.12-.025-.12-.027-.12-.025-.122-.025-.12-.024-.12-.026-.12-.024-.122-.024-.12-.023-.12-.024-.12-.024-.12-.023-.122-.023-.12-.022-.12-.023-.12-.022-.122-.022-.12-.02-.12-.02-.12-.023-.12-.02-.122-.02-.12-.02-.12-.02-.12-.02-.122-.02-.12-.02-.12-.02-.12-.018-.12-.02-.122-.018-.12-.018-.12-.018-.12-.018-.122-.017-.12-.016-.12-.017-.12-.016-.12-.015-.122-.016-.12-.017-.12-.015-.12-.015-.122-.015-.12-.015-.12-.014-.12-.015-.12-.013-.122-.013-.12-.014-.12-.013-.12-.012-.122-.01-.12-.013-.12-.01-.12-.012-.12-.01-.122-.01-.12-.01-.12-.01-.12-.01-.122-.008-.12-.008-.12-.01-.12-.006-.12-.007-.122-.007-.12-.006-.12-.006-.062-.003-.06-.002-.12-.005-.12-.005-.12-.005-.12-.005-.12-.004-.122-.005-.12-.004-.12-.002-.12-.003-.122-.003-.12-.003-.12-.003-.12-.003h-.12l-.122-.003h-.12l-.12-.002h-.844l-.12.002h-.12l-.12.003-.122.002-.12.002-.12.003-.12.003-.12.003-.122.004-.12.004-.12.004-.12.005-.122.005-.12.005-.12.006-.12.005-.12.006-.122.008-.12.007-.12.007-.12.008-.122.008-.12.008-.12.01-.12.008-.12.01-.122.01-.12.01-.12.01-.12.012-.122.01-.12.013-.12.012-.12.012-.12.014-.122.013-.12.015-.12.015-.12.014-.122.016-.12.016-.12.016-.12.017-.122.016-.12.017-.12.02-.12.017-.12.02-.122.02-.12.02-.12.02-.12.02-.122.023-.12.022-.12.023-.12.024-.12.023-.122.025-.12.025-.12.026-.12.027-.122.027-.12.028-.12.027-.12.03-.12.028-.122.03-.12.03-.12.032-.12.033-.122.032-.12.034-.12.033-.12.036-.12.034-.122.037-.12.038-.12.04-.12.037-.122.04-.12.04-.12.043-.12.042-.12.044c-.042.014-.082.03-.122.044l-.12.045-.12.046-.12.047-.122.048-.12.05-.12.05-.12.05-.12.054-.122.052-.12.055-.12.056-.12.057-.12.06-.122.058-.12.062c-.04.02-.08.04-.12.062-.04.02-.08.043-.12.064l-.122.065-.12.068-.12.07-.12.068-.12.072-.122.073-.12.076c-.04.025-.08.05-.12.077l-.12.078-.122.082-.12.082-.12.085-.12.086c-.04.03-.082.058-.12.088-.042.03-.082.06-.122.092-.04.03-.08.062-.12.094-.04.03-.08.063-.12.096z"/></g></svg>