<svg id="svg" xmlns="http://www.w3.org/2000/svg" viewBox="0 0 399.7 308.2"><style>.st0{fill:#373737;} .st1{fill:#FFFFFF;}</style><g id="svgg"><path id="path0" class="st0" d="M59.5 21.6c-18.7 3.4-31.9 15.8-36.3 34-1.2 5.2-1.3 6.7-1.3 62 0 57.5 0 58.7 1.7 58.7.5 0 1.7.4 2.6.8 2.7 1.4 6.3 2.9 7 2.9.4 0 1.5.4 2.6.9s3.2 1.2 4.7 1.5c1.5.3 3.9.9 5.2 1.3 15.9 4.2 31.2-.1 36.2-10.3l2-4.2.2-28.4.2-28.4 1.3-.4c3.2-.8 35.4-.4 36.1.5 1.5 1.9.6 59.8-1.1 63.8-4 9.5-11.6 16-22.9 19.5-1.9.6-4.2 1.3-5.2 1.6-11.5 3.6-48.7 2.2-65.8-2.4-2.3-.6-3.8-.8-4.2-.4-.4.4-.5 17.4-.4 46.8l.2 46.2 33.3.2c38.6.2 40.6 0 50.8-4.8 8.4-3.9 16.5-12 20.2-20.1.8-1.7 1.7-3.6 2-4.2.8-1.4 1.7-5.6 2.4-11.2.7-5.2.8-225.1.2-225.5-1.1-.6-68.4-1-71.7-.4m122.6.1c-16.8 3.5-29.4 14.1-34.9 29.5-2.2 6.1-2.4 9.3-2.4 40.1 0 34.4-.3 32.5 4.7 29 16.8-11.4 51.3-14.3 84.9-7.1 2.2.5 4.8 1 5.7 1.2l1.7.4v8.6c0 10.5-.1 10.6-8.9 6.1-.6-.3-2.6-1-4.3-1.5-1.7-.5-5.2-1.5-7.8-2.2-15-4.3-34.5-1.2-42.6 6.9-13.2 13.2-10.7 37.9 4.9 47.7 4.9 3.1 17.7 5.9 23.3 5.1 1.3-.2 4.7-.6 7.5-1 2.8-.3 6-.9 7.1-1.2 1.1-.3 4-1.2 6.3-1.9 2.4-.7 5.1-1.7 6.2-2.1 8.7-3.9 8.4-4.1 8.2 6.5l-.2 8.2-2.8.8c-28.6 8.5-73.2 5.3-89.9-6.6-1-.7-2.4-1.3-3.1-1.3h-1.3v49.3c0 32.8.2 49.7.6 50.5.9 1.7 64.5 1.9 72.6.2 15.4-3.1 27.6-12.6 32.8-25.5.7-1.9 1.8-4.4 2.4-5.5 1.3-2.6 1.9-231.3.7-233.6-.6-1.5-65.1-1.9-71.4-.6m117.1 1.8c-3.7 1.2-6.6 2.4-10.5 4.6-4.6 2.5-13.2 12-15.5 16.9-.5 1.2-1.5 3.2-2.1 4.4-1 2.2-1.5 4-2.8 10.4-.6 3.1-.8 48.2-.2 50.4l.4 1.4 36.7-.2c34-.2 36.9-.1 38.8.9 1.2.6 2.5 1.1 3.1 1.1 1.3 0 8.5 5 9.3 6.5 1.4 2.6 2.2 3.9 3 4.8 1.2 1.5 1.1 13.7-.2 15.1-.5.6-1 1.6-1 2.1 0 2.5-8.7 9.3-14.2 11.1-.5.2 0 .3 1.1.4 3.4.1 11 3.7 14.1 6.7 2.4 2.3 5.1 6 5.1 7.1 0 .4.4 1.3.9 1.9.6.8.9 2.7.9 5.6s-.3 4.8-.9 5.6c-.5.7-.9 1.8-.9 2.5 0 1.4-4.3 7.6-5.3 7.7-.3 0-1.1.6-1.7 1.3-.6.7-1.4 1.2-1.9 1.2s-1 .4-1.2.9c-.2.5-1 .9-1.8.9s-1.8.4-2.3.9c-.4.5-1.8.9-3.1.9s-3.1.3-4.1.7c-1.3.5-11.3.7-38.4.8h-36.7v44.5c0 24.5.2 44.6.4 44.9 1.7 1.7 74.4-1.2 78-3 1-.5 2.3-.9 2.9-.9.6 0 1.5-.4 2-.9s1.5-.9 2.1-.9c.7 0 1.4-.4 1.6-.9.2-.5.6-.9 1-.9.7 0 1.1-.3 6.8-5.6 2.3-2.2 4.2-4.2 4.2-4.4 0-.3.8-1.6 1.8-2.8 1-1.3 2-3 2.2-3.9s.7-1.7 1-1.7c.3 0 .7-1.1.9-2.5.2-1.3.8-2.8 1.2-3.2.7-.6.8-19 .8-116.7V23l-16.7-.4c-33.2-.8-54.2-.5-58.8.9m-8.9 103c-.2.4-.2 4.9-.1 10l.2 9.2h13.3c12.5 0 13.4-.1 15.3-1.3 7.5-4.8 5.4-16.9-3.2-18.2-6-.8-25.2-.6-25.5.3m0 34.5c-.2.5-.2 5.4-.2 11l.2 10.1 11.4.2c18.1.3 22.2-.8 23.7-6.1.2-.8.7-2.1 1.1-2.8 1.2-2.4-2.1-10.7-4.2-10.7-.2 0-1-.5-1.6-1.1-1.7-1.4-29.9-2-30.4-.6"/><path id="path1" class="st1" d="M46.5.6c0 .3-1.2.6-2.8.6-2.1 0-2.8.2-2.8.9s-.8.9-3.1.9-3.1.2-3.1.9c0 .6-.6.9-1.9.9-1 0-2 .4-2.2.9-.2.5-1.1 1-2.1 1.2-1.1.2-1.8.8-1.8 1.3s-.4.9-.9.9-.9.4-.9.9c0 .6-.6.9-1.9.9-1.1 0-2 .4-2.2.9-.2.5-.7.9-1.2.9s-.9.4-.9.9-.4.9-.9.9-.9.5-.9 1.2c0 .8-.4 1.2-1.2 1.2-.7 0-1.2.4-1.2.9s-.4.9-.9.9-.9.4-.9.9-.4 1-.9 1.2c-.5.2-.9 1.1-.9 2.2 0 1.2-.3 1.9-.9 1.9-.5 0-.9.4-.9.9s-.6 1-1.2 1.2c-.8.2-1.2.8-1.2 1.9 0 .8-.4 1.7-.9 1.9-.5.2-.9 1.1-.9 2.2 0 1.2-.3 1.9-.9 1.9-.6 0-.9.6-.9 1.8 0 1-.4 1.9-.9 2.1-.7.3-.9 1.3-.9 4.1 0 2.1-.3 3.7-.6 3.7-.4 0-.6 44-.6 130.7V308h177.5c117.9 0 177.5-.2 177.5-.6 0-.3 1.4-.6 3.1-.6 2.3 0 3.1-.2 3.1-.9 0-.6.6-.9 1.8-.9s1.8-.3 1.8-.9c0-.6.7-.9 2.2-.9 1.5 0 2.2-.3 2.2-.9 0-.6.6-.9 1.6-.9 1.1 0 1.7-.4 1.9-1.2.2-.7.7-1.2 1.2-1.2s.9-.4.9-.9c0-.6.6-.9 1.9-.9 1.1 0 2-.4 2.2-.9.2-.5.7-.9 1.2-.9s.9-.4.9-.9.4-.9.9-.9.9-.5.9-1.2c0-.8.4-1.2 1.2-1.2.7 0 1.2-.4 1.2-.9s.4-.9.9-.9.9-.4.9-.9.4-1 .9-1.2c.5-.2.9-1.1.9-2.2 0-1.2.3-1.9.9-1.9.5 0 .9-.4.9-.9s.6-1 1.2-1.2c.8-.2 1.2-.8 1.2-1.9 0-1 .3-1.6.9-1.6.6 0 .9-.7.9-2.2 0-1.5.3-2.2.9-2.2.6 0 .9-.6.9-1.8 0-1 .4-1.9.9-2.1.7-.3.9-1.3.9-4.1 0-2.1.3-3.7.6-3.7.4 0 .6-44 .6-130.7V0H223.1C105.8 0 46.5.2 46.5.6M131.1 22c.7.4.5 220.3-.2 225.5-.7 5.6-1.6 9.8-2.4 11.2-.3.6-1.2 2.5-2 4.2-3.7 8.1-11.8 16.1-20.2 20.1-10.3 4.8-12.3 5-50.8 4.8l-33.3-.2-.2-46.3c-.1-29.4.1-46.4.4-46.8.4-.4 1.9-.3 4.2.4 17.2 4.7 54.4 6 65.8 2.4 1-.3 3.4-1.1 5.2-1.6 11.3-3.5 18.9-10 22.9-19.5 1.6-3.9 2.6-61.9 1.1-63.8-.7-.9-33-1.3-36.1-.5l-1.3.4-.2 28.4-.2 28.4-2 4.2c-5 10.2-20.3 14.5-36.2 10.3-1.4-.4-3.7-.9-5.2-1.3-1.5-.3-3.6-1-4.7-1.5s-2.2-.9-2.6-.9c-.7 0-4.3-1.5-7-2.9-.9-.5-2-.8-2.6-.8-1.6 0-1.7-1.2-1.7-58.7 0-55.3 0-56.9 1.3-62C27.6 37.4 40.8 25 59.5 21.6c3.3-.6 70.6-.2 71.6.4m122.5.2c1.2 2.3.5 231-.7 233.6-.6 1.2-1.6 3.7-2.4 5.5-5.2 13-17.4 22.4-32.8 25.5-8 1.6-71.7 1.4-72.6-.2-.4-.8-.6-17.7-.6-50.5v-49.3h1.3c.7 0 2.1.6 3.1 1.3 16.6 11.9 61.2 15.1 89.9 6.6l2.8-.8.2-8.2c.2-10.6.5-10.4-8.2-6.5-1 .5-3.8 1.4-6.2 2.1-2.4.7-5.2 1.6-6.3 1.9-1.1.3-4.3.9-7.1 1.2-2.8.3-6.2.8-7.5 1-5.5.8-18.4-2.1-23.3-5.1-10.8-6.8-15.8-20.7-12.3-34.2 2.8-10.9 7.9-16.3 19.5-20.7 4.7-1.8 24-1.6 30.5.3 2.5.7 6 1.7 7.8 2.2 1.7.5 3.7 1.1 4.3 1.5 8.8 4.5 8.9 4.5 8.9-6.1v-8.6l-1.7-.4c-.9-.2-3.5-.7-5.7-1.2-33.6-7.1-68.1-4.2-84.9 7.1-5.1 3.4-4.8 5.4-4.7-29 0-30.8.2-33.9 2.4-40.1 5.5-15.4 18-26 34.9-29.5 6.2-1.2 70.7-.8 71.4.6m104.7.4l16.7.4v116c0 97.7-.1 116.1-.8 116.7-.5.4-1 1.8-1.2 3.2-.2 1.4-.6 2.5-.9 2.5-.3 0-.7.7-1 1.7s-1.2 2.7-2.2 3.9c-1 1.3-1.8 2.5-1.8 2.8 0 .3-1.9 2.3-4.2 4.4-5.7 5.4-6 5.6-6.8 5.6-.4 0-.8.4-1 .9-.2.5-.9.9-1.6.9-.7 0-1.6.4-2.1.9s-1.4.9-2 .9c-.6 0-1.9.4-2.9.9-3.6 1.9-76.3 4.7-78 3-.2-.2-.4-20.4-.4-44.9v-44.5h36.7c27.1 0 37.1-.2 38.4-.8 1-.4 2.8-.7 4.1-.7 1.3 0 2.7-.4 3.1-.9.4-.5 1.4-.9 2.3-.9.8 0 1.6-.4 1.8-.9.2-.5.7-.9 1.2-.9s1.3-.6 1.9-1.2c.6-.7 1.3-1.2 1.7-1.3 1 0 5.3-6.2 5.3-7.7 0-.7.4-1.8.9-2.5.6-.8.9-2.7.9-5.6s-.3-4.8-.9-5.6c-.5-.7-.9-1.5-.9-1.9-.1-4.6-12.7-13.6-19.2-13.8-1.1 0-1.6-.2-1.1-.4 5.4-1.8 14.2-8.6 14.2-11.1 0-.6.4-1.6 1-2.1 1.3-1.4 1.4-13.7.2-15.1-.8-.9-1.6-2.2-3-4.8-.8-1.5-8-6.5-9.3-6.5-.5 0-1.9-.5-3.1-1.1-1.9-1-4.8-1.1-38.8-.9l-36.7.2-.4-1.4c-.6-2.2-.4-47.3.2-50.4 1.3-6.4 1.8-8.2 2.8-10.4.6-1.2 1.5-3.2 2.1-4.4 2.2-5 10.9-14.4 15.5-16.9 11.1-6 17.7-6.6 69.3-5.3m-42.6 103.7c8.6 1.2 10.8 13.3 3.2 18.2-1.9 1.2-2.8 1.3-15.3 1.3h-13.3l-.2-9.2c-.1-5.1 0-9.6.1-10 .4-1 19.6-1.2 25.5-.3m4.9 35.3c.7.6 1.4 1.1 1.6 1.1 2.1 0 5.4 8.3 4.2 10.7-.4.8-.9 2-1.1 2.8-1.5 5.3-5.6 6.4-23.7 6.1l-11.4-.2-.2-10.1c-.1-5.6 0-10.5.2-11 .6-1.4 28.8-.8 30.4.6"/></g></svg>