<svg xmlns="http://www.w3.org/2000/svg" width="1200" height="933.378"><path d="M1188.42 600.657v-14.383h-3.75l-4.337 9.88-4.315-9.88h-3.772v14.383h2.664V589.81l4.056 9.36h2.758l4.056-9.383v10.87h2.64zm-23.79 0v-11.93h4.81v-2.43h-12.26v2.43h4.81v11.93h2.64z" fill="#0099df"/><path d="M762.24 662.412H437.76V79.282h324.48v583.13z" fill="#6c6bbd"/><path d="M458.356 370.86c0-118.292 55.385-223.662 141.634-291.567C536.918 29.638 457.32 0 370.81 0 166.014 0 0 166.036 0 370.86c0 204.82 166.013 370.857 370.81 370.857 86.51 0 166.108-29.638 229.18-79.293C513.74 594.52 458.356 489.15 458.356 370.86" fill="#d32011"/><path d="M1200 370.86c0 204.82-166.013 370.857-370.81 370.857-86.51 0-166.108-29.638-229.203-79.293C686.26 594.52 741.643 489.15 741.643 370.86c0-118.292-55.384-223.662-141.656-291.567C663.082 29.638 742.68 0 829.19 0 1033.986 0 1200 166.036 1200 370.86" fill="#0099df"/><g><path d="M872.028 827.187c4.315 0 10.516.826 15.255 2.688l-6.602 20.183c-4.526-1.863-9.053-2.476-13.39-2.476-14.007 0-21.01 9.054-21.01 25.323v55.22H824.85v-98.462h21.22v11.954c5.565-8.653 13.605-14.43 25.96-14.43m-79.175 22.046H757.84v44.49c0 9.88 3.49 16.482 14.217 16.482 5.565 0 12.567-1.862 18.933-5.564l6.178 18.32c-6.79 4.74-17.495 7.64-26.76 7.64-25.348 0-34.19-13.604-34.19-36.475v-44.892h-19.994v-19.57h19.995V799.79h21.62v29.873h35.013v19.57zm-274.19 21.008c2.288-14.217 10.918-23.907 26.173-23.907 13.793 0 22.658 8.653 24.922 23.908h-51.094zm73.353 8.654c-.213-30.7-19.17-51.707-46.78-51.707-28.835 0-49.018 21.008-49.018 51.707 0 31.288 21.008 51.683 50.48 51.683 14.83 0 28.412-3.702 40.366-13.793l-10.516-15.868c-8.228 6.602-18.744 10.303-28.623 10.303-13.793 0-26.36-6.39-29.45-24.097h73.116c.213-2.688.426-5.353.426-8.23m94.123-24.096c-5.966-3.725-18.11-8.464-30.676-8.464-11.742 0-18.745 4.338-18.745 11.553 0 6.578 7.403 8.44 16.67 9.667l10.09 1.438c21.433 3.113 34.4 12.167 34.4 29.474 0 18.744-16.48 32.136-44.892 32.136-16.08 0-30.91-4.126-42.652-12.78l10.09-16.692c7.216 5.564 17.944 10.304 32.774 10.304 14.62 0 22.447-4.315 22.447-11.955 0-5.54-5.565-8.653-17.307-10.28l-10.09-1.438c-22.046-3.113-34-12.992-34-29.05 0-19.57 16.08-31.523 41.002-31.523 15.656 0 29.873 3.513 40.153 10.304l-9.266 17.307zm264.19-7.262c-4.41 0-8.488.778-12.284 2.31-3.772 1.557-7.05 3.726-9.808 6.508-2.76 2.783-4.928 6.13-6.508 10.02-1.58 3.89-2.357 8.183-2.357 12.85 0 4.693.778 8.96 2.357 12.85 1.58 3.89 3.75 7.24 6.508 10.022 2.76 2.782 6.036 4.95 9.808 6.507 3.796 1.556 7.875 2.31 12.285 2.31s8.512-.754 12.285-2.31c3.796-1.556 7.097-3.725 9.855-6.507 2.806-2.783 4.975-6.13 6.58-10.02 1.578-3.89 2.356-8.16 2.356-12.85 0-4.67-.778-8.96-2.357-12.85-1.605-3.89-3.774-7.24-6.58-10.022-2.758-2.782-6.06-4.95-9.855-6.507-3.773-1.533-7.875-2.31-12.284-2.31m0-20.35c7.64 0 14.713 1.322 21.22 3.986 6.508 2.64 12.143 6.295 16.883 10.94 4.762 4.645 8.464 10.14 11.152 16.458 2.688 6.342 4.032 13.227 4.032 20.654s-1.344 14.312-4.032 20.654c-2.688 6.32-6.39 11.836-11.152 16.48-4.74 4.646-10.375 8.277-16.882 10.942-6.507 2.64-13.58 3.96-21.22 3.96-7.64 0-14.712-1.32-21.22-3.96-6.507-2.665-12.095-6.296-16.81-10.94-4.716-4.646-8.418-10.163-11.106-16.482-2.688-6.342-4.032-13.227-4.032-20.654s1.344-14.312 4.032-20.654c2.688-6.32 6.39-11.813 11.105-16.458 4.715-4.645 10.303-8.3 16.81-10.94 6.508-2.664 13.58-3.985 21.22-3.985m-556.818 51.707c0-17.306 11.34-31.524 29.874-31.524 17.707 0 29.66 13.605 29.66 31.524 0 17.92-11.953 31.5-29.66 31.5-18.533 0-29.874-14.194-29.874-31.5m79.718 0v-49.23h-21.41v11.953c-6.813-8.865-17.093-14.43-31.1-14.43-27.61 0-49.23 21.62-49.23 51.707 0 30.062 21.62 51.706 49.23 51.706 14.007 0 24.287-5.564 31.1-14.43v11.955h21.41v-49.23zm-120.696 49.23v-61.797c0-23.272-14.83-38.927-38.715-39.14-12.568-.212-25.56 3.702-34.614 17.52-6.79-10.918-17.518-17.52-32.56-17.52-10.493 0-20.797 3.09-28.837 14.62v-12.144H196.4v98.462h21.62v-54.583c0-17.094 9.48-26.172 24.098-26.172 14.217 0 21.432 9.266 21.432 25.96v54.795h21.62v-54.583c0-17.094 9.904-26.172 24.098-26.172 14.642 0 21.645 9.266 21.645 25.96v54.795h21.62z" fill="#110f0d"/><path d="M1027.71 920.717v2.428h2.24c.496 0 .92-.118 1.203-.306.307-.19.472-.52.472-.92 0-.402-.165-.708-.472-.897-.283-.212-.707-.306-1.202-.306h-2.24zm2.264-1.698c1.156 0 2.052.258 2.688.777.637.52.943 1.226.943 2.122 0 .754-.236 1.367-.754 1.862-.494.47-1.225.778-2.145.896l2.97 3.418h-2.31l-2.758-3.395h-.896v3.396h-1.933v-9.077h4.197zm-.59 12.19c1.062 0 2.052-.19 2.948-.59.92-.4 1.72-.944 2.405-1.628.684-.683 1.226-1.485 1.627-2.428.377-.92.59-1.91.59-2.97 0-1.062-.213-2.052-.59-2.972-.4-.92-.943-1.745-1.627-2.428-.684-.684-1.485-1.226-2.405-1.604-.896-.4-1.886-.59-2.947-.59-1.06 0-2.075.19-2.995.59-.943.378-1.768.92-2.452 1.604-.684.683-1.226 1.51-1.603 2.428-.4.92-.59 1.91-.59 2.97 0 1.062.19 2.052.59 2.972.377.943.92 1.745 1.603 2.428.684.684 1.51 1.227 2.452 1.627.92.4 1.934.59 2.995.59m0-17.402c1.39 0 2.664.26 3.867.778 1.226.495 2.263 1.203 3.183 2.1.896.87 1.603 1.91 2.122 3.11.518 1.18.778 2.453.778 3.797 0 1.344-.26 2.617-.778 3.796-.52 1.178-1.226 2.215-2.122 3.088-.92.896-1.957 1.603-3.183 2.122-1.203.52-2.476.778-3.867.778-1.415 0-2.712-.26-3.938-.778-1.226-.52-2.287-1.226-3.183-2.122-.896-.873-1.603-1.91-2.122-3.09-.52-1.178-.778-2.45-.778-3.795 0-1.344.26-2.617.778-3.796.52-1.202 1.226-2.24 2.122-3.112.896-.896 1.957-1.604 3.183-2.1 1.226-.517 2.523-.777 3.938-.777" fill="#242021"/></g></svg>