<svg xmlns="http://www.w3.org/2000/svg" viewBox="0 0 179.8 114"><path fill="#FFF" d="M.5.4h178.8v113.2H.5z"/><path fill="#716F74" d="M179 .8v112.4H.9V.8H179m.7-.8H.2v113.9h179.5V0z"/><g><path fill="#009CDE" d="M106 83.8c-.4 2.5-2.3 2.5-4.1 2.5h-1l.7-4.7c0-.3.3-.5.6-.5h.5c1.3 0 2.4 0 3.1.7.3.5.4 1.1.2 2zm-.8-6.5h-6.9c-.5 0-.9.3-1 .8l-2.8 17.8c-.1.4.2.7.6.7h3.6c.3 0 .6-.2.7-.6l.8-5.1c.1-.5.5-.8 1-.8h2.2c4.6 0 7.2-2.2 7.9-6.6.3-1.9 0-3.4-.9-4.5-1.1-1.1-2.8-1.7-5.2-1.7z"/><path fill="#003087" d="M56.5 83.8c-.4 2.5-2.3 2.5-4.1 2.5h-1l.7-4.7c0-.3.3-.5.6-.5h.5c1.3 0 2.4 0 3.1.7.2.5.3 1.1.2 2zm-.8-6.5h-6.9c-.5 0-.9.3-1 .8L45 95.9c-.1.4.2.7.6.7h3.3c.5 0 .9-.3 1-.8l.8-4.8c.1-.5.5-.8 1-.8h2.2c4.6 0 7.2-2.2 7.9-6.6.3-1.9 0-3.4-.9-4.5-1.1-1.2-2.9-1.8-5.2-1.8zM71.8 90.2c-.3 1.9-1.8 3.2-3.8 3.2-1 0-1.7-.3-2.2-.9-.5-.6-.7-1.4-.5-2.3.3-1.9 1.8-3.2 3.7-3.2.9 0 1.7.3 2.2.9.6.5.8 1.4.6 2.3zm4.7-6.5h-3.3c-.3 0-.5.2-.6.5l-.1.9-.2-.3c-.7-1-2.3-1.4-3.9-1.4-3.7 0-6.8 2.8-7.4 6.7-.3 1.9.1 3.8 1.2 5.1 1 1.2 2.5 1.7 4.2 1.7 3 0 4.6-1.9 4.6-1.9l-.1.9c-.1.4.2.7.6.7h3c.5 0 .9-.3 1-.8L77 84.4c.1-.4-.2-.7-.5-.7z"/><path fill="#009CDE" d="M121.4 90.2c-.3 1.9-1.8 3.2-3.8 3.2-1 0-1.7-.3-2.2-.9-.5-.6-.7-1.4-.5-2.3.3-1.9 1.8-3.2 3.7-3.2.9 0 1.7.3 2.2.9.5.5.7 1.4.6 2.3zm4.6-6.5h-3.3c-.3 0-.5.2-.6.5l-.1.9-.2-.3c-.7-1-2.3-1.4-3.9-1.4-3.7 0-6.8 2.8-7.4 6.7-.3 1.9.1 3.8 1.2 5.1 1 1.2 2.5 1.7 4.2 1.7 3 0 4.6-1.9 4.6-1.9l-.1.9c-.1.4.2.7.6.7h3c.5 0 .9-.3 1-.8l1.8-11.4c-.2-.4-.4-.7-.8-.7z"/><path fill="#003087" d="M94.2 83.7h-3.3c-.3 0-.6.2-.8.4l-4.6 6.8-2-6.5c-.1-.4-.5-.7-.9-.7h-3.3c-.4 0-.7.4-.5.8l3.7 10.8-3.5 4.9c-.3.4 0 .9.5.9h3.3c.3 0 .6-.2.8-.4l11.1-16.1c.2-.4-.1-.9-.5-.9z"/><path fill="#009CDE" d="M129.9 77.8L127 95.9c-.1.4.2.7.6.7h2.9c.5 0 .9-.3 1-.8l2.8-17.8c.1-.4-.2-.7-.6-.7h-3.2c-.3 0-.5.2-.6.5z"/><path fill="#003087" d="M80.7 70.6h9.4c1 0 1.9-.7 2-1.7l.1-.5L94 57.2l.1-.6c.2-1.2 1.2-2.1 2.4-2.1h1.4c4.8 0 8.7-1.1 11.6-3.1 3.3-2.3 5.5-6.1 6.4-11.1.9-4.6.3-8.2-1.8-10.6-.7-.8-1.5-1.4-2.5-1.9l-.1-.1v-.1c.7-4.5 0-7.5-2.4-10.2-2.5-2.9-7.1-4.3-13.6-4.3h-18c-1.2 0-2.2.8-2.3 2l-7.5 47.5c-.1.4.1.8.3 1.1.3.3.6.5 1 .5h11.3l-.8 5.1c-.1.3 0 .7.3.9.3.3.6.4.9.4z"/><path fill="#003087" d="M85.9 27.7c.1-.8.6-1.4 1.3-1.7.3-.1.6-.2 1-.2h14.1c1.7 0 3.2.1 4.7.3.4.1.8.1 1.2.2.4.1.8.2 1.1.3.2.1.4.1.5.2.7.2 1.4.5 2 .8.7-4.5 0-7.6-2.4-10.4-2.7-3.1-7.5-4.4-13.7-4.4h-18c-1.3 0-2.3.9-2.5 2.2l-7.5 47.5c-.1.9.6 1.8 1.5 1.8h11.1l2.8-17.7 2.8-18.9z"/><path fill="#009CDE" d="M111.7 27.6c-.1.3-.1.7-.2 1.1-2.4 12.2-10.5 16.4-20.9 16.4h-5.3c-1.3 0-2.3.9-2.5 2.2l-2.7 17.2-.8 4.9c-.1.8.5 1.6 1.3 1.6H90c1.1 0 2.1-.8 2.2-1.9l.1-.5 1.8-11.2.1-.6c.2-1.1 1.1-1.9 2.2-1.9h1.4c9.1 0 16.2-3.7 18.3-14.4.9-4.5.4-8.2-1.9-10.8-.6-.9-1.5-1.6-2.5-2.1z"/><path fill="#012169" d="M109.3 26.6c-.4-.1-.7-.2-1.1-.3-.4-.1-.8-.2-1.2-.2-1.4-.2-3-.3-4.7-.3H88.2c-.3 0-.7.1-1 .2-.7.3-1.1.9-1.3 1.7l-3 19-.1.6c.2-1.3 1.3-2.2 2.5-2.2h5.3c10.4 0 18.5-4.2 20.9-16.4.1-.4.1-.7.2-1.1-.6-.3-1.3-.6-2-.8-.1-.1-.3-.1-.4-.2z"/></g></svg>