<svg id="Layer_1" xmlns="http://www.w3.org/2000/svg" viewBox="0 0 600 121.3"><style>.st0{fill:#0051A0;}</style><path class="st0" d="M265.42.82c-4.5 1.3-6.3 3.9-7.6 10.7-1 5.5-1.4 6.1-4.1 6.6-1.6.3-4.6.6-6.7.6-4 0-5 1.1-5 5.6 0 2.2.4 2.4 4.8 2.4 6.2 0 7.6 1 6.9 4.6-.7 3.3-3.1 14.4-4.7 21.9-.6 2.7-1.7 8.4-2.6 12.5s-2 9.1-2.5 11.1c-1.9 7.6-.5 12.1 4.8 14.8 3 1.5 18.5 1.4 20.5-.2 1.7-1.4 2.9-5.2 2.2-7.2-.4-.9-1.8-1.1-4.2-.8-2.6.3-4.7-.2-6.9-1.6-2.8-1.8-3.3-2.6-3.3-6 0-2.2.4-5.1 1-6.6.5-1.4 1.4-4.9 1.9-7.8 1.1-5.7 3.4-17.1 5.4-25.8 1.7-8 2.6-8.8 11-9.1 7.1-.3 7.1-.3 8.1-3.6.5-1.8.7-3.5.4-3.8-.3-.2-3.5-.6-7.1-.7-3.7-.1-7.1-.7-7.6-1.2-.6-.6-.5-2.8.4-6.1 2.3-8.8 2.3-10.9 0-11.1-1.1-.1-3.4.3-5.1.8zM474.82 17.22c-6.6 1.4-11.9 3.8-16.4 7.1-3.4 2.7-8.9 11.8-7.9 13.4.3.5 4.6 1 9.5 1h8.9l2.8-4.2c3.7-5.6 8.7-7.6 14.4-5.9 4.8 1.4 6.3 4.6 5.5 11-.3 2.5-.8 4.6-1 4.8s-4.1.6-8.7.8c-20.3 1.2-34.8 8.5-40.4 20.1-2.1 4.5-2.9 13.2-1.6 18.2 2.1 7.5 11.5 11.3 24.4 9.7 4-.5 7.3-1.9 12.3-5.1 7-4.5 9.2-4.6 7.5-.2-.5 1.4-.7 2.9-.4 3.2.4.3 4.6.6 9.4.6h8.7l.7-6.8c.3-3.7 1.2-9.4 2-12.7 4.1-18.2 4.4-19.9 6.7-33.6 1-6 .9-7-1.1-11.2-2.7-5.6-7.2-8.4-16.1-10.3-7.6-1.6-11.4-1.6-19.2.1zm12.8 41c.6 1.5-2 9.3-4.5 13.5-5.2 8.6-14.8 11.7-20.4 6.5-5.7-5.3-2.5-14.5 6.6-18.9 6.2-3 17.3-3.7 18.3-1.1zM407.52 17.82c-6.5.6-9.3 1.8-14.2 6.3-3.8 3.5-5.7 2.7-5-2 .3-1.9.2-3.4-.4-3.5h-18.8c-.5.1-1.1 1.6-1.4 3.3-.3 1.8-1 5.5-1.6 8.3-.6 2.7-1.8 8.4-2.7 12.5s-2.1 10.2-2.9 13.5c-.7 3.3-2 9.6-3 14-.9 4.4-2.2 10.7-3 14-.7 3.3-2 9.6-3 14-.9 4.4-2.4 10.6-3.2 13.8-2.2 8.9-2 9.2 9.2 9.2h9.5l1.5-4.6c1.5-4.4 2-6.7 4.8-22.3 1.5-8.1 3.7-10.4 6.5-7 2.9 3.6 8.4 5.4 16.3 5.4 6.5 0 8.2-.4 14.7-3.7 8.9-4.4 14.3-10.2 19.3-20.4 5.3-10.8 6-13.4 6.6-24 .5-8.9.3-10.1-2-15.2-4.4-9.6-12.4-13.1-27.2-11.6zm2.5 13.5c5.8 3.5 7.5 13 4.4 24.2-3.5 12.8-9 20.4-17.1 23.5-3.8 1.5-4.6 1.5-8.7.1-6.4-2.2-8.6-6.1-8.6-15 0-10.7 4.9-23.4 11.2-29 5.7-5.2 13.6-6.8 18.8-3.8zM55.02 19.72c-3 1.1-7 3.3-9 4.9s-4.5 3.1-5.6 3.3c-2 .3-2.2-1-.8-6.5l.6-2.7h-13.1l-.6 4.7c-.6 5.3-.9 6.8-3.1 16.3-.8 3.6-2.1 9.6-2.9 13.5-.8 3.8-2.1 10.1-3 14-.9 3.8-2.3 10.4-3.1 14.5-.9 4.1-2.2 10.6-3.1 14.5-.8 3.8-2 9.7-2.7 13s-1.6 6.8-2.1 7.8c-1.2 2.7.5 3.7 6.4 3.8 5.8.2 7.1-.8 7.1-5.3 0-1.4.6-5.3 1.4-8.5.7-3.2 1.9-8.5 2.7-11.8.7-3.3 1.6-6.8 2.2-7.9.8-1.7 1.1-1.6 4 1.2 7.6 7.3 21.1 8.2 33.7 2.4 12.8-6 22.1-18.9 25.1-35.2 3.8-20.1.4-30.5-11.6-36-5.7-2.6-15.2-2.6-22.5 0zm13.9 8.6c1.7.8 4.2 3 5.6 4.8 2.2 2.9 2.5 4.2 2.5 12.2 0 9.5-1.1 13.6-6.3 24.3-4.2 8.3-10.1 13.6-17.2 15.2-11.7 2.6-20.4-1.7-22.4-11.2-1.2-5.2-.1-16.3 2.1-22.4 4-11 11.6-20.9 16.9-22 1.6-.4 3.1-1.1 3.4-1.6 1-1.5 11.9-1 15.4.7zM126.02 18.32c-.8.3-4.4 2-7.9 3.7-6.9 3.5-15.4 11.9-18.6 18.4-1 2.1-2.1 4.5-2.6 5.4-.4.9-1.5 4.6-2.4 8.2-7.5 29.9 8.5 45.4 39.8 38.8 6-1.3 17.5-8.8 21.3-13.8 1.5-2.1 3.1-4 3.5-4.3.3-.3 2.1-3.6 3.8-7.4 7.8-16.5 6.5-36.6-2.8-44.1-5.7-4.6-9.1-5.4-21.1-5.4-6.3 0-12.2.3-13 .5zm21.6 10.9c4.7 3.6 7.4 9.3 7.4 15.5 0 5-2.6 15.7-5.2 21.5-5.8 13.1-18.9 21-30.5 18.5-5.5-1.3-6.7-2.1-10.2-7.5-2.3-3.6-2.6-5-2.5-13 0-10 1.6-15.6 7-24.1 8.1-12.9 24.5-18.1 34-10.9zM193.52 19.42c-10.6 4.3-17.1 11.9-18.2 21.2-.9 8.1.8 11.4 8 14.9 3.4 1.7 8 3.4 10.2 3.7 6.4 1.1 13.8 3.7 16.9 5.8 2.6 1.8 2.8 2.4 2.3 6.6-.4 3.8-1.2 5.2-4.6 8.2-4.6 4.1-10.1 5.5-17.4 4.4-5.6-.9-8.5-3.2-10.1-8-1.4-4-1.5-4-7-4.3-5.1-.3-5.7-.1-6.5 2.1-1.2 3.1.2 10.3 2.5 12.8 1 1.1 3.4 3 5.3 4.2 3.2 2 4.9 2.2 16.6 2.2 12.7 0 13.2-.1 19.7-3.3 6.6-3.3 10.1-6.7 14.1-13.9 2.5-4.6 2.3-14.2-.4-17.7-2.3-2.9-8.2-6.1-13.2-7.1-1.8-.4-5.2-1.3-7.7-2-2.5-.8-5.7-1.6-7.2-1.9-4.1-.9-8.8-5.4-8.8-8.3 0-3 4-8.7 7.3-10.5 9.7-5.2 23.7-1.6 23.7 6.2 0 2.2.5 3 1.8 3.1.9.1 3.6.3 5.8.5 5.4.5 6.8-1.2 6.1-7.2-.6-5.3-3.3-8.7-9.4-11.5-5.5-2.5-23.7-2.6-29.8-.2zM312.02 18.32c-10.1 3.8-19.2 11.3-23.6 19.7-5.1 9.9-7.4 19-7.4 30.1 0 8.4.4 10.8 2.1 14 1.1 2.2 2.6 4.4 3.2 5 3 2.9 8.8 5.5 14.8 6.6 14.5 2.6 31.5-4 38.9-15.2 4.5-6.9 4.4-8.2-.4-8.6-6.1-.5-8.1.4-11.2 5.3-3.4 5.5-7.3 8.1-14 9.5-7.7 1.6-14-.4-18.1-5.8-3-4-3.3-4.9-3.3-11.6 0-11.1-1.2-10.6 28.7-10.6 21.4 0 25.2-.2 26.3-1.6.8-.9 1.5-5.5 1.8-11.8.4-9.2.2-10.9-1.7-14.7-1.2-2.4-4.1-5.7-6.4-7.4-4.1-2.9-4.6-3-16.2-3.2-6.6-.1-12.7 0-13.5.3zm20.3 10c5.3 3.9 7.6 14.6 4 18.6-1.4 1.6-3.4 1.8-19.3 1.8-11.3 0-18-.4-18.7-1.1-2.8-2.8 5-14.8 12.1-18.7 5.1-2.8 6.8-3.1 13.2-2.8 4.1.2 7.1 1 8.7 2.2zM518.72 18.92c-.7.4-.7 2.7.2 7.5.7 3.7 1.9 10.6 2.7 15.3.7 4.7 2 12.3 2.9 17 6.3 36.1 6.1 33.7 3.2 39-1.3 2.5-4.1 7.6-6.2 11.5-2 3.8-4.1 7.4-4.6 8-.5.5-.9 1.6-.9 2.5 0 2.4 18.6 1.9 20.5-.7.7-1 4.4-7.9 8.2-15.3 3.7-7.4 7.4-14.1 8.1-14.8.6-.7 1.2-1.8 1.2-2.3 0-.6 1.1-2.5 2.4-4.2 1.4-1.8 3-4.3 3.5-5.7.6-1.4 2-3.9 3.1-5.5 1.1-1.7 2.4-3.9 3-5s1.9-3.4 3-5c1.1-1.7 2.4-3.9 3-5 1.5-2.9 3.4-5.9 4.2-6.5.4-.3 1.2-1.7 1.8-3 .5-1.4 1.9-3.9 3-5.5 1.1-1.7 2.4-3.9 3-5s1.9-3.4 3-5c1.1-1.7 2.3-3.7 2.7-4.5s1.6-2.7 2.7-4.2 1.7-3.1 1.3-3.4c-.8-.8-18.3-.8-19.5 0-.4.2-2.5 4-4.7 8.3s-4.3 8-4.6 8.3-1.9 3.2-3.6 6.5c-10.9 21.6-13.9 26.3-15.4 24.8-.8-.9-2.6-15.2-4.3-34.5-.6-6.9-1.4-12.9-1.7-13.3-.9-.8-19.9-1.2-21.2-.3z"/></svg>