<svg xmlns="http://www.w3.org/2000/svg" xmlns:xlink="http://www.w3.org/1999/xlink" viewBox="0 0 920 191.7"><style>.st0{fill:#045EA9;} .st1{fill:url(#SVGID_1_);} .st2{fill:url(#SVGID_2_);} .st3{fill:url(#SVGID_3_);} .st4{fill:#00A3DB;} .st5{fill:url(#SVGID_4_);} .st6{display:none;} .st7{display:inline;}</style><g id="vector"><path class="st0" d="M155.1 60.7h66v16.9h-42.2v13.7h36.5v15.9h-36.5v32.1h-23.8zM299.1 77.6V60.7H233v78.6h66v-16.9h-42.2v-15.2h27.9V91.3h-27.9V77.6z"/><linearGradient id="SVGID_1_" gradientUnits="userSpaceOnUse" x1="843.625" y1="139.415" x2="843.625" y2="60.842"><stop offset=".368" stop-color="#0158A8"/><stop offset=".779" stop-color="#00A3D8"/></linearGradient><path class="st1" d="M857.6 60.8l-13.9 26.6-13.9-26.6h-23.6l25.5 45.7v32.9h23.8v-32.9l25.6-45.7z"/><path class="st0" d="M388 60.6h23.6l14 26.5 13.8-26.5h23.5l-25.6 45.6v33h-23.8v-33z"/><linearGradient id="SVGID_2_" gradientUnits="userSpaceOnUse" x1="706.798" y1="139.353" x2="706.798" y2="60.76"><stop offset=".368" stop-color="#0158A8"/><stop offset=".779" stop-color="#00A3D8"/></linearGradient><path class="st2" d="M733.2 67.1c-4.4-4.2-11-6.3-19.9-6.3h-39.5v78.6h23.4v-29.2h13.4c9.9 0 17.2-2.2 22-6.7 4.8-4.5 7.2-10.7 7.2-18.6 0-7.7-2.2-13.7-6.6-17.8zm-20 24.8c-1.4 1.2-3.6 2-6.5 2.3-1 .1-2.1.2-3.4.2h-6V76.8h7c.9 0 1.7 0 2.4.1 3.3.2 5.5 1.1 6.9 2.5 1.7 1.7 2.5 3.8 2.5 6.3-.1 2.4-1 4.5-2.9 6.2z"/><path class="st0" d="M309.2 60.8h72.4v16.8h-24.4l.1 61.8h-23.8l-.1-61.8H309zM122.5 60.7H99.3l-25.9 78.6h23.9l3.3-12.9h20.5l3.4 12.9h23.8l-25.8-78.6zm-9.6 48.6h-7.6l5.4-28.2.3 1.4.6 2.7v.1l5.1 24.1h-3.8z"/><linearGradient id="SVGID_3_" gradientUnits="userSpaceOnUse" x1="772.454" y1="139.374" x2="772.454" y2="60.76"><stop offset=".368" stop-color="#0158A8"/><stop offset=".779" stop-color="#00A3D8"/></linearGradient><path class="st3" d="M784 60.8h-23.1L735 139.4h23.8l3.4-13h20.5l3.4 13H810l-26-78.6zm-11.5 48.6h-5.7l5.5-28.2.3 1.4 5.7 26.9h-5.8z"/><path class="st0" d="M0 112.3h22.9c.5 3.6 1.4 5.6 2.9 7.6 2.5 3.1 6 4.6 10.7 4.6 3.4 0 6.1-.8 8-2.3 1.9-1.6 2.8-3.4 2.8-5.5 0-2-.9-3.7-2.6-5.3-1.8-1.5-5.9-3-12.4-4.4-10.6-2.3-18.2-5.4-22.7-9.2-4.6-4-6.9-8.8-6.9-14.7 0-4 1.2-7.6 3.5-11.1s5.8-6.2 10.5-8.2c4.7-2 11.1-3 19.3-3 10 0 17.7 1.8 22.9 5.4 5.3 3.6 8.4 9.7 9.4 17.6h-23c-.6-3.4-1.7-4.9-3.6-6.5-1.9-1.5-4.6-2.3-8-2.3-2.9 0-5 .6-6.4 1.7-1.4 1.2-2.1 2.6-2.1 4.2 0 1.2.6 2.3 1.8 3.3 1.1 1 3.9 1.9 8.1 2.8 10.6 2.2 18.2 4.5 22.7 6.7 4.6 2.3 7.9 5.1 10 8.4 2.1 3.4 3.1 7.1 3.1 11.3 0 4.9-1.4 9.4-4.2 13.5-2.8 4.1-6.7 7.3-11.7 9.4-5 2.1-11.3 3.2-18.9 3.2-13.3 0-22.6-2.5-27.7-7.5-5.1-5.1-7.7-12-8.4-19.7"/><path class="st4" d="M886.8 61.7H901v3.8h-4.8v11.4h-4.6V65.5h-4.8zM903.1 61.7h6.1l2.4 9.2 2.3-9.2h6.1v15.2h-3.8V65.3l-2.9 11.6h-3.5l-2.9-11.6v11.6h-3.8z"/><linearGradient id="SVGID_4_" gradientUnits="userSpaceOnUse" x1="559.871" y1="191.675" x2="559.871"><stop offset=".442" stop-color="#0158A8"/><stop offset=".656" stop-color="#00A3D8"/></linearGradient><path class="st5" d="M559.9 0L464 95.8l95.8 95.8 95.8-95.8L559.9 0zm-18.7 154.2L513 125.9l29.3-29.4L513 67.2 541.2 39l29.4 29.4 28.3 28.3-57.7 57.5zm86.3-47.7L580 154l-10.8-10.8 47.5-47.5-47.5-47.5L580 37.5l58.3 58.3-10.8 10.7z"/></g><g class="st6 st7" id="raster"><defs><path id="SVGID_5_" d="M-4.5-326.9h944v207.2h-944z"/></defs><clipPath id="SVGID_6_"><use xlink:href="#SVGID_5_" overflow="visible"/></clipPath><g clip-path="url(#SVGID_6_)"><image width="1435" height="315" xlink:href="45E3EAEF424E8725.jpg" transform="translate(-4.467 -326.884) scale(.6578)" overflow="visible"/></g></g></svg>