<svg version="1" xmlns="http://www.w3.org/2000/svg" width="1732" height="629.333" viewBox="0 0 1299.000000 472.000000"><path d="M679 185.9V358h92V269.3l56.3-.6c58.8-.7 68.6-1.3 82.5-5.3 33.4-9.7 51.7-33.9 57.4-75.9 1.8-13.7 1.8-77.6 0-89.5-4.7-29.9-15-49.2-34.2-63.7-6.9-5.2-19.4-11.5-28.4-14.2-16.7-5.1-22-5.3-127.3-5.8l-98.3-.5v172.1zm177.8-93c6.7 3 12.7 9.8 14.7 16.4 2.4 8.1 3.8 26.1 3.1 40.1-.8 15.5-2 21.5-5.4 27.9-5.7 10.6-13.3 12-63.2 12.1l-34.5.1-.3-49.8-.2-49.8 40.2.3c40 .3 40.3.3 45.6 2.7zM1033.6 15.7c-.5 1.6-100.9 336-102.2 340.5-.5 1.7 2.2 1.8 47.3 1.8h47.9l7.4-26.3c4-14.4 7.7-27.7 8.2-29.5l.9-3.2h123.8l.9 3.2c.5 1.8 4.4 15.1 8.7 29.5l7.8 26.3h46.9c44.2 0 46.9-.1 46.4-1.8-.3-.9-23.7-77.9-52.1-171-28.3-93.1-51.7-169.7-52-170.2-.4-.6-27-1-70-1-65.2 0-69.4.1-69.9 1.7zM1148 231.2c0 .5-18.9.8-41.9.8-23.1 0-42.2-.3-42.4-.8-.2-.4 9-33.6 20.4-73.7 11.4-40.2 20.8-73.2 20.9-73.5.1-.6 43 146.1 43 147.2zM130.7 17C91.1 19 73 22.8 55.9 33 31 47.7 22 70.5 22 118.3c.1 45 8.4 67.9 29.8 81.8 18.3 12 34.7 15.3 96.7 19.9 52.1 3.8 57.2 4.5 63.4 9 7.7 5.6 11 17.3 9.1 32.2-1.6 12.8-7.5 20.3-19 24-5.2 1.6-62.7 2.3-70.4.8-16.7-3.3-23.2-11.4-24.3-30.8l-.6-9.2H21v6.2c0 12.1 2.1 35.4 4 44.7 3.2 15.7 11.2 29.8 22.2 38.8 14.5 11.9 32.7 17.2 69.8 20.5 19.6 1.7 90.8 1.7 105.5 0 38.3-4.5 61.3-15.6 74.7-36.1 9.9-15.2 13.3-33.2 13.2-71.6 0-37-2.6-49-13.4-63.7-12.7-17.2-34.6-26.8-70.5-30.8-5.5-.6-28.7-2.4-51.5-4-43.7-3.1-49.5-4-55-8.7-6.1-5.1-7.5-9.3-7.5-23.3 0-11.7.2-12.9 2.8-18.3 5.2-10.4 14.1-13.4 43.2-14.4 19.8-.6 32.2.5 40.9 3.8 10 3.7 13.6 10.1 14.4 25.2l.5 9.7 43.1-.2 43.1-.3.3-14.5c.8-36.9-9.8-61.8-32.4-76.3-13-8.3-27.1-12.4-51.4-14.6-15.6-1.5-65.7-2.1-86.3-1.1zM525 17c-47.7 5.9-91.2 30.3-119.5 67-6.2 8-16.2 24.6-19.5 32.2l-2.5 5.8h-19.2c-14.2 0-19.4.3-20 1.2-1.2 2-22.2 46.8-22.8 48.9-.6 1.8.5 1.9 24.2 2.1l24.8.3.2 13.7.2 13.8h-24.4l-11.2 24.3c-6.2 13.3-11.5 25-11.9 25.9-.6 1.7 1.3 1.8 30.2 1.8l30.9.1 3.9 8c8.5 17.5 24.6 38.5 39.4 51.2 27.2 23.4 57.1 37.2 92.2 42.3 15.9 2.3 46.1 1.5 60.5-1.6 20.2-4.3 40-12.1 56.8-22.3l6.7-4.2v-64.8l-9.4 9.1c-15.8 15.2-33.4 25.2-54.6 31-8.7 2.4-11.2 2.6-29 2.6-17.9 0-20.3-.2-29.2-2.7-12.5-3.3-26.4-9.4-36.4-15.9-7.7-5-26.8-23-31.3-29.6l-2.2-3.2H577.6l12-25.8 12-25.7-85.1-.5-85-.5-.5-8c-.3-4.4-.3-10.6-.2-13.7l.4-5.8 92-.2 91.9-.3L627 148l11.9-25.5-94.9-.3c-52.3-.1-95-.5-95-.8 0-1.8 10.5-14.9 17.5-21.9 37.2-36.8 92.7-45.6 139-22 12.2 6.2 20.5 12.4 31.3 23.3 5.1 5.2 9.4 9.2 9.6 9 .1-.1 4.9-10.4 10.6-22.7l10.4-22.4-5.4-4.9c-23.2-20.7-55.2-35.8-88-41.5-10.5-1.7-38.9-2.5-49-1.3zm36.1 3c21.6 2.2 40.1 7.3 58.7 16 11.9 5.7 29.9 17.3 38.1 24.7l5.4 4.9-8.8 19c-4.8 10.4-8.9 19.1-9.1 19.3-.2.2-4.5-3.6-9.6-8.5-14.4-13.8-27.2-21.6-46.3-28-35.6-11.9-74-6.8-106.3 14.2-10.9 7-27.9 24-35.1 34.9l-5.3 8 95.5.5 95.6.5-10.6 22.7-10.6 22.8H428.2l-.7 6.6c-.6 6.1.1 21.7 1.1 25.6.5 1.7 5.6 1.8 84.3 2l83.7.3-10.6 22.7-10.5 22.8H445.9l4.3 6.2c6.2 9 22 24.5 31.2 30.8 14.7 9.8 33.2 17.2 50.5 20.1 3.6.6 12.5 1.1 19.6 1.1 31.3 0 60.4-11.4 83.4-32.7l6.1-5.7v55l-7.8 4.6c-16.7 9.8-35.3 16.8-54.8 20.6-13.8 2.8-38.9 3.7-53.2 2.1-57.3-6.7-107.2-40.7-132.9-90.8l-5.8-11.3h-29.2c-16.1 0-29.3-.3-29.3-.8 0-.4 4.7-10.6 10.3-22.7l10.3-22 13.3-.3c11.5-.2 13.2-.5 12.7-1.8-.3-.9-.6-8.5-.6-17V171h-24c-13.2 0-24-.3-24-.8 0-.4 4.7-10.6 10.3-22.7l10.3-22 19.6-.3 19.6-.2 2.2-5.3c1.2-2.8 4.5-9.2 7.2-14 33.1-58.2 99.3-92.4 165.9-85.7zM33.9 383.8c-9.1 4.7-12.2 13.9-7.8 23 2.9 5.8 7.8 8.9 20.1 12.4 11.5 3.2 14.5 4.8 15.4 8.2 1.4 5.6-4 9.9-12.6 10-7 .1-10.4-1.9-13.5-8l-2-3.9-5.5.5c-5.5.5-5.5.5-5.4 3.7.5 9 8.3 16.4 19.4 18.3 12.9 2.2 24-1.2 29.5-8.9 2.6-3.7 3-5.1 3-10.9 0-11.9-5.1-16.6-23.5-21.7-11.8-3.3-14-4.6-14-8.5 0-4.1 3.8-6.4 10.5-6.4 6.2 0 9.7 1.9 11.5 6.4 1.3 3.2 1.4 3.2 7.1 2.8 3.2-.2 6.1-.7 6.4-1 1.5-1.5-1.9-9.5-5.4-12.8-4.7-4.5-9.7-6-19.9-6-6.8 0-8.8.4-13.3 2.8zM235 414.5V447h12v-65h-12v32.5zM345 414.5V447h50v-10h-37v-19h33v-10h-33v-15h35v-11h-48v32.5zM593 414.5V447h13V423.3l11-.6c15.3-.9 20.5-3.3 24.1-11.2 3.6-7.7 1.7-19.9-3.9-24.8-4.2-3.8-9-4.6-26.9-4.7H593v32.5zm32-20.2c1.3.7 3 2.9 3.8 4.9 3 7.8-3.1 12.8-15.5 12.8H606v-19h8.3c4.5 0 9.3.6 10.7 1.3zM1094.6 382.8c-.6 1-24.6 63.2-24.6 63.8 0 .2 3.1.4 6.9.4h6.8l2.8-7.5 2.7-7.6 13.1.3 13.1.3 2.9 7.2 2.9 7.3h6.9c3.8 0 6.9-.1 6.9-.3 0-.2-5.8-14.7-12.9-32.3l-13-31.9-6.9-.3c-3.9-.2-7.3.1-7.6.6zm12.2 26.5c2.3 6.2 4.2 11.6 4.2 12 0 .4-4.1.7-9.1.7-6.9 0-9-.3-8.7-1.3.3-.6 2.2-6 4.4-12 2.1-5.9 4.1-10.7 4.4-10.7.3 0 2.4 5.1 4.8 11.3zM967.3 387.3c-5.2 3.1-5.3 3.3-5.3 7.9 0 4.7-.1 4.8-3 4.8s-3 .1-3 5 .1 5 2.9 5h3l.3 16.4c.3 18.5.8 19.7 7.9 21.6 3.6 1 10.6.5 12.6-.9.5-.3.7-2.6.5-5.1l-.4-4.6-3.5.4c-2.3.3-3.8 0-4.4-.9-.5-.8-.9-7.1-.9-14.1v-12.7l4.3-.3 4.2-.3.3-4.8.3-4.7H974v-8c0-4.4-.3-8-.7-8-.5.1-3.2 1.5-6 3.3zM136.5 400.6c-1.6.8-4 2.5-5.2 3.6l-2.3 2.1V400h-12v47h12v-12.3c.1-15.1 1-20.2 4.4-23.5 3.3-3.4 8.7-3.5 11.9-.4 2.1 2.1 2.2 3.2 2.5 19.2l.3 17H160v-18c0-21.3-.9-24.9-7.1-28-4.6-2.4-12.2-2.6-16.4-.4zM184 401.2c-7.4 4-11 11.1-11 21.8 0 10 3.4 17.3 9.9 21.7 6.4 4.3 18.2 2.4 22.8-3.6 1-1.3 1.2-.5 1.3 4.7 0 5.4-.4 6.6-2.5 8.7-2 2.1-3.4 2.5-7.9 2.5-4.6 0-5.7-.4-7.3-2.4-1.5-2-3.1-2.5-8.7-3.1l-6.9-.7.7 3.4c.9 4.6 3.5 7.9 8.2 10.3 3.1 1.6 5.9 2 13.9 2 8.8 0 10.5-.3 14.2-2.4 2.9-1.6 5-3.9 6.3-6.6 1.8-3.8 2-6.2 2-30.8V400h-5.5c-5.5 0-5.5 0-5.5 3v3.1l-4-3.2c-5.6-4.5-13.5-5.1-20-1.7zm16.5 8.2c5 2.1 6.8 6.4 6.3 14.9-.3 6.3-.7 7.2-3.6 9.8-5.4 4.8-12.9 3.5-16.1-2.8-1.6-3.2-1.4-13.9.5-17.4.8-1.7 3-3.7 4.7-4.4 4-1.8 4.1-1.8 8.2-.1zM271.1 401.2c-11.2 5.5-15.6 23.6-8.9 36.6 3.7 7.1 9.8 10.5 19.1 10.6 6.1 0 8-.4 11.7-2.6 3.7-2.1 9-8.7 9-11 0-.3-2.5-.8-5.6-1.2-5.3-.6-5.7-.5-8.4 2.4-3.9 4.2-8.1 4.1-12.6-.4-2.1-2.1-3.4-4.4-3.4-6V427h31v-3.8c0-5.6-2.7-13.6-5.7-17.3-5.8-6.8-17.6-9-26.2-4.7zm16.7 10.2c1.2 1.2 2.4 3.5 2.5 5.2l.2 2.9h-18l.2-2.9c.5-7.6 9.5-10.7 15.1-5.2zM484.5 400.2c-1.1.6-3 2.3-4.2 3.7l-2.2 2.6-.1-3.3V400h-11v47h11.8l.4-14.8c.3-11.4.8-15.4 2.1-17.9 2-3.8 5.7-5.1 9.8-3.6 2.6 1 2.8.9 4.7-4.2l1.9-5.3-2.4-1.1c-3.1-1.4-8.2-1.4-10.8.1zM517.5 400.5c-5.3 2.1-11.1 7.9-13.1 13.2-2.4 6.2-1.6 18.7 1.6 23.7 9.6 15.7 34.5 14.6 42.9-1.8 3.3-6.5 3.5-17 .4-23.1-2.5-4.8-6.6-9.1-10.8-11.3-4.2-2.2-16-2.6-21-.7zm16.3 11c6.2 5.2 6.4 17.8.3 23.9-9.1 9.1-21.8-2.6-18-16.6 2.4-9.2 11.2-12.8 17.7-7.3zM665.5 400.1c-3.7 1.4-7.2 4.5-9.1 8.1-2.1 4.1-1.8 4.5 3.8 5.2 4.8.7 5.3.5 7.4-2.1 4.2-5.3 15.4-2.9 15.4 3.3 0 2.1-.9 2.5-10.2 4.6-11.7 2.6-15.5 4.8-18.1 10.1-6.7 13.6 11.4 25.2 25 16 2.8-1.9 3.8-2.2 4.4-1.1.5.7.9 1.6.9 2 0 .5 2.7.8 6.1.8 5.5 0 6-.2 5.3-1.8-.4-.9-1-9.8-1.3-19.7-.7-19.6-1.1-21.4-6.4-24.2-3.9-2-18.8-2.8-23.2-1.2zm17.5 28.4c0 9.2-8.8 14.8-14.7 9.3-4.6-4.3-1.8-8.9 6.7-11.2 7.9-2.1 8-2 8 1.9zM783.1 400.1c-1.3.5-3.6 1.8-5.2 3l-2.9 2v-2.5c0-2.5-.2-2.6-6-2.6h-6v47h13v-15.5c0-17.9.8-20.6 6.4-22.5 3.9-1.3 6.9-.3 8.6 3 .6 1 1 9.1 1 18.4V447h11.8l.4-15.3c.3-8.3 1-16.4 1.6-18 .7-1.5 2.7-3.5 4.7-4.4 3.4-1.6 3.6-1.6 6.3.4l2.7 2 .3 17.7.2 17.6h13.2l-.3-19.3c-.3-16.5-.7-19.7-2.2-22-5.3-8.1-17.5-9-25-1.9l-2.7 2.6-1.6-2.2c-3.2-4.6-12-6.6-18.3-4.1zM858 400.5c-7.9 3.6-12.1 10.4-12.8 21-.7 11.7 2.8 20 10.2 24.1 10.9 6.1 25.9 2.4 31.1-7.7.8-1.5 1.2-3 .7-3.2-.4-.3-3.3-.8-6.4-1.2-4-.5-5.8-.4-5.8.4 0 3.9-7.6 6.5-12.1 4.1-2.2-1.2-4.9-6.1-4.9-9 0-1.9.5-2 15.6-2h15.7l-.7-6.3c-.8-8-4.1-14.4-9.4-18.2-3.6-2.4-5.4-3-11-3.2-4.5-.2-7.9.2-10.2 1.2zm15.3 10.3c1.9 1.9 3.9 7.7 2.9 8.6-.3.3-4.5.6-9.4.6-8.6 0-8.8-.1-8.8-2.4 0-2.8 3.4-7.4 6.4-8.6 2.7-1.2 6.6-.3 8.9 1.8zM921.5 400.6c-1.6.8-4 2.5-5.2 3.6l-2.3 2.1V400h-12v47h12v-12.3c.1-15.1 1-20.2 4.4-23.5 3.3-3.4 8.7-3.5 11.9-.4 2.1 2.1 2.2 3.2 2.5 19.2l.3 17H945v-18c0-21.3-.9-24.9-7.1-28-4.6-2.4-12.2-2.6-16.4-.4zM1001.2 400.2c-4.2 1.4-8.9 6.8-9.8 11.2-.7 4.2 1.8 10.1 5.6 12.8 1.4.9 6.8 2.9 12 4.4 10.5 2.9 12 3.8 12 6.5 0 5-11.2 6.8-15.5 2.4-1.4-1.3-2.5-2.9-2.5-3.6 0-.9-1.7-1-6.2-.5-3.4.3-6.3.8-6.6 1-.9 1 4.1 8.3 7.2 10.4 4.7 3.2 13.8 4.6 21.1 3.3 10.2-1.9 16.3-8.9 15.2-17.4-.9-6.9-4.9-9.6-20.6-13.9-9.3-2.5-11.7-4.6-8.9-7.5 1.2-1.1 3.4-1.7 6.8-1.7 4.5-.1 5.5.3 7.6 2.7 2.3 2.7 2.7 2.8 7.6 2 2.8-.4 5.3-1.3 5.5-1.8.6-1.9-3.6-7.4-6.9-9.1-4-2.1-18.7-2.9-23.6-1.2zM1159.5 402.3l-3.5 3.5v-2.9c0-2.9 0-2.9-6-2.9h-6v47h12.9l.3-15.4c.3-14 .5-15.7 2.4-18.3 1.9-2.5 2.7-2.8 7.2-2.6l5 .2 1.6-4.6c1.9-5.7 1.4-6.4-5.3-7.1-4.7-.4-5.3-.2-8.6 3.1zM1193 400.5c-7.9 3.6-12.1 10.4-12.8 21-.7 11.7 2.8 20 10.2 24.1 10.9 6.1 25.9 2.4 31.1-7.7.8-1.5 1.2-3 .7-3.2-.4-.3-3.3-.8-6.4-1.2-4-.5-5.8-.4-5.8.4 0 3.9-7.6 6.5-12.1 4.1-2.2-1.2-4.9-6.1-4.9-9 0-1.9.5-2 15.6-2h15.7l-.7-6.3c-.8-8-4.1-14.4-9.4-18.2-3.6-2.4-5.4-3-11-3.2-4.5-.2-7.9.2-10.2 1.2zm15.3 10.3c1.9 1.9 3.9 7.7 2.9 8.6-.3.3-4.5.6-9.4.6-8.6 0-8.8-.1-8.8-2.4 0-2.8 3.4-7.4 6.4-8.6 2.7-1.2 6.6-.3 8.9 1.8zM1245.5 400.5c-2.2.8-4.1 1.5-4.2 1.5-.1 0-1.4 1.7-2.8 3.7-3.8 5.7-3.4 7 2.5 7.8 4.6.6 5.1.5 7.4-2.2 2-2.3 3.2-2.8 7-2.7 5.4.1 7.6 1.7 7.6 5.5 0 3.1-.1 3.1-10.9 5.4-9.5 2-13.9 4.1-16.2 7.9-3.6 6-1.5 15.3 4.3 18.9 5.5 3.5 15 2.8 20.9-1.4 3.4-2.4 3.9-2.4 3.9.1 0 1.8.7 2 6.5 2h6.5l-1.2-2.8c-.6-1.6-1.2-9.5-1.2-19.3-.1-18-.7-19.9-6.2-23.6-3.7-2.4-18.4-2.9-23.9-.8zm17.5 29.1c0 3.7-.5 5.1-2.9 7.5-5 4.9-13.1 3-13.1-3.1 0-3.7 2.1-5.7 7.3-7 2.3-.6 4.7-1.3 5.2-1.5 2.9-1 3.5-.3 3.5 4.1zM89 423.5V447h12v-47H89v23.5zM409 418.5c0 20.8.7 24.2 6.1 27.4 6.9 4.2 15.2 3.4 21.4-2l3.5-3.1v6.2h12v-47h-12.9l-.3 17c-.3 19.3-.9 20.7-8.6 21.7-3.4.5-4.4.1-6.6-2-2.6-2.6-2.6-2.7-2.6-19.7v-17h-12v18.5zM705 400.8c0 .5 3.9 11.2 8.6 23.7 5.9 15.8 8.3 23.6 7.9 25.3-1 4.2-5 7.2-9.5 7.2-4 0-4 0-4 3.8 0 2.1.5 4.3 1.2 5 1.5 1.5 8 1.6 12.9.2 6.8-1.9 8.4-4.8 19.9-36.2l10.7-29.3-6-.3c-3.3-.2-6.3.1-6.8.5-.4.4-2.8 7.5-5.4 15.8-2.6 8.2-5 15.3-5.4 15.7-.4.4-3.1-6.6-6.1-15.7l-5.4-16.5h-6.3c-3.5 0-6.3.4-6.3.8z"/></svg>