<?xml version="1.0" encoding="utf-8"?>
<!-- Generator: Adobe Illustrator 18.1.1, SVG Export Plug-In . SVG Version: 6.00 Build 0)  -->
<svg version="1.1" id="Layer_1" xmlns="http://www.w3.org/2000/svg" xmlns:xlink="http://www.w3.org/1999/xlink" x="0px" y="0px"
	 viewBox="-410 259 138 44" enable-background="new -410 259 138 44" xml:space="preserve">
<title>Badge / de_de / pay_now / descriptive / horizontal /pink</title>
<desc>Created with Sketch.</desc>
<g id="Badges">
	<g id="DE" transform="translate(-24.000000, -436.000000)">
		
			<g id="Badge-_x2F_-de_x5F_de-_x2F_-pay_x5F_now-_x2F_-descriptive-_x2F_-horizontal-_x2F_pink" transform="translate(24.000000, 436.000000)">
			<g id="Group-6">
				<g id="BG-_x2F_-Radius-5">
					<g id="BG">
					</g>
					<defs>
						<filter id="Adobe_OpacityMaskFilter" filterUnits="userSpaceOnUse" x="-410" y="259" width="138" height="44">
							<feColorMatrix  type="matrix" values="1 0 0 0 0  0 1 0 0 0  0 0 1 0 0  0 0 0 1 0"/>
						</filter>
					</defs>
					<mask maskUnits="userSpaceOnUse" x="-410" y="259" width="138" height="44" id="mask-2">
						<g filter="url(#Adobe_OpacityMaskFilter)">
							<path id="path-1" fill="#FFFFFF" d="M-405,259h128c2.8,0,5,2.2,5,5v34c0,2.8-2.2,5-5,5h-128c-2.8,0-5-2.2-5-5v-34
								C-410,261.2-407.8,259-405,259z"/>
						</g>
					</mask>
					<g id="Color-_x2F_-Pink" mask="url(#mask-2)">
						<rect id="BG_1_" x="-410" y="259" fill="#929292" width="138" height="44"/>
					</g>
				</g>
				<g id="Icons-_x2F_-Pay-now-_x2F_-White" transform="translate(16.000000, 5.000000)">
					<path id="_Path_" fill="#FFFFFF" d="M-401.4,283c0.7,0.6,0.7,1.7,0,2.4l-0.1,0.1c-0.7,0.7-1.8,0.7-2.4,0l-3.8-3.7
						c-1.1-1-1.2-2.3-0.5-3l0.1-0.1c0.6-0.6,1.5-0.6,2.1-0.1c0.3,0.2,0.7,0.2,1-0.1c0.2-0.3,0.2-0.7-0.1-0.9
						c-1.2-0.9-2.9-0.8-3.9,0.3l-0.1,0.1c-1.2,1.2-1,3.3,0.6,4.9l3.8,3.7c1.2,1.2,3.2,1.1,4.4-0.1l0.1-0.1c1.2-1.2,1.2-3.1-0.1-4.3
						c-0.3-0.3-0.7-0.3-1,0C-401.7,282.4-401.7,282.8-401.4,283z"/>
					<path id="_Path_2" fill="#FFFFFF" d="M-403.7,263l1.6,12.6c0,0.4,0.4,0.6,0.8,0.6c0.4,0,0.6-0.4,0.6-0.7l-1.6-12.6l0-0.1
						c-0.3-1,0.4-2.2,1.3-2.4c0.5-0.1,1,0,1.4,0.3c0.4,0.3,0.7,0.7,0.8,1.2l2.7,11.4c0.1,0.4,0.5,0.6,0.8,0.5s0.6-0.4,0.5-0.8
						l-2.7-11.3c-0.2-0.8-0.7-1.6-1.4-2c-0.7-0.5-1.6-0.6-2.5-0.5C-403.1,259.4-404.2,261.3-403.7,263z"/>
					<path id="_Path_3" fill="#FFFFFF" d="M-389.3,277.8l3.1-15c0.4-1.6-0.6-3.2-2.3-3.7c-1.8-0.5-3.7,0.6-4.2,2.4l-3.4,11.5
						c-0.1,0.4,0.1,0.7,0.5,0.8c0.4,0.1,0.7-0.1,0.9-0.5l3.4-11.5c0.3-1.1,1.4-1.7,2.5-1.4c0.9,0.3,1.5,1.2,1.3,2.2l-3.1,15.1
						c-0.1,0.4,0.2,0.7,0.5,0.8S-389.4,278.1-389.3,277.8z"/>
					<path id="Shape" fill="#FFFFFF" d="M-397.1,292.3c-4.9,0-9-3.5-9-8.5c0-0.4-0.3-0.7-0.7-0.7s-0.7,0.3-0.7,0.7
						c0,5.8,4.8,9.8,10.4,9.8c0.4,0,0.7-0.3,0.7-0.7S-396.7,292.3-397.1,292.3z"/>
					<path id="_Path_4" fill="#FFFFFF" d="M-399.6,280.5c-0.1,0.4-0.3,0.7-0.7,0.9l-0.1,0.1c-0.8,0.5-1.9,0.3-2.4-0.4l-3-4.4
						c-0.8-1.2-0.7-2.5,0.1-3l0.1-0.1c1-0.6,1.9-0.1,2.8,1.1l2.5,3.7c0.2,0.3,0.6,0.4,1,0.2c0.3-0.2,0.4-0.6,0.2-0.9l-2.5-3.7
						c-1.2-1.8-2.8-2.5-4.6-1.5l-0.2,0.1c-1.5,1-1.7,3.1-0.5,4.9l3,4.4c1,1.4,2.9,1.7,4.3,0.8l0.2-0.1c0.6-0.4,1-1,1.2-1.7
						c0.1-0.4-0.1-0.7-0.5-0.8C-399.1,280-399.5,280.2-399.6,280.5z"/>
					<path id="Shape_1_" fill="#FFFFFF" d="M-395,282.7c-1.4,0.8-2.3,2.2-2.4,4.5c0,0.4,0.3,0.7,0.7,0.7c0.4,0,0.7-0.3,0.7-0.6
						c0.1-2,0.9-3.1,2.2-3.6c0.7-0.3,1.5-0.3,2.1-0.2c0.1,0,0.1,0,0.2,0c0.9,0.2,1.2-1.1,0.3-1.3l-5.3-1.2c-2.5-0.7-2.9-1.6-2.4-3
						c0.2-0.6,0.6-1,1.2-1.1c0.4-0.1,0.9-0.1,1.3,0c0.1,0,0.2,0,0.3,0.1l8.1,1.8c0.1,0,0.1,0,0.2,0c0.1,0.1,0.3,0.2,0.4,0.3
						c0.5,0.6,0.8,1.6,0.7,3.4c-0.5,6.1-3.4,9.9-10.4,9.8c-0.4,0-0.7,0.3-0.7,0.7s0.3,0.7,0.7,0.7c7.8,0.1,11.2-4.3,11.8-11
						c0.2-2.1-0.2-3.5-1.1-4.4c-0.5-0.5-0.9-0.7-1.3-0.7l-8-1.8c-0.1,0-0.2,0-0.4-0.1c-0.6-0.1-1.2-0.1-1.8,0
						c-1.1,0.2-1.9,0.9-2.2,2c-0.7,2.2,0,3.8,3.4,4.7L-395,282.7z"/>
				</g>
			</g>
			<path id="Sofort.-Copy" fill="#FFFFFF" d="M-349.3,289.3c3,0,5.3-2,5.3-5c0-2.7-1.9-3.9-4.3-4.6c-1.5-0.4-2.5-0.8-2.5-1.8
				c0-0.9,0.7-1.6,1.7-1.6c0.9,0,1.5,0.5,2,1.3l2.5-1.6c-0.8-1.7-2.5-2.6-4.4-2.6c-3,0-4.9,2.2-4.9,4.6c0,2,1.2,3.5,4.1,4.4
				c1.6,0.5,2.6,0.8,2.6,2c0,1.2-0.9,1.9-2.1,1.9c-1.3,0-2.4-0.9-3-1.6l-2.1,2.1C-353.2,288.3-351.4,289.3-349.3,289.3z
				 M-336.5,289.3c-3.2,0-5.7-2.5-5.7-5.6c0-3.1,2.6-5.6,5.7-5.6s5.7,2.5,5.7,5.6C-330.7,286.8-333.3,289.3-336.5,289.3z
				 M-336.5,286.5c1.5,0,2.8-1.2,2.8-2.8c0-1.6-1.2-2.8-2.8-2.8s-2.8,1.2-2.8,2.8C-339.2,285.3-338,286.5-336.5,286.5z
				 M-322.6,276.4v-2.8h-0.4c-3.7,0-5.4,2.4-5.4,5.3V289h3v-4.4c0-1.5,1.1-2.5,2.8-2.6v-2.9c-1.2,0-2.1,0.4-2.8,1.1V279
				C-325.5,277.2-324.2,276.4-322.6,276.4z M-315,289.3c-3.2,0-5.7-2.5-5.7-5.6c0-3.1,2.6-5.6,5.7-5.6s5.7,2.5,5.7,5.6
				C-309.2,286.8-311.8,289.3-315,289.3z M-315,286.5c1.5,0,2.8-1.2,2.8-2.8c0-1.6-1.2-2.8-2.8-2.8c-1.5,0-2.8,1.2-2.8,2.8
				C-317.7,285.3-316.5,286.5-315,286.5z M-304,279.6v-1.2h-2.9V289h3v-4.9c0-1.8,1-2.8,2.8-2.8v-3.2
				C-302.4,278.1-303.4,278.6-304,279.6z M-295.6,283.6V281c0.7,0.7,1.6,1.1,2.8,1.1v-2.9c-1.6,0-2.8-1.1-2.8-2.6v-1.7h-3v8.8
				c0,2.9,1.8,5.3,5.4,5.3h0.4v-2.8C-294.4,286.2-295.6,285.4-295.6,283.6z M-288.4,289.2c1.1,0,2-0.9,2-2c0-1.1-0.9-2-2-2
				s-2,0.9-2,2C-290.4,288.3-289.5,289.2-288.4,289.2z"/>
		</g>
	</g>
</g>
</svg>
