<svg id="Layer_1" xmlns="http://www.w3.org/2000/svg" viewBox="0 0 236.4 151"><style>.st0{fill:none;} .st1{fill:#727272;} .st2{fill:#5C5C5C;} .st3{fill:#4C4C4C;} .st4{fill:#585858;} .st5{fill:#6F6F6F;} .st6{fill:#FFFFFF;}</style><path class="st0" d="M101.8 0H48.1 101.8zM0 140.9V151h11.4C5 150.9.5 146.7 0 140.9z"/><path class="st1" d="M166.5 0h-23.3 23.3z"/><path class="st2" d="M54.1 136.4L81.6 14.6C83.4 6.6 93.5.2 101.5 0H48.1C40 0 29.7 6.5 27.9 14.6L.3 136.4c-.2.7-.3 1.5-.3 2.2v2.3c.5 5.8 5 10.1 11.4 10.2h53.7c-7.9-.2-12.9-6.7-11-14.7z"/><path class="st3" d="M143.2 0H101.5h41.7z"/><path class="st4" d="M119.1 136.4l27.5-121.8C148.4 6.7 158.4.3 166.4 0H101.6c-8 .2-18.1 6.6-19.9 14.6L54.1 136.4c-1.8 8 3.1 14.5 11.1 14.6h65c-8-.1-12.9-6.6-11.1-14.6z"/><path class="st5" d="M224.7 0H166.4c-8 .2-18 6.7-19.8 14.6l-27.5 121.8c-1.8 8 3.1 14.5 11.1 14.6h61.2c7.8-.4 15.4-6.7 17.2-14.5L236 14.7C237.8 6.6 232.8 0 224.7 0z"/><path class="st6" d="M102.6 88.8h1c.9 0 1.6-.3 1.8-.9L108 84h7l-1.5 2.6h8.4l-1.1 4h-10c-1.2 1.7-2.6 2.6-4.3 2.5h-5.2l1.3-4.3m-1.1 5.7H120l-1.2 4.3h-7.4l-1.1 4.2h7.2l-1.2 4.3H109l-1.7 6.1c-.4 1 .1 1.5 1.6 1.4h5.9l-1.1 4h-11.3c-2.1 0-2.9-1.2-2.2-3.7l2.1-7.8h-4.6l1.2-4.3h4.6l1.1-4.2h-4.4l1.3-4.3zM131 83.9l-.3 2.5s3.5-2.6 6.7-2.6H149l-4.5 16.2c-.4 1.9-2 2.8-4.8 2.8h-13.3l-3.1 11.4c-.2.6.1.9.7.9h2.6l-1 3.5H119c-2.5 0-3.6-.8-3.2-2.3l8.8-32.4h6.4zm9.9 4.6h-10.4l-1.2 4.4s1.7-1.3 4.6-1.3h6.2l.8-3.1zm-3.8 10.1c.8.1 1.2-.2 1.3-.9l.6-2.3h-10.5l-.9 3.2h9.5zm-7 5.2h6l-.1 2.6h1.6c.8 0 1.2-.3 1.2-.8l.5-1.7h5l-.7 2.5c-.6 2.1-2.1 3.1-4.5 3.2h-3.2v4.5c-.1.7.6 1.1 1.9 1.1h3l-1 3.5h-7.2c-2 .1-3-.9-3-2.9l.5-12zM155.7 89l1.4-4.9h7.1l-.3 1.8s3.6-1.8 6.2-1.8h8.7l-1.4 4.9H176l-6.6 23.2h1.4l-1.3 4.6h-1.4l-.6 2h-6.8l.6-2h-13.5l1.3-4.6h1.4L157 89h-1.3m7.6 0l-1.8 6.3s3.1-1.2 5.7-1.5c.6-2.2 1.4-4.8 1.4-4.8h-5.3zm-2.6 9.2l-1.8 6.6s3.4-1.7 5.8-1.8c.7-2.5 1.4-4.8 1.4-4.8h-5.4zm1.3 14l1.4-4.8h-5.3l-1.4 4.8h5.3zm17.1-28.5h6.6l.3 2.5c0 .6.3.9 1.1.9h1.2l-1.2 4.2h-4.9c-1.9.1-2.8-.6-2.9-2.2l-.2-5.4zm-2 8.9h21.5l-1.3 4.5h-6.9l-1.2 4.1h6.8l-1.3 4.5h-7.6l-1.7 2.6h3.7l.9 5.2c.1.5.6.8 1.4.8h1.2l-1.2 4.3h-4.1c-2.1.1-3.2-.6-3.3-2.1l-1-4.8-3.4 5.1c-.8 1.4-2 2.1-3.7 2h-6.3l1.2-4.3h2c.8 0 1.5-.4 2.1-1.1l5.3-7.7h-6.9l1.3-4.5h7.4l1.2-4.1h-7.4l1.3-4.5zM57 62.3c-.8 4-2.7 7.1-5.7 9.3-2.9 2.1-6.7 3.2-11.3 3.2-4.3 0-7.5-1.1-9.5-3.3-1.4-1.6-2.1-3.6-2.1-6 0-1 .1-2.1.4-3.2l4.9-23.6h7.4L36.3 62c-.1.6-.2 1.2-.2 1.8 0 1.2.3 2.2.9 2.9.9 1.1 2.3 1.7 4.3 1.7 2.3 0 4.2-.6 5.6-1.7 1.5-1.1 2.4-2.7 2.8-4.8l4.9-23.4H62l-5 23.8M63.8 53H69l-.6 3 .8-.9c1.7-1.8 3.8-2.7 6.2-2.7 2.2 0 3.8.6 4.8 1.9 1 1.3 1.2 3.1.8 5.3L78.1 74h-5.4l2.6-13c.3-1.3.2-2.3-.2-3-.4-.6-1.2-1-2.3-1-1.4 0-2.5.4-3.5 1.3s-1.6 2.1-1.9 3.6L65 74.1h-5.4L63.8 53M123.8 53h5.2l-.6 3 .7-.9c1.7-1.8 3.8-2.7 6.2-2.7 2.2 0 3.8.6 4.8 1.9 1 1.3 1.3 3.1.8 5.3L138 74.1h-5.4l2.6-13c.3-1.3.2-2.3-.2-3-.4-.6-1.2-1-2.3-1-1.4 0-2.5.4-3.5 1.3s-1.6 2.1-1.9 3.6L125 74.1h-5.4l4.2-21.1M88.1 53h5.8l-4.5 21.1h-5.8L88.1 53m1.8-7.7h5.8l-1.1 5.1h-5.8l1.1-5.1zM99 72.5c-1.5-1.4-2.3-3.4-2.3-5.9 0-.4 0-.9.1-1.4s.1-1.1.2-1.5c.7-3.4 2.2-6.1 4.4-8.2 2.3-2 5-3 8.1-3 2.6 0 4.7.7 6.2 2.2s2.3 3.4 2.3 6c0 .4 0 .9-.1 1.5-.1.5-.1 1.1-.2 1.6-.7 3.4-2.1 6.1-4.4 8-2.3 2-5 3-8.1 3-2.6-.2-4.7-.9-6.2-2.3m11.1-4.2c1-1.1 1.8-2.8 2.2-5 .1-.3.1-.7.2-1.1 0-.4.1-.7.1-1 0-1.3-.3-2.3-1-3s-1.6-1.1-2.8-1.1c-1.6 0-2.9.6-3.9 1.7s-1.8 2.8-2.2 5.1c-.1.3-.1.7-.2 1v1c0 1.3.3 2.3 1 3s1.6 1.1 2.8 1.1c1.4 0 2.8-.6 3.8-1.7M149.7 39.9h15.2c2.9 0 5.2.7 6.7 2s2.3 3.2 2.3 5.7v.1c0 .5 0 1-.1 1.6s-.2 1.1-.3 1.7c-.7 3.3-2.2 5.9-4.6 7.9-2.4 2-5.3 3-8.5 3h-8.1l-2.5 12.4h-7.1l7-34.4m3.8 15.9h6.8c1.8 0 3.2-.4 4.2-1.2s1.7-2.1 2.1-3.8c.1-.3.1-.6.1-.9 0-.2.1-.5.1-.7 0-1.2-.4-2.1-1.3-2.6-.9-.6-2.2-.8-4.1-.8h-5.7l-2.2 10zM205.5 78.2c-2.2 4.7-4.4 7.5-5.6 8.8-1.2 1.3-3.7 4.2-9.7 4l.5-3.6c5-1.5 7.7-8.5 9.3-11.6l-1.8-22.7 3.8-.1h3.3l.3 14.2 6.1-14.2h6.2l-12.4 25.2M188.2 54.7l-2.5 1.7c-2.6-2-4.9-3.2-9.4-1.2-6.1 2.9-11.3 24.8 5.7 17.6l1 1.1 6.7.2 4.4-19.9-5.9.5m-3.8 10.9c-1.1 3.2-3.5 5.2-5.3 4.7-1.9-.6-2.5-3.6-1.5-6.8 1.1-3.2 3.5-5.2 5.3-4.7 1.9.6 2.6 3.6 1.5 6.8"/></svg>