<svg id="svg2" xmlns="http://www.w3.org/2000/svg" xmlns:xlink="http://www.w3.org/1999/xlink" viewBox="0 0 200 127"><style>.st0{fill:#FFFFFF;} .st1{fill:#B5B5B5;} .st2{fill:#272727;} .st3{clip-path:url(#SVGID_2_);}</style><g id="layer1"><g id="g4145"><path id="path4147" class="st0" d="M200 127.065H-.002V.027H200v127.038z"/><path id="path4149" class="st1" d="M3.332 106.417h193.335v17.315H3.332v-17.315z"/><path id="path4151" class="st2" d="M3.332 20.675h193.335V3.36H3.332v17.315z"/><g transform="matrix(.926 0 0 -.926 -183.892 429.475)" id="g4153"><defs><path id="SVGID_1_" d="M22.7 29.3h566.7v733.3H22.7z"/></defs><clipPath id="SVGID_2_"><use xlink:href="#SVGID_1_" overflow="visible"/></clipPath><g id="g4155" class="st3"><g id="g4161"><path id="path4163" class="st2" d="M302.448 424.608l-10.5-48.9h-12.7l10.5 48.9h12.7zm53.2-31.6l6.7 18.4 3.8-18.4h-10.5zm14.2-17.3h11.7l-10.3 48.9h-10.8c-2.4 0-4.5-1.4-5.4-3.6l-19-45.3h13.4l2.6 7.3h16.2l1.6-7.3zm-33.1 16c.1 12.9-17.8 13.6-17.7 19.3 0 1.8 1.7 3.6 5.4 4.1 1.8.2 6.8.4 12.5-2.2l2.2 10.4c-3 1.1-7 2.2-11.8 2.2-12.6 0-21.4-6.7-21.5-16.2-.1-7 6.3-11 11.1-13.3 4.9-2.4 6.6-3.9 6.6-6.1 0-3.3-3.9-4.7-7.6-4.8-6.4-.1-10.1 1.7-13 3.1l-2.3-10.7c3-1.4 8.4-2.5 14.1-2.6 13.3 0 22 6.6 22 16.8m-52.4 32.9l-20.5-48.9h-13.4l-10.1 39c-.6 2.4-1.1 3.3-3 4.3-3 1.7-8.1 3.2-12.5 4.2l.3 1.4h21.5c2.7 0 5.2-1.8 5.8-5l5.3-28.3 13.3 33.3h13.3z"/></g><g id="g4165"><path id="path4167" class="st2" d="M318.644 362.227h-5.1v-4.8h5.8v-1.4h-7.5v13.3h7.2v-1.5h-5.5v-4.2h5.1v-1.4z"/></g><path id="path4169" class="st2" d="M321.9 370h1.7v-14h-1.7v14z"/><g id="g4171"><path id="path4173" class="st2" d="M333.098 361.695c0 1.1-.5 2.8-2.4 2.8-1.8 0-2.5-1.6-2.7-2.8h5.1zm-5.1-1.2c0-2.3 1.5-3.3 3.3-3.3 1.2 0 2 .2 2.6.5l.3-1.2c-.6-.4-1.6-.7-3.1-.7-2.9 0-4.7 2-4.7 4.8s1.7 5.1 4.4 5.1c3.1 0 3.9-2.7 3.9-4.5 0-.4 0-.6-.1-.8.1.1-6.6.1-6.6.1z"/></g><g id="g4175"><path id="path4177" class="st2" d="M344.204 356.337c-.5-.2-1.5-.6-2.7-.6-2.9 0-4.7 2-4.7 4.9 0 2.9 2 5.1 5.1 5.1 1 0 1.9-.3 2.4-.5l-.4-1.3c-.5.2-1.1.4-2.1.4-2.2 0-3.4-1.6-3.4-3.6 0-2.2 1.4-3.6 3.3-3.6 1 0 1.6.2 2.1.5l.4-1.3z"/></g><g id="g4179"><path id="path4181" class="st2" d="M349.066 367.82v-2.3h2.5v-1.3h-2.5v-5.1c0-1.2.3-1.9 1.3-1.9.5 0 .7 0 1 .1l.1-1.3c-.4-.1-.9-.2-1.6-.2-.8 0-1.4.2-1.8.7-.5.5-.7 1.4-.7 2.5v5.2h-1.5v1.3h1.5v1.8l1.7.5z"/></g><g id="g4183"><path id="path4185" class="st2" d="M353.97 362.562c0 1.1 0 2.1-.1 3h1.5l.1-1.9h.1c.4 1.3 1.5 2.1 2.6 2.1h.5v-1.7h-.6c-1.2 0-2.1-.9-2.3-2.2 0-.2-.1-.5-.1-.8v-5.1h-1.7v6.6z"/></g><g id="g4187"><path id="path4189" class="st2" d="M361.786 360.75c0-2.1 1.2-3.7 2.9-3.7s2.9 1.6 2.9 3.7c0 1.6-.8 3.6-2.9 3.6-2 .1-2.9-1.8-2.9-3.6m7.5.1c0-3.5-2.4-5.1-4.7-5.1-2.6 0-4.6 1.9-4.6 4.9 0 3.2 2.1 5 4.7 5 2.8.1 4.6-1.9 4.6-4.8"/></g><g id="g4191"><path id="path4193" class="st2" d="M371.987 362.956c0 1 0 1.8-.1 2.6h1.5l.2-1.6c.5.9 1.6 1.8 3.2 1.8 1.3 0 3.4-.8 3.4-4.1v-5.7h-1.8v5.5c0 1.5-.6 2.8-2.2 2.8-1.1 0-2-.8-2.3-1.8-.1-.1-.2-.4-.2-.7v-5.8h-1.7v7z"/></g></g></g></g></g></svg>