<svg xmlns="http://www.w3.org/2000/svg" viewBox="0 0 500.00001 162.81594" height="162.816" width="500"><defs><clipPath id="a"><path d="M413.742 90.435c-.057-4.494 4.005-7.002 7.065-8.493 3.144-1.53 4.2-2.51 4.188-3.88-.024-2.093-2.508-3.017-4.833-3.053-4.056-.064-6.414 1.094-8.29 1.97l-1.46-6.837c1.88-.867 5.364-1.623 8.976-1.656 8.478 0 14.025 4.185 14.055 10.674.033 8.236-11.39 8.692-11.313 12.373.027 1.116 1.092 2.307 3.426 2.61 1.155.153 4.344.27 7.96-1.395l1.418 6.615c-1.944.708-4.443 1.386-7.554 1.386-7.98 0-13.593-4.243-13.638-10.315m34.827 9.744c-1.55 0-2.854-.904-3.436-2.29l-12.11-28.917h8.47l1.687 4.66h10.354l.978-4.66h7.467l-6.517 31.206h-6.894m1.184-8.43l2.445-11.72h-6.697l4.25 11.72m-46.283 8.43l-6.678-31.207h8.073l6.675 31.206h-8.07m-11.943 0l-8.403-21.24-3.4 18.06c-.398 2.015-1.973 3.18-3.722 3.18h-13.737l-.192-.907c2.82-.612 6.024-1.6 7.965-2.655 1.188-.645 1.527-1.21 1.917-2.742l6.438-24.903h8.532l13.08 31.206h-8.478"/></clipPath><linearGradient id="b" gradientTransform="scale(89.728) rotate(20.218 .966 .457)" gradientUnits="userSpaceOnUse" x2="1"><stop offset="0" stop-color="#222357"/><stop offset="1" stop-color="#254aa5"/></linearGradient></defs><g clip-path="url(#a)" transform="matrix(4.9847 0 0 -4.9847 -1803.82 503.202)"><path d="M0 0l98.437 36.252 22.394-60.81-98.435-36.25" fill="url(#b)" transform="translate(351.61 96.896)"/></g></svg>