<svg version="1" xmlns="http://www.w3.org/2000/svg" width="266.667" height="86.667" viewBox="0 0 200.000000 65.000000"><path d="M116.5 3.3c-11 5.4-15.6 14.3-11.7 23 2.1 4.7 5.5 7.7 14 12.3 5.9 3.1 7.7 5.4 6.7 8.5-.7 2.3-6 4.9-9.8 4.9-2.2 0-11.4-2.2-14.8-3.5-1.2-.5-1.8.7-2.8 6.1-.6 3.6-1 6.8-.8 7 .2.3 3.7 1.2 7.8 2 17.8 3.8 33.9-2.9 36.8-15.4 2.4-9.8-1.1-15.5-13.9-22.3-3.6-1.9-6.7-4.3-7.3-5.7-1-2.1-.8-2.7 1.3-4.4 2.2-1.7 3.5-2 10-1.5 4.1.2 8.2.8 9.2 1.1 1.3.6 1.9-.3 3.1-5.6 1.8-8 1.6-8.1-12.3-8.6-9.5-.3-11-.1-15.5 2.1zM1 2.7c0 .5 3.3 1.8 7.3 3 3.9 1.2 8 2.8 9 3.5 1.3 1 3.6 8.1 7.7 24 3.2 12.4 6.4 24.4 7 26.7l1.1 4.1H49.8l5.6-13.3c3.1-7.2 8.9-21.1 12.9-30.7l7.4-17.5-8-.3c-4.4-.2-8.3.1-8.7.5-.4.4-4.3 9.8-8.6 20.7l-7.9 19.9-1.2-5.9c-.7-3.2-2.3-11.7-3.7-18.8-1.5-7.7-3.2-13.6-4.2-14.7C31.9 2.2 30.1 2 16.3 2 7.9 2 1 2.3 1 2.7zM82.5 3.2C81.8 5.5 70 61.6 70 62.8c0 .8 2.4 1.2 8 1.2 4.4 0 8-.3 8-.8 0-.6 11-52.6 12.5-59C99 2.1 98.8 2 91 2c-5.6 0-8.2.4-8.5 1.2zM167.8 3.7c-1.2 1.3-20.6 46.2-25.5 59-.4 1 1.6 1.3 8 1.3h8.5l1.4-4.3 1.5-4.2 10.6-.3 10.6-.3.8 4.3.9 4.3 7.2.3c6.4.3 7.2.1 7.2-1.5 0-1.1-2.7-14.7-6-30.3-3.3-15.7-6-28.8-6-29.3 0-.4-4-.7-8.8-.7-7.2 0-9.2.3-10.4 1.7zm9.6 25c1 4.9 2 9.8 2.3 11 .5 2.2.3 2.3-6.2 2.3-4.9 0-6.6-.3-6.3-1.3.3-.6 2-5.6 3.9-10.9 1.9-5.4 3.6-9.8 3.9-9.8.3 0 1.4 3.9 2.4 8.7z"/></svg>