<svg xmlns="http://www.w3.org/2000/svg" viewBox="0 0 200 127.04563" height="127.046" width="200"><defs><clipPath id="a"><path d="M0 792h612V0H0v792z"/></clipPath></defs><path d="M200 127.046H0V0h200v127.046z" fill="#fff"/><path d="M3.33 106.4h193.333v17.336H3.33V106.4z" fill="#f7b600"/><path d="M3.33 20.666h193.333V3.332H3.33v17.334z" fill="#1a1f71"/><g clip-path="url(#a)" transform="matrix(.926 0 0 -.926 -183.892 429.475)"><path d="M302.448 424.608l-10.464-48.917h-12.656l10.464 48.918h12.656zm53.24-31.586l6.664 18.37 3.828-18.37h-10.492zm14.127-17.33h11.7l-10.222 48.916h-10.796c-2.435 0-4.48-1.413-5.39-3.586l-18.99-45.33h13.29l2.637 7.306h16.237l1.535-7.307zm-33.037 15.97c.053 12.908-17.848 13.624-17.73 19.392.042 1.753 1.712 3.62 5.368 4.097 1.81.235 6.814.422 12.48-2.19l2.218 10.38c-3.045 1.1-6.963 2.16-11.837 2.16-12.51 0-21.312-6.644-21.382-16.167-.082-7.044 6.286-10.97 11.075-13.316 4.933-2.396 6.587-3.936 6.564-6.077-.035-3.282-3.94-4.735-7.57-4.79-6.364-.1-10.054 1.72-12.997 3.092l-2.297-10.723c2.96-1.358 8.418-2.537 14.07-2.597 13.3 0 22 6.57 22.038 16.74m-52.415 32.945L263.86 375.69h-13.38l-10.09 39.04c-.61 2.4-1.143 3.283-3.005 4.297-3.043 1.653-8.068 3.2-12.485 4.16l.298 1.42h21.537c2.74 0 5.21-1.824 5.836-4.984l5.333-28.31 13.163 33.295h13.297zM318.644 362.227h-5.142v-4.786h5.752v-1.438h-7.485v13.278h7.19v-1.44h-5.457v-4.194h5.142v-1.42zM321.91 369.988h1.734v-13.986h-1.733v13.986zM333.098 361.695c.02 1.083-.453 2.797-2.403 2.797-1.773 0-2.522-1.596-2.66-2.797h5.063zm-5.082-1.24c.04-2.346 1.517-3.31 3.27-3.31 1.24 0 2.01.216 2.64.49l.315-1.24c-.61-.275-1.673-.61-3.19-.61-2.935 0-4.688 1.95-4.688 4.826 0 2.877 1.693 5.123 4.47 5.123 3.133 0 3.94-2.72 3.94-4.472 0-.353-.02-.61-.06-.806h-6.696zM344.204 356.337c-.453-.217-1.458-.552-2.738-.552-2.876 0-4.747 1.95-4.747 4.866 0 2.936 2.007 5.083 5.12 5.083 1.024 0 1.93-.255 2.403-.512l-.393-1.32c-.415.218-1.065.455-2.01.455-2.187 0-3.368-1.635-3.368-3.606 0-2.207 1.418-3.566 3.31-3.566.984 0 1.634.236 2.126.453l.296-1.3zM349.066 367.82v-2.284h2.48v-1.32h-2.48v-5.14c0-1.184.335-1.853 1.3-1.853.472 0 .75.04 1.005.12l.08-1.322c-.335-.117-.867-.235-1.537-.235-.808 0-1.458.276-1.87.728-.474.533-.67 1.38-.67 2.502v5.202h-1.48v1.32h1.48v1.772l1.693.51zM353.97 362.562c0 1.123-.022 2.088-.08 2.975h1.517l.08-1.89h.057c.434 1.28 1.497 2.087 2.66 2.087.177 0 .315-.02.473-.04v-1.635c-.178.04-.354.04-.592.04-1.22 0-2.088-.907-2.324-2.208-.038-.236-.058-.53-.058-.808v-5.082h-1.733v6.56zM361.786 360.75c0-2.09 1.182-3.665 2.876-3.665 1.655 0 2.895 1.557 2.895 3.704 0 1.614-.807 3.644-2.856 3.644-2.027 0-2.914-1.892-2.914-3.685m7.545.098c0-3.526-2.462-5.063-4.747-5.063-2.56 0-4.57 1.892-4.57 4.905 0 3.172 2.108 5.043 4.728 5.043 2.74 0 4.59-1.99 4.59-4.885M371.987 362.956c0 1.004-.02 1.792-.08 2.58h1.537l.1-1.576h.038c.473.887 1.576 1.773 3.152 1.773 1.32 0 3.368-.788 3.368-4.057v-5.674h-1.733v5.496c0 1.536-.572 2.817-2.207 2.817-1.123 0-2.01-.808-2.324-1.773-.08-.217-.12-.512-.12-.808v-5.732h-1.733v6.954z" fill="#1a1f71"/></g></svg>