<svg id="svg3355" xmlns="http://www.w3.org/2000/svg" viewBox="0 0 300 324.8"><style>.st0{fill:#343434;} .st1{fill:#FFFFFF;}</style><path id="path8681" class="st0" d="M299 1H1v322.8h298V1z"/><path id="path8683" class="st1" d="M291.5 210.7H8.5V8.5h283.1v202.2z"/><path id="path8685" class="st0" d="M221.6 45.2l-55.5 132.6h-36.3L102.4 71.9c-1.6-6.5-3.1-8.9-8.1-11.7C86 55.8 72.4 51.6 60.4 49l.8-3.8h58.4c7.4 0 14.1 4.9 15.8 13.5l14.5 76.7 35.7-90.2h36"/><path id="path8687" class="st1" d="M87.3 262.5c1.3.4 3.1.5 5.3.5 8.1 0 13-4.1 13-11.4 0-6.9-4.6-10.5-12-10.5-2.9 0-5.1.3-6.2.6v20.8zm-10.6-28.7c3.9-.7 9.2-1.3 16.5-1.3 7.9 0 13.7 1.7 17.4 5 3.5 3 5.8 7.8 5.8 13.6s-1.8 10.7-5.1 14c-4.3 4.5-11 6.6-18.7 6.6-2 0-3.9-.1-5.3-.4v23.2H76.7v-60.7z"/><path id="path8689" class="st1" d="M157 268.6l-4.6-15.2c-1.1-3.8-2.1-8-3-11.5h-.2c-.9 3.6-1.8 7.9-2.8 11.5l-4.6 15.2H157zm-17 8.5l-5.1 17.5h-11.1l18.9-61.6h13.8l19.2 61.6h-11.6l-5.4-17.5H140z"/><path id="path8691" class="st1" d="M198.4 294.6v-25.7L179.7 233H192l7.1 15.8c2 4.6 3.5 8 5.1 12.3h.2c1.5-3.9 3.2-7.8 5.2-12.3l7.1-15.8h12.2l-19.6 35.7v26h-10.9z"/></svg>