<svg xmlns="http://www.w3.org/2000/svg" width="300" height="324.844" viewBox="0 0 240.00001 259.87533"><path d="M239.2.8H.8v258.275h238.4zm0 0" fill="#1c3378"/><path d="M233.234 168.526H6.766V6.766h226.468zm0 0" fill="#fff"/><path d="M177.285 36.128l-44.434 106.07h-29.03L81.95 57.53c-1.32-5.203-2.48-7.11-6.505-9.33-6.625-3.556-17.516-6.92-27.09-9.02l.642-3.052h46.688c5.95 0 11.308 3.954 12.66 10.788l11.568 61.377 28.547-72.165h28.825" fill="#1c3378"/><path d="M69.878 209.977c1.058.294 2.463.38 4.214.38 6.452 0 10.39-3.312 10.39-9.087 0-5.48-3.643-8.41-9.626-8.41-2.36 0-4.06.224-4.978.45zm-8.55-22.963c3.087-.59 7.37-1.023 13.198-1.023 6.313 0 10.926 1.388 13.944 4.025 2.81 2.41 4.63 6.278 4.63 10.91 0 4.664-1.404 8.53-4.075 11.185-3.434 3.573-8.828 5.255-14.933 5.255-1.595 0-3.087-.087-4.214-.295v18.592h-8.55zm0 0M125.567 214.885l-3.71-12.14c-.92-3-1.684-6.365-2.395-9.227h-.14c-.692 2.862-1.403 6.313-2.236 9.227l-3.642 12.14zm-13.528 6.798l-4.076 13.98h-8.897l15.14-49.308h11.013l15.366 49.307h-9.26l-4.285-13.98zm0 0M158.745 235.662v-20.57l-14.933-28.737h9.8l5.688 12.643c1.613 3.677 2.792 6.435 4.075 9.817h.122c1.196-3.157 2.55-6.227 4.145-9.817l5.688-12.643h9.747l-15.713 28.53v20.777zm0 0" fill="#fff"/></svg>