<svg xmlns="http://www.w3.org/2000/svg" width="24" height="24" viewBox="0 0 24 24">
  <g fill="none" fill-rule="evenodd">
    <polygon points="0 24 24 24 24 0 0 0"/>
    <path fill="#17479E" d="M12,2 C17.523,2 22,6.477 22,12 C22,17.523 17.523,22 12,22 C6.477,22 2,17.523 2,12 C2,6.477 6.477,2 12,2 Z M12,3 C7.038,3 3,7.038 3,12 C3,16.963 7.038,21 12,21 C16.962,21 21,16.963 21,12 C21,7.038 16.962,3 12,3 Z M12,10 C12.276,10 12.5,10.224 12.5,10.5 L12.5,16.5 C12.5,16.776 12.276,17 12,17 C11.724,17 11.5,16.776 11.5,16.5 L11.5,10.5 C11.5,10.224 11.724,10 12,10 Z M12,7 C12.304,7 12.55,7.246 12.55,7.55 C12.55,7.854 12.304,8.1 12,8.1 C11.696,8.1 11.45,7.854 11.45,7.55 C11.45,7.246 11.696,7 12,7 Z"/>
  </g>
</svg>
