<?xml version="1.0" encoding="utf-8"?>
<!-- Generator: Adobe Illustrator 19.2.1, SVG Export Plug-In . SVG Version: 6.00 Build 0)  -->
<svg version="1.1" id="Layer_3" xmlns="http://www.w3.org/2000/svg" xmlns:xlink="http://www.w3.org/1999/xlink" x="0px" y="0px"
	 viewBox="0 0 20 24.6" style="enable-background:new 0 0 20 24.6;" xml:space="preserve">
<style type="text/css">
	.st0{opacity:0.4;}
	.st1{fill:#FFFFFF;}
</style>
<g>
	<path class="st0" d="M13,5.9l0-4.2H1.7v21.2h16.6V6.8l-4.4,0C13.4,6.8,13,6.4,13,5.9z M9.4,18.5C9.4,18.7,9.2,19,9,19H4.5
		C4.2,19,4,18.7,4,18.5v-0.7c0-0.3,0.2-0.5,0.5-0.5H9c0.3,0,0.5,0.2,0.5,0.5V18.5z M16,14.7c0,0.3-0.2,0.5-0.5,0.5h-11
		C4.2,15.2,4,15,4,14.7V14c0-0.3,0.2-0.5,0.5-0.5h11c0.3,0,0.5,0.2,0.5,0.5V14.7z M16,10.3V11c0,0.3-0.2,0.5-0.5,0.5h-11
		C4.2,11.5,4,11.3,4,11v-0.7C4,10,4.2,9.8,4.5,9.8h11C15.8,9.8,16,10,16,10.3z"/>
	<path class="st1" d="M14.8,0.4C14.6,0.1,14.3,0,13.9,0H1.2C0.6,0,0,0.6,0,1.2v22.1c0,0.7,0.6,1.2,1.2,1.2h17.5
		c0.7,0,1.2-0.6,1.2-1.2V5.9c0-0.3-0.1-0.7-0.4-0.9L14.8,0.4z M18.3,22.9H1.7V1.7H13l0,4.2c0,0.5,0.4,0.8,0.8,0.8l4.4,0V22.9z"/>
	<path class="st1" d="M4,10.3V11c0,0.3,0.2,0.5,0.5,0.5h11c0.3,0,0.5-0.2,0.5-0.5v-0.7c0-0.3-0.2-0.5-0.5-0.5h-11
		C4.2,9.8,4,10,4,10.3z"/>
	<path class="st1" d="M15.5,13.5h-11C4.2,13.5,4,13.7,4,14v0.7c0,0.3,0.2,0.5,0.5,0.5h11c0.3,0,0.5-0.2,0.5-0.5V14
		C16,13.7,15.8,13.5,15.5,13.5z"/>
	<path class="st1" d="M9,17.2H4.5c-0.3,0-0.5,0.2-0.5,0.5v0.7C4,18.7,4.2,19,4.5,19H9c0.3,0,0.5-0.2,0.5-0.5v-0.7
		C9.4,17.5,9.2,17.2,9,17.2z"/>
</g>
</svg>
